SplineFontDB: 3.0
FontName: Corben
FullName: Corben
FamilyName: Corben
Weight: Book
Copyright: Copyright (c) 2011 by vernon adams. All rights reserved.
Version: 1.000
ItalicAngle: 0
UnderlinePosition: -103
UnderlineWidth: 102
Ascent: 1638
Descent: 410
sfntRevision: 0x00010000
LayerCount: 2
Layer: 0 0 "Back"  1
Layer: 1 0 "Fore"  0
NeedsXUIDChange: 1
XUID: [1021 14 500265001 14186328]
FSType: 0
OS2Version: 2
OS2_WeightWidthSlopeOnly: 0
OS2_UseTypoMetrics: 1
CreationTime: 1317818700
ModificationTime: 1317820385
PfmFamily: 17
TTFWeight: 400
TTFWidth: 5
LineGap: 0
VLineGap: 0
Panose: 2 15 5 3 2 0 0 2 0 4
OS2TypoAscent: 2182
OS2TypoAOffset: 0
OS2TypoDescent: -494
OS2TypoDOffset: 0
OS2TypoLinegap: 0
OS2WinAscent: 2182
OS2WinAOffset: 0
OS2WinDescent: 494
OS2WinDOffset: 0
HheadAscent: 2182
HheadAOffset: 0
HheadDescent: -494
HheadDOffset: 0
OS2SubXSize: 1434
OS2SubYSize: 1331
OS2SubXOff: 0
OS2SubYOff: 287
OS2SupXSize: 1434
OS2SupYSize: 1331
OS2SupXOff: 0
OS2SupYOff: 977
OS2StrikeYSize: 102
OS2StrikeYPos: 512
OS2Vendor: 'newt'
OS2CodePages: 00000001.00000000
OS2UnicodeRanges: 8000006f.4000000b.00000000.00000000
Lookup: 4 0 1 "'liga' Standard Ligatures in Latin lookup 0"  {"'liga'"  } ['liga' ('DFLT' <'dflt' > 'latn' <'dflt' > ) ]
MarkAttachClasses: 1
DEI: 91125
ShortTable: maxp 16
  1
  0
  267
  171
  6
  172
  4
  1
  0
  0
  0
  0
  0
  0
  3
  1
EndShort
LangName: 1033 "" "" "Regular" "vernonadams: Corben: 2011" "" "Version 1.000" "" "Corben is a trademark of vernon adams." "vernon adams" "vernon adams" "Copyright (c) 2009 by vernon adams. All rights reserved." "newtypography.co.uk" "newtypography.co.uk" "" "http://scripts.sil.org/OFL" "" "" "" "Corben" 
GaspTable: 3 8 2 16 1 65535 3
Encoding: Custom
UnicodeInterp: none
NameList: Adobe Glyph List
DisplaySize: -48
AntiAlias: 1
FitToEm: 1
WidthSeparation: 344
WinInfo: 27 27 11
BeginPrivate: 0
EndPrivate
BeginChars: 350 350

StartChar: ffi
Encoding: 346 64259 0
Width: 2080
Flags: HW
LayerCount: 2
Fore
SplineSet
586 1459 m 0
 709.344726562 1459 831 1426.97851562 831 1318 c 0
 831 1236.66699219 790 1196 708 1196 c 0
 636.666992188 1196 601 1236.66699219 601 1318 c 2
 601 1332 l 1
 575.094726562 1342.66699219 549.428710938 1348 524 1348 c 0
 410 1348 353 1288.66699219 353 1170 c 0
 353 1090 367.666992188 1020.66699219 397 962 c 1
 874.474609375 962 l 1
 889.29296875 963.333007812 905.801757812 964 924 964 c 1
 920 994 918 1033.16699219 918 1081.5 c 0
 918 1333.87890625 1128.734375 1456 1385 1456 c 0
 1620.65820312 1456 1873 1420.75976562 1873 1251 c 0
 1873 1169.66699219 1828.66699219 1129 1740 1129 c 0
 1677.58203125 1129 1637 1185.30664062 1637 1234.03613281 c 0
 1637 1261.34570312 1645.66699219 1285 1663 1305 c 1
 1613.88476562 1350.60742188 1511.49121094 1373 1396.5 1373 c 0
 1222.60546875 1373 1091 1290.82714844 1091 1122 c 0
 1091 1073.33300781 1100 1020.66699219 1118 964 c 1
 1260 964 l 2
 1308 964 1332 949.333007812 1332 920 c 0
 1332 873.287109375 1297.21875 836 1263 836 c 2
 1115 836 l 1
 1115 282 l 2
 1115 172.265625 1151.02539062 125 1227 125 c 1
 1251.22558594 117.875 1270 114.817382812 1270 82 c 0
 1270 -0.8037109375 1161.54003906 1 1060.40625 1 c 0
 1025.00292969 1 985.989257812 -0.912109375 948.404296875 -0.912109375 c 0
 855.870117188 -0.912109375 772 10.578125 772 90 c 0
 772 120.48828125 901.858398438 161.571289062 913 182 c 1
 919 212 922 245.333007812 922 282 c 2
 922 835 l 1
 755.0546875 835 572.868164062 836 397 836 c 1
 397 191 l 2
 397 97.8212890625 526 157.15625 526 78 c 0
 526 0.640625 430.8671875 0 339.5625 0 c 0
 311.974609375 0 282.5390625 -0.912109375 253.736328125 -0.912109375 c 0
 162.703125 -0.912109375 78 8.197265625 78 84 c 0
 78 155.6484375 207 97.1650390625 207 191 c 2
 207 833 l 1
 137 833 l 2
 100.779296875 833 76 861.618164062 76 895.5 c 0
 76 959.192382812 111.344726562 962 184.481445312 962 c 2
 207 962 l 1
 207 1109 l 2
 207 1336.20800781 354.647460938 1459 586 1459 c 0
1497 863 m 0
 1497 933.134765625 1605.66699219 964 1710.5 964 c 0
 1785.37792969 964 1865 956.16796875 1865 888 c 2
 1865 282 l 2
 1865 269.926757812 1864.91503906 258.923828125 1864.91503906 248.875 c 0
 1864.91503906 135.989257812 1922.16113281 146.181640625 1999.5 116 c 0
 2013.16699219 110.666992188 2020 99.5 2020 82.5 c 0
 2020 -9.1162109375 1896.484375 1 1768 1 c 0
 1629.84082031 1 1519 -6.36328125 1519 90 c 0
 1519 121.362304688 1652.68359375 164.806640625 1663 182 c 1
 1669 199.142578125 1672 232.475585938 1672 282 c 2
 1672 644 l 2
 1672 791.419921875 1652.66601562 801.986328125 1556.5 827.5 c 0
 1516.83300781 838.024414062 1497 849.857421875 1497 863 c 0
EndSplineSet
LCarets2: 2 0 0 
Ligature2: "'liga'" f f i
EndChar

StartChar: numbersign
Encoding: 5 35 4
Width: 1418
Flags: HW
LayerCount: 2
Fore
SplineSet
-2 506 m 256
 -2 557.0859375 31.724609375 585 83 585 c 2
 286 585 l 1
 386 1030 l 1
 188 1030 l 2
 134 1030 107 1055.33300781 107 1106 c 256
 107 1157.0859375 140.724609375 1185 192 1185 c 2
 421 1185 l 1
 529 1666 l 1
 537.442382812 1717.71191406 570.83203125 1762 623 1762 c 256
 662.556640625 1762 700 1725.58203125 700 1686 c 128
 700 1666 699 1650.66699219 697 1640 c 2
 598 1185 l 1
 1021 1185 l 1
 1129 1666 l 1
 1138.36914062 1717.01171875 1171.53125 1762 1223.5 1762 c 128
 1262.91894531 1762 1300 1726.25488281 1300 1686.5 c 128
 1300 1666.16699219 1299 1650.66699219 1297 1640 c 2
 1198 1185 l 1
 1362 1185 l 2
 1408.35449219 1185 1444 1161.66699219 1444 1115 c 0
 1444 1058.33300781 1415.66699219 1030 1359 1030 c 2
 1163 1030 l 1
 1063 585 l 1
 1253 585 l 2
 1299.35449219 585 1335 561.666992188 1335 515 c 0
 1335 458.333007812 1306.66699219 430 1250 430 c 2
 1028 430 l 1
 933 -6 l 2
 921.64453125 -58.6474609375 887.228515625 -105 832.5 -105 c 128
 793.650390625 -105 755 -71.2177734375 755 -33 c 128
 755 -14.3330078125 756 0 758 10 c 2
 852 430 l 1
 428 430 l 1
 333 -6 l 1
 323.579101562 -59.3857421875 289.233398438 -106 235 -106 c 256
 195.819335938 -106 155 -71.44140625 155 -33 c 128
 155 -14.3330078125 156 0 158 10 c 2
 252 430 l 1
 79 430 l 2
 25 430 -2 455.333007812 -2 506 c 256
463 585 m 1
 886 585 l 1
 986 1030 l 1
 563 1030 l 1
 463 585 l 1
EndSplineSet
EndChar

StartChar: dollar
Encoding: 6 36 5
Width: 1095
Flags: HW
LayerCount: 2
Fore
SplineSet
866.400390625 921 m 128
 864.898196086 920.999981482 l 0
 807.168102303 920.999981482 796 921.249569465 796 979.700195312 c 128
 796 1093.57421875 734.850585938 1166.39648438 649 1196 c 1
 608 813 l 1
 754.922851562 768.922851562 853.154296875 731.404296875 902.692382812 700.442382812 c 128
 982.780273438 650.387695312 1057 585.266601562 1057 470.5 c 128
 1057 372.619140625 1022.79785156 314.491210938 972.5 265.5 c 128
 884.034179688 179.33203125 724.75390625 125 559 125 c 2
 534 125 l 1
 515 -59 l 1
 515 -99.3642578125 508.666992188 -126.455078125 496 -140.272460938 c 128
 483.333007812 -154.090820312 470.666992188 -161 458 -161 c 0
 432.666992188 -161 420 -143.166992188 420 -107.5 c 128
 420 -30.5751953125 435.548828125 58.5634765625 444 131 c 1
 346.435546875 140.229492188 270.044921875 156.370117188 214.827148438 179.421875 c 128
 159.609375 202.473632812 121.833007812 222.5 101.5 239.5 c 128
 81.1669921875 256.5 71 273.666992188 71 291 c 0
 71 293.666992188 74.5 302.833007812 81.5 318.5 c 0
 103.833007812 368.484375 115 434.651367188 115 517 c 0
 115 546.412109375 133.828125 574 161.5 574 c 128
 192.0859375 574 204.01953125 528.737304688 213 500 c 128
 229.110351562 448.4453125 243.609375 395.163085938 274 352.5 c 0
 315.4296875 294.338867188 376.096679688 257.838867188 456 243 c 1
 501 653 l 1
 360.213867188 693.611328125 269.184570312 726.59765625 227.911132812 751.958007812 c 128
 138.139648438 807.119140625 70 874.522460938 70 999 c 0
 70 1135 158.333007812 1228 335 1278 c 0
 400.956054688 1296.66699219 472.622070312 1306 550 1306 c 2
 560.5 1306 l 2
 564.166992188 1306 568 1305.66699219 572 1305 c 1
 602 1575 l 2
 605.1171875 1602.01953125 625.91015625 1633 652.5 1633 c 128
 672.971679688 1633 691 1615.99707031 691 1595.5 c 128
 691 1585.16699219 690.666992188 1578.33300781 690 1575 c 2
 660 1295 l 1
 813.9609375 1266.29589844 921.127929688 1212.29589844 981.5 1133 c 0
 1003.83300781 1103.66699219 1015 1074 1015 1044 c 128
 1015 986.15625 989.301757812 961.331054688 951.5 943.5 c 0
 919.700195312 928.5 891.333007812 921 866.400390625 921 c 128
559 234 m 2
 748.333007812 234 843 295 843 417 c 0
 843 492.756835938 791.166992188 551.256835938 687.5 592.5 c 0
 656.5 604.833007812 623.333007812 616.333007812 588 627 c 1
 546 234 l 1
 559 234 l 2
519 1212 m 130
 428.03515625 1212 336.73828125 1169.58105469 295 1115 c 128
 277.666992188 1092.33300781 269 1066.66699219 269 1038 c 128
 269 974.557617188 301.678710938 942.21484375 342.5 915 c 0
 382.9140625 888.057617188 442.4140625 862.723632812 521 839 c 1
 562 1211 l 1
 557.333007812 1211.66699219 553 1212 549 1212 c 130
 519 1212 l 130
EndSplineSet
EndChar

StartChar: percent
Encoding: 7 37 6
Width: 1955
Flags: HW
LayerCount: 2
Fore
SplineSet
1389 1636 m 0
 1418.78320312 1636 1432 1610.88867188 1432 1578 c 128
 1432 1558.66699219 1425.66699219 1536 1413 1510 c 2
 662 -32 l 2
 636.633789062 -84 607.633789062 -110 575 -110 c 0
 550.178710938 -110 533 -86.2802734375 533 -61 c 0
 533 -35 539.333007812 -9.3330078125 552 16 c 2
 1302 1558 l 2
 1327.36621094 1610 1356.36621094 1636 1389 1636 c 0
768 1065 m 0
 768 833.5 598.389648438 667 367.5 667 c 0
 249.422851562 667 163.6875 716.07421875 105.5 781 c 0
 39.1669921875 855.014648438 6 948.680664062 6 1062 c 0
 6 1288.76171875 173.997070312 1449 404 1449 c 0
 620.978515625 1449 768 1284.00292969 768 1065 c 0
372 1366 m 0
 231.14453125 1366 166 1232.04785156 166 1079.5 c 0
 166 912.948242188 251.177734375 754 402 754 c 0
 543.970703125 754 615 886.842773438 615 1037 c 0
 615 1205.3515625 530.508789062 1366 372 1366 c 0
1920 396 m 0
 1920 164.5 1750.38964844 -2 1519.5 -2 c 0
 1401.42285156 -2 1315.6875 47.07421875 1257.5 112 c 0
 1191.16699219 186.014648438 1158 279.680664062 1158 393 c 0
 1158 619.76171875 1325.99707031 780 1556 780 c 0
 1772.97851562 780 1920 615.002929688 1920 396 c 0
1524 697 m 0
 1383.14453125 697 1318 563.047851562 1318 410.5 c 0
 1318 243.948242188 1403.17773438 85 1554 85 c 0
 1695.97070312 85 1767 217.842773438 1767 368 c 0
 1767 536.3515625 1682.50878906 697 1524 697 c 0
EndSplineSet
EndChar

StartChar: ampersand
Encoding: 8 38 7
Width: 1564
Flags: HW
LayerCount: 2
Fore
SplineSet
1159 794 m 1
 1014.12109375 780.829101562 953.815429688 756.016601562 905 667 c 1
 808 737 l 1
 840.05078125 865.202148438 922.717773438 945.369140625 1056 977.5 c 0
 1124.14648438 993.928710938 1315.04980469 1014.95996094 1375.5 1036.5 c 0
 1439.44238281 1059.28417969 1476.60839844 1100.1171875 1487 1159 c 1
 1608 1094 l 1
 1587.94628906 1029.21191406 1569.49023438 970.453125 1527 922.5 c 0
 1472.94335938 861.493164062 1385.27636719 823.993164062 1264 810 c 1
 1331.33300781 690.872070312 1365 572.205078125 1365 454 c 0
 1365 291.860351562 1304.66699219 159.026367188 1184 55.5 c 0
 1058.5078125 -52.1669921875 890.5078125 -106 680 -106 c 0
 342.021484375 -106 66 36.7216796875 66 355 c 0
 66 483.888671875 127.833007812 589.555664062 251.5 672 c 0
 294.5 700.666992188 346 725 406 745 c 1
 406 746 l 1
 279.583007812 778.10546875 147 873.647460938 147 1019.80273438 c 128
 147 1149.16699219 222.772460938 1232.43554688 305.5 1286 c 0
 399.196289062 1346.66699219 506.030273438 1377 626 1377 c 0
 800.251953125 1377 962 1302.79394531 962 1140 c 0
 962 1101.33300781 945.666992188 1070.33300781 913 1047 c 0
 885.93359375 1027.66699219 859.833984375 1018 834.700195312 1018 c 0
 791.56640625 1018 754.666992188 1019.33300781 724 1022 c 1
 728 1048 730 1074.16699219 730 1100.5 c 128
 730 1221.00976562 662.466796875 1301 547 1301 c 0
 415.213867188 1301 327 1177.92285156 327 1040 c 0
 327 937.666992188 365.666992188 867.166992188 443 828.5 c 0
 469 815.5 495.5 809 522.5 809 c 128
 568.069335938 809 598 782.296875 598 742 c 128
 598 699.30078125 567.305664062 683 516.5 683 c 128
 442.40625 683 382.231445312 636.014648438 346 591 c 0
 299.333007812 533.020507812 276 467.020507812 276 393 c 0
 276 263.958007812 355.833007812 179.125 515.5 138.5 c 0
 571.833007812 124.166992188 643.333007812 117 730 117 c 128
 1015.17675781 117 1233 230.807617188 1233 501 c 0
 1233 590.619140625 1208.33300781 688.286132812 1159 794 c 1
EndSplineSet
EndChar

StartChar: quotesingle
Encoding: 9 39 8
Width: 391
Flags: HW
LayerCount: 2
Fore
SplineSet
90 1323 m 1
 90 1392.66113281 124.231445312 1450 195 1450 c 256
 263.541992188 1450 301 1388.97753906 301 1331 c 1
 231 889 l 1
 228.977539062 865.743164062 215.616210938 841 194 841 c 0
 173.883789062 841 162.55078125 855.666992188 160 885 c 1
 90 1323 l 1
EndSplineSet
EndChar

StartChar: parenleft
Encoding: 10 40 9
Width: 606
Flags: HW
LayerCount: 2
Fore
SplineSet
585 -92 m 0
 530.05078125 -92 450.883789062 -46.3330078125 347.5 45 c 0
 232.276367188 146.791992188 149.943359375 273.458984375 100.5 425 c 0
 74.8330078125 503.666992188 62 588.666992188 62 680 c 256
 62 1029.44433594 272.624023438 1303.35839844 515 1433 c 0
 538.030273438 1445.66699219 561.364257812 1452 585 1452 c 0
 622.333007812 1452 641 1438.33300781 641 1411 c 0
 641 1385.70605469 617.5 1357.88183594 570.5 1327.52929688 c 128
 391.879882812 1212.17578125 279 974.991210938 279 692 c 0
 279 476.396484375 335.166992188 295.729492188 447.5 150 c 0
 484.5 102 520.833007812 66 556.5 42 c 0
 612.833007812 4.09375 641 -27.7158203125 641 -53.4296875 c 128
 641 -79.1435546875 622.333007812 -92 585 -92 c 0
EndSplineSet
EndChar

StartChar: parenright
Encoding: 11 41 10
Width: 612
Flags: HW
LayerCount: 2
Fore
SplineSet
30 1452 m 0
 84.94921875 1452 164.116210938 1406.33300781 267.5 1315 c 0
 382.723632812 1213.20800781 465.056640625 1086.54101562 514.5 935 c 0
 540.166992188 856.333007812 553 771.333007812 553 680 c 256
 553 330.555664062 342.375976562 56.6416015625 100 -73 c 0
 76.9697265625 -85.6669921875 53.6357421875 -92 30 -92 c 0
 -7.3330078125 -92 -26 -78.3330078125 -26 -51 c 0
 -26 -26.98046875 -3 0.5244140625 43 31.5146484375 c 128
 221.9609375 152.081054688 336 404.651367188 336 692 c 0
 336 898.180664062 280.833007812 1071.34667969 170.5 1211.5 c 0
 133.5 1258.5 96.6669921875 1293.83300781 60 1317.5 c 0
 2.6669921875 1354.50585938 -26 1386.17382812 -26 1412.50488281 c 128
 -26 1438.83496094 -7.3330078125 1452 30 1452 c 0
EndSplineSet
EndChar

StartChar: asterisk
Encoding: 12 42 11
Width: 1185
Flags: HW
LayerCount: 2
Fore
SplineSet
588.560546875 1478 m 128
 653.42578125 1478 708 1433.62109375 708 1368 c 128
 708 1297.84179688 687.662109375 1248.30175781 666.5 1197 c 0
 634.197265625 1118.68945312 615.030273438 1060.68945312 609 1023 c 1
 587 1016 l 1
 570 1022 l 1
 570 1028 l 1
 564.39453125 1055.32714844 551.826171875 1096.65820312 532.295898438 1151.99511719 c 0
 498.098632812 1248.88671875 481 1311.61132812 481 1340.16699219 c 128
 481 1421.90332031 514.793945312 1478 588.560546875 1478 c 128
199 633 m 0
 134.208007812 633 80 673.243164062 80 746.5 c 128
 80 792.216796875 135.36328125 821.702148438 172.5 840.5 c 128
 250.338867188 879.900390625 409.645507812 927 509 927 c 2
 516 927 l 1
 545 916 l 1
 481 846 l 2
 351.909179688 704 257.909179688 633 199 633 c 0
696 1043 m 1
 779.869140625 1135.25585938 854.702148438 1199.75585938 920.5 1236.5 c 0
 946.166992188 1250.83300781 967.666992188 1258 985 1258 c 128
 1054.37402344 1258 1103 1226.91210938 1103 1162 c 1
 1092 1143 l 1
 1092 1138 l 1
 1098 1138 l 1
 1096.30175781 1081.97363281 1034.46875 1041.63964844 912.5 1017 c 0
 879.5 1010.33300781 847.666992188 1004.33300781 817 999 c 2
 788 994 l 2
 729.765625 984.016601562 691.765625 974.350585938 674 965 c 1
 645 992 l 1
 696 1043 l 1
479 565.5 m 0
 479 604.529296875 499.666992188 674.362304688 541 775 c 1
 565 823 577 857 577 877 c 1
 590 882 l 1
 607.950195312 876.016601562 638.1171875 798.349609375 680.5 649 c 0
 696.166992188 593.793945312 704 559.126953125 704 545 c 0
 704 465.666992188 664.333007812 426 585 426 c 0
 514.333007812 426 479 472.5 479 565.5 c 0
1098 748.625 m 128
 1098 682.384765625 1048.67578125 628 990.5 628 c 128
 931.763671875 628 894.061523438 655.63671875 860 685 c 0
 828.993164062 711.729492188 792.66015625 749.396484375 751 798 c 1
 733.555664062 822.712890625 717.221679688 842.045898438 702 856 c 1
 702 855 l 1
 690 861.666992188 673.666992188 875.333007812 653 896 c 1
 653 895 l 2
 652.333007812 895 650.666992188 896.333007812 648 899 c 1
 648 914 l 1
 674 927 l 1
 737.19140625 906.366210938 816.622070312 891.748046875 885 877 c 2
 931 867 l 2
 965.364257812 858.9140625 967.893554688 860.776367188 1011 850 c 1
 1011 841 l 1
 1056.78125 835.614257812 1098 784.8671875 1098 748.625 c 128
80 1151.5 m 128
 80 1216.94042969 122.201171875 1268 179.716796875 1268 c 128
 291.295898438 1268 348.37109375 1180.37988281 403 1121 c 1
 428 1095 l 1
 460.108398438 1059.32421875 485.44140625 1034.99121094 504 1022 c 1
 540 994 l 1
 507 972 l 1
 470.490234375 987.033203125 439.616210938 987.603515625 386.73046875 998.115234375 c 128
 286.4140625 1018.0546875 170.751953125 1036.50683594 109 1094 c 128
 89.6669921875 1112 80 1131.16699219 80 1151.5 c 128
EndSplineSet
EndChar

StartChar: plus
Encoding: 13 43 12
Width: 795
Flags: HW
LayerCount: 2
Fore
SplineSet
481 321 m 2
 481 263.447265625 462.96484375 233 404 233 c 256
 350 233 323 263.666992188 323 325 c 2
 323 551 l 1
 103 551 l 2
 33.6904296875 551 15 567.822265625 15 631 c 0
 15 672.333007812 45.6669921875 693 107 693 c 2
 323 693 l 1
 323 920 l 2
 323 980.666992188 347 1011 395 1011 c 0
 459.736328125 1011 481 981.908203125 481 917 c 2
 481 693 l 1
 698 693 l 2
 764.411132812 693 789 677.831054688 789 615.5 c 128
 789 563.393554688 751.87890625 551 695 551 c 2
 481 551 l 1
 481 321 l 2
EndSplineSet
EndChar

StartChar: comma
Encoding: 14 44 13
Width: 459
Flags: HW
LayerCount: 2
Fore
SplineSet
375 99 m 1
 375 -18.451171875 290.040039062 -120 177.5 -120 c 0
 151.833007812 -120 139 -112.333007812 139 -97 c 0
 139 -76.837890625 159.106445312 -65.8984375 171.5 -54 c 0
 194.159179688 -32.2470703125 205.9921875 -5.2470703125 207 27 c 1
 143.591796875 30.01953125 90 54.2294921875 90 117.5 c 128
 90 190.038085938 166.25 225 236 225 c 0
 320.266601562 225 366.600585938 183 375 99 c 1
EndSplineSet
EndChar

StartChar: hyphen
Encoding: 15 45 14
Width: 778
Flags: HW
LayerCount: 2
Fore
SplineSet
597 585 m 2
 643.354492188 585 679 561.666992188 679 515 c 0
 679 458.333007812 650.666992188 430 594 430 c 2
 183 430 l 2
 129 430 102 455.333007812 102 506 c 256
 102 557.0859375 135.724609375 585 187 585 c 2
 597 585 l 2
EndSplineSet
EndChar

StartChar: period
Encoding: 16 46 15
Width: 460
Flags: HW
LayerCount: 2
Fore
SplineSet
223.903320312 233 m 128
 297.197265625 233 376 187.509765625 376 128.424804688 c 128
 376 59.671875 335.838867188 25.78515625 285 8.5 c 128
 268.333007812 2.8330078125 252.166992188 0 236.5 0 c 128
 163.776367188 0 95 46.9072265625 95 112 c 256
 95 146.389648438 110.833007812 175.556640625 142.5 199.5 c 0
 172.038085938 221.833007812 199.171875 233 223.903320312 233 c 128
EndSplineSet
EndChar

StartChar: slash
Encoding: 17 47 16
Width: 652
Flags: HW
LayerCount: 2
Fore
SplineSet
196 -87 m 2
 183.479492188 -126.6484375 170.490234375 -168 125 -168 c 128
 105.666992188 -168 82.8330078125 -163.833007812 56.5 -155.5 c 0
 6.8330078125 -139.782226562 -18 -115.616210938 -18 -83 c 0
 -18 -71.533203125 -14 -52.2001953125 -6 -25 c 2
 495 1597 l 2
 507.28515625 1638.77050781 523.88671875 1679 576.5 1679 c 128
 622.498046875 1679 656.240234375 1666.75878906 679.5 1646.5 c 0
 698.5 1629.95214844 708 1614.06445312 708 1598.83886719 c 0
 708 1574.94628906 704.666992188 1553.66699219 698 1535 c 2
 196 -87 l 2
EndSplineSet
EndChar

StartChar: zero
Encoding: 18 48 17
Width: 1529
Flags: HW
LayerCount: 2
Fore
SplineSet
774.5 111 m 0
 1001.97460938 111 1129.98535156 245.356445312 1195.5 408.5 c 0
 1229.83300781 493.997070312 1247 586.497070312 1247 686 c 0
 1247 852.388671875 1204.66699219 995.555664062 1120 1115.5 c 0
 1027.05859375 1247.16699219 901.725585938 1313 744 1313 c 0
 595.438476562 1313 478.604492188 1254.16699219 393.5 1136.5 c 0
 317.166992188 1030.9609375 279 899.793945312 279 743 c 0
 279 574.333007812 321 430 405 310 c 0
 497.866210938 177.333007812 621.033203125 111 774.5 111 c 0
757 -25 m 256
 533.124023438 -25 358.290039062 48.8330078125 232.5 196.5 c 0
 117.5 331.5 60 495.666992188 60 689 c 0
 60 888.053710938 120.166992188 1060.38671875 240.5 1206 c 0
 321.822265625 1304.40722656 426.822265625 1373.40722656 555.5 1413 c 0
 620.5 1433 692.333007812 1443 771 1443 c 128
 1090.79882812 1443 1292.06347656 1292.078125 1396 1076 c 0
 1446.66699219 970.666992188 1472 856 1472 732 c 0
 1472 532.138671875 1411.66699219 359.305664062 1291 213.5 c 0
 1208.42285156 113.71875 1102.42285156 44.21875 973 5 c 0
 907 -15 835 -25 757 -25 c 256
EndSplineSet
EndChar

StartChar: one
Encoding: 19 49 18
Width: 605
Flags: HW
LayerCount: 2
Fore
SplineSet
348.5 1442 m 128
 423.653320312 1442 428.079101562 1415.29394531 428.079101562 1342.61425781 c 0
 428.079101562 1332.91113281 428 1322.38769531 428 1311 c 2
 428 177 l 2
 428 146.440429688 478.471679688 138.681640625 507 132.5 c 128
 539.869140625 125.377929688 586 120.44921875 586 83 c 128
 586 41.4580078125 551.849609375 20.7021484375 514.5 11.5 c 0
 483.381835938 3.8330078125 418.548828125 0 320 0 c 256
 221.686523438 0 158.607421875 3.3330078125 130.764648438 10 c 0
 77.587890625 22.732421875 51 49.3994140625 51 90 c 0
 51 147.795898438 212 120.090820312 212 177 c 2
 212 1233 l 2
 212 1251.41894531 184.833007812 1264.41894531 130.5 1272 c 128
 76.1669921875 1279.58105469 49 1289.91503906 49 1303 c 0
 49 1361.13378906 112 1402.79980469 238 1428 c 0
 284.666992188 1437.33300781 321.5 1442 348.5 1442 c 128
EndSplineSet
EndChar

StartChar: two
Encoding: 20 50 19
Width: 1068
Flags: HW
LayerCount: 2
Fore
SplineSet
595 1491 m 128
 818.745117188 1491 960 1357.55371094 960 1140 c 0
 960 986.502929688 878.5 815.502929688 715.5 627 c 0
 622.45703125 519.399414062 529.11328125 424.5 435.467773438 342.299804688 c 128
 341.822265625 260.099609375 265.666992188 195 207 147 c 1
 489.625 147 l 2
 580.541992188 147 648 147.5 692 148.5 c 2
 714 149 l 1
 771.197265625 149 817.697265625 195.333007812 853.5 288 c 0
 864.5 316.470703125 870 335.470703125 870 345 c 2
 870 346 l 1
 951.233398438 346 1004 287.446289062 1004 193 c 128
 1004 98.1396484375 954.331054688 1 870 1 c 2
 159 1 l 2
 86.0380859375 1 27 40.564453125 27 118 c 128
 27 136 38.3330078125 157.333007812 61 182 c 128
 83.6669921875 206.666992188 117.833007812 239.333007812 163.5 280 c 128
 349.090820312 445.270507812 538.482421875 642.67578125 665 862.5 c 0
 721 959.799804688 749 1041.63378906 749 1108 c 0
 749 1247.54296875 676.947265625 1322 537 1322 c 256
 421.559570312 1322 273.176757812 1262.02246094 185 1194 c 1
 169.666992188 1185.33300781 153.833007812 1181 137.5 1181 c 128
 103.442382812 1181 72 1197.0703125 72 1232.5 c 128
 72 1250.83300781 85 1269.66699219 111 1289 c 1
 201.5625 1385.59960938 317.895507812 1448.43261719 460 1477.5 c 0
 504 1486.5 549 1491 595 1491 c 128
EndSplineSet
EndChar

StartChar: three
Encoding: 21 51 20
Width: 1150
Flags: HW
LayerCount: 2
Fore
SplineSet
677 879 m 1
 904.249023438 852.264648438 1092 707.678710938 1092 467 c 0
 1092 313.399414062 1035.5 191.399414062 922.5 101 c 0
 818.333007812 17.6669921875 687.166992188 -24 529 -24 c 0
 446.813476562 -24 346.313476562 -2.1669921875 227.5 41.5 c 0
 143.041015625 72.5400390625 81.8740234375 109.20703125 44 151.5 c 0
 24 173.833007812 14 198 14 224 c 128
 14 250 31.3330078125 263 66 263 c 0
 84.5146484375 263 106.4765625 253.333007812 131.885742188 234 c 128
 182.815429688 195.249023438 212.55078125 171.254882812 275.5 146.5 c 0
 344.157226562 119.5 414.404296875 106 486.243164062 106 c 128
 624.229492188 106 697.260742188 138.921875 765 204.5 c 0
 833.666992188 270.975585938 868 349.80859375 868 441 c 0
 868 649.27734375 733.200195312 774 524 774 c 0
 466.274414062 774 407.608398438 760.666992188 348 734 c 0
 342.666992188 732 336 731 328 731 c 128
 311.171875 731 290 764.337890625 290 781.5 c 0
 290 798.25 296.833007812 810.6875 310.5 818.8125 c 128
 350.708007812 842.716796875 414.943359375 865.499023438 464.5 889 c 128
 582.623046875 945.017578125 742 1036.50390625 742 1192 c 0
 742 1288.50097656 641.032226562 1361 542 1361 c 0
 451.661132812 1361 355.995117188 1331.83300781 255 1273.5 c 0
 216.333007812 1251.16699219 178.666992188 1222.66699219 142 1188 c 0
 135.333007812 1181.33300781 126.666992188 1178 116 1178 c 128
 95.912109375 1178 68 1205.81347656 68 1225.5 c 128
 68 1235.16699219 70 1243 74 1249 c 0
 151.015625 1364.5234375 275.015625 1440.5234375 446 1477 c 0
 496 1487.66699219 544.833007812 1493 592.5 1493 c 128
 804.62109375 1493 969 1387.04199219 969 1187 c 0
 969 1086.30761719 904.5 999.640625 775.5 927 c 0
 741.166992188 907.666992188 708.333007812 891.666992188 677 879 c 1
EndSplineSet
EndChar

StartChar: four
Encoding: 22 52 21
Width: 1041
Flags: HW
LayerCount: 2
Fore
SplineSet
1051 545.5 m 128
 1051 480.693359375 1006.86328125 472 934 472 c 2
 786 472 l 1
 786 177 l 2
 786 146.440429688 836.471679688 138.681640625 865 132.5 c 128
 897.869140625 125.377929688 944 120.44921875 944 83 c 128
 944 41.4580078125 909.849609375 20.7021484375 872.5 11.5 c 0
 841.381835938 3.8330078125 776.548828125 0 678 0 c 256
 579.686523438 0 516.607421875 3.3330078125 488.764648438 10 c 0
 435.587890625 22.732421875 409 49.3994140625 409 90 c 0
 409 147.795898438 570 120.090820312 570 177 c 2
 570 470 l 1
 112 470 l 2
 32.9091796875 470 -16 502.06640625 -16 574.5 c 0
 -16 598.833007812 -10 623 2 647 c 1
 212.5234375 961.885742188 360.2265625 1189.3359375 563 1490 c 1
 634 1490 l 2
 678.978515625 1490 710.723632812 1480.33300781 729.234375 1461 c 0
 767.078125 1421.47363281 786 1350.80761719 786 1249 c 2
 786 611 l 1
 921 611 l 2
 1003.86816406 611 1051 604.856445312 1051 545.5 c 128
570 609 m 1
 570 1275 l 1
 471.682617188 1107.859375 369.811523438 929.451171875 290 793 c 0
 249.803710938 724.278320312 215.470703125 662.944335938 187 609 c 1
 570 609 l 1
EndSplineSet
EndChar

StartChar: five
Encoding: 23 53 22
Width: 1153
Flags: HW
LayerCount: 2
Fore
SplineSet
-3 210.857421875 m 128
 -3 246.594726562 28.6826171875 283 57.2890625 283 c 128
 68.4296875 283 87.8330078125 276.166992188 115.5 262.5 c 128
 222.884765625 209.454101562 379.327148438 163 532.01953125 163 c 128
 646.15625 163 715.76171875 188.500976562 771 241.5 c 0
 821 289.47265625 846 348.97265625 846 420 c 0
 846 506 812 580.333007812 744 643 c 0
 668.041992188 713 564.708984375 748 434 748 c 0
 339.384765625 748 234.384765625 739.666992188 119 723 c 1
 280 1388 l 1
 519 1379 l 1
 764.142578125 1379 899.475585938 1423.66699219 925 1513 c 1
 944 1514 l 1
 1011.23632812 1514 1053 1454.95703125 1053 1385.09277344 c 128
 1053 1261.79882812 933.424804688 1222 812 1222 c 2
 380 1222 l 1
 307 864 l 1
 386.200195312 871.333007812 461.333007812 875 532.400390625 875 c 128
 855.208007812 875 1076 716.00390625 1076 401 c 0
 1076 133.453125 839.715820312 -22 560 -22 c 0
 474.666992188 -22 373 -2.3330078125 255 37 c 0
 182.333007812 61.2216796875 126.833007812 86.111328125 88.5 111.666992188 c 128
 50.1669921875 137.22265625 26.3330078125 156 17 168 c 0
 3.6669921875 185.142578125 -3 199.428710938 -3 210.857421875 c 128
EndSplineSet
EndChar

StartChar: six
Encoding: 24 54 23
Width: 1186
Flags: HW
LayerCount: 2
Fore
SplineSet
608.5 119 m 128
 836.112304688 119 930 279.64453125 930 505 c 0
 930 659.357421875 872 760.357421875 756 808 c 0
 718.666992188 823.333007812 676.666992188 831 630 831 c 0
 532.938476562 831 424.938476562 799.666992188 306 737 c 1
 294 674 288 613.75 288 556.25 c 128
 288 369.201171875 334.111328125 230.083984375 451 157.5 c 128
 492.333007812 131.833007812 544.833007812 119 608.5 119 c 128
939 1513 m 1
 970.216796875 1513 996 1485.89160156 996 1445.5 c 0
 996 1421.44140625 984.333007812 1405.84375 961 1398.70605469 c 128
 791.431640625 1346.83691406 640.5390625 1281.5703125 523 1172 c 0
 435.755859375 1090.67089844 367.755859375 989.670898438 319 869 c 1
 429.16015625 937 547.16015625 971 673 971 c 0
 804.796875 971 913.463867188 933.166992188 999 857.5 c 0
 1093.66699219 773.756835938 1141 654.256835938 1141 499 c 0
 1141 164.682617188 950.987304688 -27 616 -27 c 0
 254.092773438 -27 62 231.02734375 62 603 c 0
 62 989.498046875 282.577148438 1238.21289062 557 1384 c 0
 672.237304688 1445.21972656 796.5703125 1487.88574219 930 1512 c 1
 939 1513 l 1
EndSplineSet
EndChar

StartChar: seven
Encoding: 25 55 24
Width: 874
Flags: HW
LayerCount: 2
Fore
SplineSet
114.5 1135 m 128
 30.4169921875 1135 -27 1181.55175781 -27 1267 c 128
 -27 1389.08007812 66.19921875 1450 188 1450 c 2
 745 1450 l 2
 836.795898438 1450 897 1430.54199219 897 1356.5 c 128
 897 1279.57714844 856.75390625 1235.10351562 835 1178 c 2
 391 34 l 1
 370.333007812 -7.3330078125 331.333007812 -28 274 -28 c 0
 228.631835938 -28 196.631835938 -8.3330078125 178 31 c 0
 172 43.6669921875 169 55.5 169 66.5 c 0
 169 84.8330078125 172.333007812 101.333007812 179 116 c 2
 712 1337 l 1
 439 1337 l 2
 265.283203125 1337 176.984375 1282.82910156 164 1140 c 1
 147.333007812 1136.66699219 130.833007812 1135 114.5 1135 c 128
EndSplineSet
EndChar

StartChar: eight
Encoding: 26 56 25
Width: 1268
Flags: HW
LayerCount: 2
Fore
SplineSet
276 341 m 0
 276 197.305664062 457.672851562 126 617 126 c 0
 762.798828125 126 871.158203125 165.177734375 933.5 235 c 128
 958.5 263 971 298.333007812 971 341 c 128
 971 437.58203125 906.701171875 499.098632812 846 543.5 c 128
 777.146484375 593.865234375 685.73046875 636.453125 608 676 c 1
 531.469726562 645.676757812 458.469726562 596.84375 389 529.5 c 0
 313.666992188 456.47265625 276 393.639648438 276 341 c 0
558 1358.5 m 0
 405.598632812 1347.61425781 339 1278.94238281 339 1137.5 c 128
 339 1087.40722656 372.081054688 1032.90332031 398.5 1001.5 c 128
 446.983398438 943.869140625 519.416015625 898.515625 590 865.5 c 128
 610.666992188 855.833007812 628 847.333007812 642 840 c 1
 703.579101562 881.985351562 779.888671875 926 836 976.5 c 0
 906 1039.5 941 1106.66699219 941 1178 c 0
 941 1300.66699219 843.666992188 1362 649 1362 c 0
 621 1362 590.666992188 1360.83300781 558 1358.5 c 0
1115 1160 m 0
 1115 1016.69628906 1010 885.696289062 800 767 c 1
 990.458984375 689.852539062 1118.79199219 595.185546875 1185 483 c 0
 1209 442.333007812 1221 398 1221 350 c 128
 1221 143.05859375 1073.96777344 49.2939453125 907.5 8 c 0
 829.5625 -11.3330078125 755.661132812 -21 685.796875 -21 c 128
 457.194335938 -21 288.463867188 7.2021484375 172.5 120.5 c 0
 109.5 182.051757812 78 262.551757812 78 362 c 0
 78 443.833007812 120 521.5 204 595 c 0
 272.508789062 654.944335938 361.508789062 707.278320312 471 752 c 1
 365.522460938 795.509765625 280.85546875 853.009765625 217 924.5 c 0
 153.666992188 995.405273438 122 1070.23925781 122 1149 c 0
 122 1301.13574219 214.833007812 1405.13574219 400.5 1461 c 0
 471.401367188 1482.33300781 535.043945312 1493 591.426757812 1493 c 128
 742.815429688 1493 838.340820312 1473.07910156 939.5 1423 c 128
 1035.41992188 1375.51464844 1115 1283.73632812 1115 1160 c 0
EndSplineSet
EndChar

StartChar: nine
Encoding: 27 57 26
Width: 1165
Flags: HW
LayerCount: 2
Fore
SplineSet
566.5 1367 m 128
 353.91015625 1367 214 1232.44921875 214 1033 c 0
 214 939.399414062 244.333007812 859.233398438 305 792.5 c 0
 371.364257812 719.5 461.030273438 683 574 683 c 0
 676.118164062 683 773.118164062 705 865 749 c 1
 877 812 883 872.25 883 929.75 c 128
 883 1116.79882812 836.888671875 1255.91601562 720 1328.5 c 128
 678.666992188 1354.16699219 627.5 1367 566.5 1367 c 128
232 -27 m 1
 200.783203125 -27 175 0.1083984375 175 40.5 c 0
 175 64.55859375 186.666992188 80.15625 210 87.2939453125 c 128
 382.7578125 140.138671875 537.328125 212.76953125 655 327.5 c 0
 744.723632812 414.979492188 813.723632812 521.479492188 862 647 c 1
 765.702148438 585 660.702148438 554 547 554 c 0
 255.963867188 554 30 734.133789062 30 1017 c 0
 30 1237.390625 127 1387.72363281 321 1468 c 0
 393.5 1498 468.791992188 1513 546.875 1513 c 128
 720.291992188 1513 849.244140625 1457.65234375 941.5 1366 c 0
 1053.16699219 1255.06347656 1109 1094.06347656 1109 883 c 0
 1109 496.501953125 888.422851562 247.787109375 614 102 c 0
 494.329101562 38.4248046875 369.99609375 -4.2412109375 241 -26 c 1
 232 -27 l 1
EndSplineSet
EndChar

StartChar: colon
Encoding: 28 58 27
Width: 495
Flags: HW
LayerCount: 2
Fore
SplineSet
240.903320312 984 m 128
 314.196814612 984 393 938.510041517 393 879.424804688 c 128
 393 810.671408386 352.838910246 776.785229484 302 759.5 c 128
 285.333333333 753.833333333 269.166666667 751 253.5 751 c 128
 180.776622327 751 112 797.907318818 112 863 c 256
 112 897.389973958 127.833333333 926.556640625 159.5 950.5 c 0
 189.037760417 972.833333333 216.172200521 984 240.903320312 984 c 128
240.903320312 416 m 128
 314.196814612 416 393 370.510041517 393 311.424804688 c 128
 393 242.671408386 352.838910246 208.785229484 302 191.5 c 128
 285.333333333 185.833333333 269.166666667 183 253.5 183 c 128
 180.776622327 183 112 229.907318818 112 295 c 256
 112 329.389973958 127.833333333 358.556640625 159.5 382.5 c 0
 189.037760417 404.833333333 216.172200521 416 240.903320312 416 c 128
EndSplineSet
EndChar

StartChar: semicolon
Encoding: 29 59 28
Width: 503
Flags: HW
LayerCount: 2
Fore
SplineSet
397 290 m 1
 397 172.549278776 312.039591436 71 199.5 71 c 0
 173.833333333 71 161 78.6666666667 161 94 c 0
 161 114.162041283 181.106153047 125.101906925 193.5 137 c 0
 216.158854167 158.752604167 227.9921875 185.752604167 229 218 c 1
 165.592184891 221.019342921 112 245.229600903 112 308.5 c 128
 112 381.037897877 188.249985955 416 258 416 c 0
 342.266927083 416 388.600260417 374 397 290 c 1
243.903320312 984 m 128
 317.196814612 984 396 938.510041517 396 879.424804688 c 128
 396 810.671408386 355.838910246 776.785229484 305 759.5 c 128
 288.333333333 753.833333333 272.166666667 751 256.5 751 c 128
 183.776622327 751 115 797.907318818 115 863 c 256
 115 897.389973958 130.833333333 926.556640625 162.5 950.5 c 0
 192.037760417 972.833333333 219.172200521 984 243.903320312 984 c 128
EndSplineSet
EndChar

StartChar: less
Encoding: 30 60 29
Width: 732
Flags: HW
LayerCount: 2
Fore
SplineSet
558.65625 928 m 128
 601.69140625 928 640 904.205078125 640 866 c 128
 640 850.666992188 632.833007812 833.833007812 618.5 815.5 c 128
 563.0234375 744.541015625 477.010742188 673.682617188 403.5 617 c 0
 342.793945312 570.190429688 297.293945312 538.524414062 267 522 c 1
 315.329101562 495.638671875 371.078125 453.881835938 434.247070312 396.728515625 c 128
 497.416015625 339.576171875 540.333007812 299.166992188 563 275.5 c 128
 585.666992188 251.833007812 604.166992188 230.333007812 618.5 211 c 128
 632.833007812 191.666992188 640 174.166992188 640 158.5 c 128
 640 125.768554688 604.630859375 96 571 96 c 128
 553 96 527.833007812 104.5 495.5 121.5 c 128
 377.737304688 183.416992188 251.4375 282.784179688 157 372.5 c 0
 80.3330078125 445.333007812 42 495.166992188 42 522 c 0
 42 547.233398438 80.3330078125 594.733398438 157 664.5 c 0
 219.278320312 721.172851562 283.180664062 771.2578125 348.708984375 814.754882812 c 0
 462.444335938 890.251953125 532.426757812 928 558.65625 928 c 128
EndSplineSet
EndChar

StartChar: equal
Encoding: 31 61 30
Width: 1264
Flags: HW
LayerCount: 2
Fore
SplineSet
1021 672 m 2
 1099.67480469 672 1148 659.485351562 1148 592.5 c 128
 1148 508.328125 1103.96875 492 1012 492 c 2
 256 492 l 2
 179.44140625 492 130 509.786132812 130 570.900390625 c 128
 130 663.002929688 181.073242188 672 278 672 c 2
 1021 672 l 2
1020 362 m 2
 1099.02441406 362 1143 348.857421875 1143 280 c 128
 1143 236.15234375 1126.23046875 207.63671875 1096.5 194.5 c 0
 1079.14941406 186.833007812 1041.98242188 183 985 183 c 2
 259 183 l 2
 178.215820312 183 125 195.43359375 125 258.64453125 c 128
 125 351.141601562 176.122070312 362 273 362 c 2
 1020 362 l 2
EndSplineSet
EndChar

StartChar: greater
Encoding: 32 62 31
Width: 728
Flags: HW
LayerCount: 2
Fore
SplineSet
174.525390625 96 m 128
 131.816911002 96 94 120.19935784 94 158.5 c 128
 94 174.166666667 101.166666667 191.666666667 115.5 211 c 128
 171.401893736 286.402554342 256.696137094 360.14498144 330.5 421.5 c 0
 385.518229167 467.23828125 431.018229167 500.73828125 467 522 c 1
 381.859375 568.440104167 283.192708333 646.106770833 171 755 c 0
 119.666666667 804.823567708 94 839.612630208 94 859.3671875 c 128
 94 897.251888539 125.96559954 928 163 928 c 128
 181 928 206.166666667 920 238.5 904 c 128
 315.098102507 866.095784326 393.794594482 809.904054138 465 756.5 c 128
 530.274689209 707.543983093 692 571.306091891 692 522 c 0
 692 495.166666667 653.666666667 445.333333333 577 372.5 c 0
 511.701822917 310.466796875 447.043945312 257.375325521 383.026367188 213.225585938 c 0
 269.708658854 135.075195312 200.208333333 96 174.525390625 96 c 128
EndSplineSet
EndChar

StartChar: question
Encoding: 33 63 32
Width: 680
Flags: HW
LayerCount: 2
Fore
SplineSet
287.905273438 1287 m 128
 495.946289062 1287 670 1200.1796875 670 1009 c 0
 670 936.55859375 642.5 873.225585938 587.5 819 c 0
 539.612304688 771.787109375 479.71484375 734.08984375 430.5 687.5 c 0
 354.834960938 615.87109375 337.514648438 552.830078125 325.5 449.5 c 128
 321.997070312 419.373046875 312.540039062 378 289 378 c 0
 261.666992188 378 248 411.666992188 248 479 c 128
 248 644.002929688 292.442382812 735.68359375 373.5 813 c 128
 395.166992188 833.666992188 415.333007812 853.5 434 872.5 c 0
 477.333007812 916.607421875 499 961.774414062 499 1008 c 0
 499 1091.33300781 436.666992188 1133 312 1133 c 0
 255.111328125 1133 190.778320312 1114 119 1076 c 1
 103.833007812 1066.66699219 86.0419921875 1062 65.625 1062 c 128
 23.9326171875 1062 -10 1099.66894531 -10 1142 c 128
 -10 1196.54785156 55.619140625 1230.63671875 101 1248.5 c 0
 166.20703125 1274.16699219 228.508789062 1287 287.905273438 1287 c 128
298 233 m 256
 372.89453125 233 436 173.4921875 436 118 c 0
 436 41.5370270222 364.590855638 3.90754113615 293.76843618 3.90754113615 c 0
 224.100340647 3.90754113615 155 40.3203887669 155 112 c 256
 155 173.364257812 213.954101562 233 298 233 c 256
EndSplineSet
EndChar

StartChar: at
Encoding: 34 64 33
Width: 1583
Flags: HW
LayerCount: 2
Fore
SplineSet
1071.5 993 m 128
 1129.50292969 993 1157 957.446289062 1157 901 c 2
 1157 438 l 2
 1157 377.333007812 1183.66699219 347 1237 347 c 0
 1305.59863281 347 1349.765625 426.833007812 1369.5 586.5 c 0
 1375.83300781 637.7421875 1379 690.635742188 1379 745.181640625 c 128
 1379 975.551757812 1247.16113281 1103.70703125 1080 1168 c 0
 993.333007812 1201.33300781 897.333007812 1218 792 1218 c 0
 644.313476562 1218 511.98046875 1165.66699219 395 1061 c 0
 316.985351562 991.197265625 261.819335938 903.530273438 229.5 798 c 0
 213.166992188 744.666992188 205 677.166992188 205 595.5 c 128
 205 418.607421875 285.482421875 266.591796875 383.5 180 c 0
 489.903320312 86 633.295898438 39 813.678710938 39 c 128
 994.061523438 39 1169.16894531 92.6669921875 1339 200 c 1
 1340 200 l 2
 1345.90527344 200 1364.23828125 171.666992188 1395 115 c 1
 1208.14648438 -15.6669921875 1005.14648438 -81 786 -81 c 0
 580.475585938 -81 410.475585938 -22.1669921875 276 95.5 c 0
 130.666992188 222.666992188 58 395.833007812 58 615 c 0
 58 918.731445312 234.984375 1135.87011719 450 1246 c 0
 560.634765625 1302.66699219 668.959960938 1331 774.9765625 1331 c 128
 1114.79101562 1331 1340.17089844 1237.97949219 1457.5 1021.5 c 0
 1501.83300781 939.702148438 1524 852.668945312 1524 760.401367188 c 128
 1524 591.95703125 1496.54980469 469.713867188 1433.5 374 c 0
 1377.28808594 288.666992188 1305.26367188 246 1217.42480469 246 c 128
 1129.5859375 246 1063.44433594 279.333007812 1019 346 c 1
 919.935546875 272.666992188 821.268554688 236 723 236 c 0
 519.595703125 236 388 402.13671875 388 611 c 0
 388 829.375976562 511.852539062 1015 718.66015625 1015 c 128
 814.497070312 1015 910.610351562 989 1007 937 c 1
 1007 968.478515625 1041.31738281 993 1071.5 993 c 128
545 608 m 0
 545 455.524414062 603.255859375 340 749.958984375 340 c 128
 818.598632812 340 899.612304688 363.666992188 993 411 c 1
 992.333007812 429.666992188 992 449.333007812 992 470 c 2
 992 600 l 1
 990 775 l 1
 990 815 l 1
 991 838 l 1
 895 876.666992188 812.833007812 896 744.5 896 c 0
 611.5 896 545 800 545 608 c 0
EndSplineSet
EndChar

StartChar: A
Encoding: 35 65 34
Width: 1490
Flags: HW
LayerCount: 2
Fore
SplineSet
1290.5 0 m 128
 1286.47167969 0 1282.390625 -0.001953125 1278.26464844 -0.001953125 c 0
 1162.96386719 -0.001953125 1013 1.712890625 1013 101 c 0
 1013 128.029296875 1100.83691406 122.466796875 1113.5 140 c 128
 1117.83300781 146 1120 152.5 1120 159.5 c 128
 1120 166.5 1113.66699219 182.666992188 1101 208 c 1
 1102 208 l 1
 992 470 l 1
 403 470 l 1
 331.666992188 283.436523438 296 181.461914062 296 164.077148438 c 128
 296 146.692382812 300.333007812 136.666992188 309 134 c 1
 308 135 l 1
 327.220703125 123.25390625 379.80078125 113.977539062 400 105 c 128
 406 102.333007812 409 97 409 89 c 0
 409 29.6669921875 334 0 184 0 c 0
 59.3330078125 0 -3 29.6669921875 -3 89 c 0
 -3 112.830078125 40.8681640625 118.64453125 59.5 124.5 c 128
 108.126953125 139.782226562 138.974609375 170.864257812 160 221 c 1
 565 1280 l 1
 558.333007812 1299.33300781 555 1315 555 1327 c 0
 555 1378.33300781 607.333007812 1404 712 1404 c 0
 804.326171875 1404 848.630859375 1371.83984375 875 1308 c 1
 1297 228 l 1
 1320.97558594 170.459960938 1357.64160156 137.793945312 1407 130 c 0
 1447.49511719 123.60546875 1472 123.10546875 1472 89 c 128
 1472 56.6767578125 1441.90039062 35.9541015625 1416 24 c 0
 1381.33300781 8 1339.5 0 1290.5 0 c 128
442 566 m 1
 952 566 l 1
 692 1280 l 1
 442 566 l 1
EndSplineSet
EndChar

StartChar: B
Encoding: 36 66 35
Width: 1470
Flags: HW
LayerCount: 2
Fore
SplineSet
463 290 m 2
 463 160.604492188 497.647460938 113 621 113 c 2
 787 113 l 2
 962.333007812 113 1083.5 143.5 1150.5 204.5 c 0
 1199.5 249.112304688 1224 310.612304688 1224 389 c 0
 1224 475.674804688 1191.83300781 542.674804688 1127.5 590 c 0
 1055.26953125 643.135742188 944.436523438 671.635742188 795 675.5 c 0
 756.333007812 676.5 721 677 689 677 c 2
 463 677 l 1
 463 290 l 2
739 1404 m 2
 1047.83789062 1404 1239.83789062 1328.16699219 1315 1176.5 c 0
 1333.66699219 1138.83300781 1343 1098.83300781 1343 1056.5 c 128
 1343 967.755859375 1310.71972656 917.13671875 1266 870.5 c 0
 1222.43652344 825.069335938 1161.76953125 785.90234375 1084 753 c 1
 1324.66699219 677.173828125 1445 552.506835938 1445 379 c 0
 1445 279.327148438 1406.66699219 198.16015625 1330 135.5 c 0
 1218.65917969 44.5 1041.32519531 -1 798 -1 c 2
 352 0 l 2
 257.333007812 0 196.666992188 3.3330078125 170 10 c 0
 119.333007812 22.6669921875 94 49.3330078125 94 90 c 0
 94 137.728515625 168.543945312 127.416015625 205 143.5 c 0
 231 154.970703125 244 178.803710938 244 215 c 2
 244 1190 l 2
 244 1237.75488281 219 1264.92089844 169 1271.5 c 0
 117.647460938 1278.25683594 94 1276.37695312 94 1321 c 128
 94 1362.41894531 126.955078125 1383.23925781 164 1392.5 c 0
 194.666992188 1400.16699219 257.333007812 1404 352 1404 c 2
 739 1404 l 2
634 1285 m 128
 520.677734375 1285 463 1256.66503906 463 1141 c 2
 463 793 l 1
 796 793 l 2
 945.103515625 793 1048.93652344 832.333007812 1107.5 911 c 0
 1129.83300781 941 1141 978 1141 1022 c 128
 1141 1264.08886719 874.159179688 1285 634 1285 c 128
EndSplineSet
EndChar

StartChar: C
Encoding: 37 67 36
Width: 1507
Flags: HW
LayerCount: 2
Fore
SplineSet
1454.5 372 m 128
 1488.88476562 372 1513 353.674804688 1513 318.875 c 128
 1513 308.791992188 1509.33300781 295.5 1502 279 c 1
 1503 279 l 1
 1448.79394531 183.493164062 1360.12695312 107.493164062 1237 51 c 0
 1122.21386719 -1.6669921875 1001.87988281 -28 876 -28 c 0
 483.326171875 -28 163.08203125 168.271484375 65 484.5 c 0
 45.6669921875 546.833007812 36 610.666992188 36 676 c 128
 36 905.155273438 127.3984375 1067.10742188 247 1185 c 128
 388.56640625 1324.54394531 610.278320312 1413 877 1413 c 0
 1094.9921875 1413 1330.65429688 1351.82226562 1414 1216 c 0
 1432 1186.66699219 1441 1158.33300781 1441 1131 c 128
 1441 1031.375 1369.33789062 987 1274 987 c 0
 1242 987 1216 990.333007812 1196 997 c 1
 1181.984375 1203.40527344 1082.06640625 1305 868.5 1305 c 128
 664.430664062 1305 512.987304688 1233.75878906 414.5 1128 c 0
 315.5 1021.69140625 266 890.69140625 266 735 c 0
 266 563.315429688 322.5 421.315429688 435.5 309 c 0
 554.889648438 190.333007812 713.389648438 131 911 131 c 0
 1075.25683594 131 1210.92285156 174.5 1318 261.5 c 0
 1369.55566406 303.388671875 1403.27734375 332.27734375 1419.16699219 348.166992188 c 128
 1435.05566406 364.055664062 1446.83300781 372 1454.5 372 c 128
EndSplineSet
EndChar

StartChar: D
Encoding: 38 68 37
Width: 1734
Flags: HW
LayerCount: 2
Fore
SplineSet
462 142 m 1
 564 130.666992188 674.166992188 125 792.5 125 c 128
 1020.34277344 125 1176.95898438 181.985351562 1291.5 289.5 c 0
 1402.5 393.690429688 1458 529.190429688 1458 696 c 0
 1458 893.110351562 1389.83300781 1039.61035156 1253.5 1135.5 c 0
 1114.640625 1233.16699219 898.473632812 1282 605 1282 c 0
 509.666992188 1282 462 1274.33300781 462 1259 c 2
 462 142 l 1
732 -1 m 1
 727 0 l 1
 351 1 l 2
 256.215820312 1 195.686523438 4.3330078125 169.412109375 11 c 0
 119.137695312 23.7568359375 94 50.4228515625 94 91 c 0
 94 138.728515625 168.543945312 128.416015625 205 144.5 c 0
 231 155.970703125 244 179.803710938 244 216 c 2
 244 1190 l 2
 244 1240.38574219 219 1267.55273438 169 1271.5 c 0
 120.43359375 1275.33398438 94 1277.93847656 94 1321 c 128
 94 1362.21386719 126.875976562 1383.20703125 163.5 1392.5 c 0
 193.715820312 1400.16699219 256.215820312 1404 351 1404 c 2
 660 1404 l 2
 971.036132812 1404 1218.20214844 1346.33300781 1401.5 1231 c 0
 1587.83300781 1113.75683594 1681 953.08984375 1681 749 c 0
 1681 513.197265625 1583.71582031 333.840820312 1452.5 214.5 c 0
 1294.53808594 70.8330078125 1086.03808594 -1 827 -1 c 2
 732 -1 l 1
EndSplineSet
EndChar

StartChar: E
Encoding: 39 69 38
Width: 1437
Flags: HW
LayerCount: 2
Fore
SplineSet
1305.23144531 356 m 128
 1357.84570312 356 1383 319.47265625 1383 264.5 c 128
 1383 192.15625 1341.43066406 122.528320312 1302 81.5 c 0
 1247.22070312 24.5 1184.22070312 -4 1113 -4 c 2
 352 0 l 2
 257.333007812 0 196.666992188 3.3330078125 170 10 c 0
 119.333007812 22.6669921875 94 49.3330078125 94 90 c 0
 94 137.728515625 168.543945312 127.416015625 205 143.5 c 0
 231 154.970703125 244 178.803710938 244 215 c 2
 244 1190 l 2
 244 1237.75488281 219 1264.92089844 169 1271.5 c 0
 117.647460938 1278.25683594 94 1276.37695312 94 1321 c 128
 94 1362.41894531 126.955078125 1383.23925781 164 1392.5 c 0
 194.666992188 1400.16699219 257.333007812 1404 352 1404 c 2
 1185 1404 l 2
 1290.484375 1404 1354 1308.26171875 1354 1198 c 0
 1354 1112.88769531 1329.97460938 1050 1251 1050 c 128
 1159.78222656 1050 1138 1113.45214844 1138 1211 c 2
 1138 1262 l 1
 1139 1286 l 1
 463 1286 l 1
 463 787 l 1
 892 787 l 1
 902.970703125 797.970703125 950.885742188 890.208984375 960 903.5 c 128
 968 915.166992188 975.666992188 921 983 921 c 0
 1058.33300781 921 1096 857 1096 729 c 0
 1096 644.333007812 1078.66699219 584.666992188 1044 550 c 0
 1029.33300781 535.333007812 1014.16699219 528 998.5 528 c 128
 966.052734375 528 957.799804688 544.284179688 945.5 565 c 0
 938.216796875 577.266601562 927.049804688 600.600585938 912 635 c 1
 911 636 l 2
 911 636.666992188 904.333007812 648.666992188 891 672 c 1
 463 672 l 1
 463 131 l 1
 1102 131 l 1
 1144.19042969 173.190429688 1188.45117188 267.337890625 1226.5 309.5 c 0
 1254.47558594 340.5 1280.71972656 356 1305.23144531 356 c 128
910 635 m 2
 910 635.666992188 910.333007812 636 911 636 c 2
 910 635 l 2
EndSplineSet
EndChar

StartChar: F
Encoding: 40 70 39
Width: 1321
Flags: HW
LayerCount: 2
Fore
SplineSet
911 636 m 1
 910 635 l 1
 911 636 l 1
1251 1050 m 128
 1159.78222656 1050 1138 1113.45214844 1138 1211 c 2
 1138 1262 l 1
 1139 1286 l 1
 464 1286 l 1
 464 787 l 1
 892 787 l 1
 906.041992188 799.872070312 950.32421875 887.501953125 961 904 c 128
 968.333007812 915.333007812 975.666992188 921 983 921 c 0
 1058.33300781 921 1096 857 1096 729 c 0
 1096 644.333007812 1078.66699219 584.666992188 1044 550 c 0
 1029.33300781 535.333007812 1014.16699219 528 998.5 528 c 128
 966.052734375 528 957.799804688 544.284179688 945.5 565 c 0
 938.216796875 577.266601562 927.049804688 600.600585938 912 635 c 1
 911 636 l 1
 911 638.461914062 904.333007812 650.461914062 891 672 c 1
 464 672 l 1
 464 215 l 2
 464 153.23046875 499.383789062 135.215820312 557.764648438 129.036132812 c 128
 587.670898438 125.870117188 614 121.553710938 614 85.5 c 128
 614 41.5244140625 581.244140625 21.0458984375 542.5 11.5 c 0
 505.393554688 2.357421875 453.91015625 -2.2138671875 388.049804688 -2.2138671875 c 0
 371.4140625 -2.2138671875 353.861328125 -1.921875 335.390625 -1.3388671875 c 128
 243.796875 1.5537109375 186.666992188 5.8330078125 164 11.5 c 0
 117.333007812 23.1669921875 94 49.3330078125 94 90 c 0
 94 137.728515625 168.543945312 127.416015625 205 143.5 c 0
 231 154.970703125 244 178.803710938 244 215 c 2
 244 1190 l 2
 244 1237.75488281 219 1264.92089844 169 1271.5 c 0
 117.647460938 1278.25683594 94 1276.37695312 94 1321 c 128
 94 1362.0078125 126.797851562 1383.17480469 163 1392.5 c 0
 192.764648438 1400.16699219 255.098632812 1404 350 1404 c 2
 1185 1404 l 2
 1290.484375 1404 1354 1308.26171875 1354 1198 c 0
 1354 1112.88769531 1329.97460938 1050 1251 1050 c 128
EndSplineSet
EndChar

StartChar: G
Encoding: 41 71 40
Width: 1551
Flags: HW
LayerCount: 2
Fore
SplineSet
1411 1131 m 128
 1411 1031.375 1339.33789062 987 1244 987 c 0
 1211.71386719 987 1186.04785156 990.333007812 1167 997 c 1
 1153.13769531 1201.1484375 1051.66210938 1305 842 1305 c 128
 643.53515625 1305 501.63671875 1233.68652344 408.5 1128 c 0
 314.833007812 1021.71191406 268 890.711914062 268 735 c 0
 268 570.333007812 317.5 429.5 416.5 312.5 c 0
 525.653320312 183.5 670.153320312 119 850 119 c 0
 944.5 119 1070.47851562 148.953125 1129.5 174.5 c 0
 1186.7890625 199.296875 1216.12207031 230.296875 1217.5 267.5 c 0
 1218.5 294.5 1219 316.833007812 1219 334.5 c 2
 1219 453 l 2
 1219 481.928710938 1207.67285156 525.376953125 1205.5 550 c 128
 1200.97460938 601.290039062 1128.296875 610.265625 1085 623 c 0
 1059 630.647460938 1046 639.98046875 1046 651 c 0
 1046 709.431640625 1101 740.264648438 1211 743.5 c 0
 1245 744.5 1281.66699219 745 1321 745 c 128
 1338.05761719 745 1355.96875 745.212890625 1374.08300781 745.212890625 c 0
 1475.37304688 745.212890625 1583 738.5703125 1583 651 c 0
 1583 626.083007812 1534.87890625 618.822265625 1511 612 c 0
 1460.76757812 597.647460938 1431.10058594 576.314453125 1422 548 c 1
 1417 516.5 l 2
 1414.22265625 497.888671875 1412.83300781 475.458007812 1412.83300781 449.208007812 c 0
 1412.83300781 443.958007812 1412.88867188 438.555664062 1413 433 c 2
 1416 154 l 1
 1396 148 1369 135.166992188 1335 115.5 c 128
 1301 95.8330078125 1259.33300781 75.5 1210 54.5 c 0
 1082.36035156 0.1669921875 952.026367188 -27 819 -27 c 0
 488.8984375 -27 247.327148438 119.750976562 125.5 341 c 0
 67.8330078125 445.727539062 39 559.727539062 39 683 c 0
 39 880.342773438 106.666992188 1047.67675781 242 1185 c 0
 391.796875 1337 593.463867188 1413 847 1413 c 0
 1064.9921875 1413 1300.65429688 1351.82226562 1384 1216 c 0
 1402 1186.66699219 1411 1158.33300781 1411 1131 c 128
EndSplineSet
EndChar

StartChar: H
Encoding: 42 72 41
Width: 1784
Flags: HW
LayerCount: 2
Fore
SplineSet
1469.5 0 m 128
 1435.98828125 0 1399.6953125 -1.2890625 1364.32226562 -1.2890625 c 0
 1263.41699219 -1.2890625 1170 9.1982421875 1170 90 c 0
 1170 138.099609375 1244.18457031 126.993164062 1280.5 143.5 c 0
 1306.16699219 155.166992188 1319 179 1319 215 c 2
 1319 662 l 1
 462 662 l 1
 462 215 l 2
 462 152.192382812 498.684570312 135.283203125 557.75 129.036132812 c 128
 587.638671875 125.875 613 121.528320312 613 85.5 c 128
 613 41.5244140625 580.244140625 21.0458984375 541.5 11.5 c 0
 510.381835938 3.8330078125 446.881835938 0 351 0 c 256
 256.215820312 0 195.686523438 3.3330078125 169.412109375 10 c 0
 119.137695312 22.7568359375 94 49.4228515625 94 90 c 0
 94 137.728515625 168.543945312 127.416015625 205 143.5 c 0
 231 154.970703125 244 178.803710938 244 215 c 2
 244 1190 l 2
 244 1240.38574219 219 1267.55273438 169 1271.5 c 0
 120.43359375 1275.33398438 94 1277.93847656 94 1321 c 128
 94 1362.21386719 126.875976562 1383.20703125 163.5 1392.5 c 0
 193.715820312 1400.16699219 256.215820312 1404 351 1404 c 256
 446.881835938 1404 508.352539062 1400.66699219 535.412109375 1394 c 0
 587.137695312 1381.25585938 613 1354.58886719 613 1314 c 0
 613 1264.61230469 535.453125 1277.70019531 501 1262.5 c 0
 475 1251.02929688 462 1226.86230469 462 1190 c 2
 462 777 l 1
 1319 777 l 1
 1319 1190 l 2
 1319 1238.90625 1294.16699219 1265.90625 1244.5 1271 c 0
 1195.96582031 1275.97753906 1170 1277.64941406 1170 1321 c 128
 1170 1362.21386719 1202.87597656 1383.20703125 1239.5 1392.5 c 0
 1269.71582031 1400.16699219 1318.51953125 1404 1385.91210938 1404 c 128
 1421.31835938 1404 1460.89746094 1405.77636719 1499.44628906 1405.77636719 c 0
 1597.02246094 1405.77636719 1688 1394.39355469 1688 1314 c 0
 1688 1264.9375 1610.6015625 1278.8125 1577 1263 c 0
 1551 1250.76464844 1538 1226.43164062 1538 1190 c 2
 1538 215 l 2
 1538 152.698242188 1574.0859375 135.244140625 1632.75683594 129.036132812 c 128
 1662.640625 125.874023438 1688 121.525390625 1688 85.5 c 128
 1688 41.73046875 1655.3203125 21.080078125 1617 11.5 c 0
 1586.33300781 3.8330078125 1537.16699219 0 1469.5 0 c 128
EndSplineSet
EndChar

StartChar: I
Encoding: 43 73 42
Width: 708
Flags: HW
LayerCount: 2
Fore
SplineSet
244 1190 m 2
 244 1237.75488281 219 1264.92089844 169 1271.5 c 0
 117.647460938 1278.25683594 94 1276.37695312 94 1321 c 128
 94 1362.41894531 126.955078125 1383.23925781 164 1392.5 c 0
 194.666992188 1400.16699219 243.5 1404 310.5 1404 c 128
 345.63671875 1404 384.9765625 1405.74023438 423.364257812 1405.74023438 c 0
 521.27734375 1405.74023438 613 1394.41601562 613 1314 c 0
 613 1264.66015625 534.787109375 1278.89941406 501 1263 c 0
 475 1250.76464844 462 1226.43164062 462 1190 c 2
 462 215 l 2
 462 152.522460938 498.234375 135.123046875 557.256835938 129.036132812 c 128
 587.509765625 125.916015625 613 121.703125 613 85.5 c 128
 613 41.5244140625 580.244140625 21.0458984375 541.5 11.5 c 0
 504.30078125 2.3349609375 452.916992188 -2.248046875 387.348632812 -2.248046875 c 0
 370.736328125 -2.248046875 353.213867188 -1.953125 334.78125 -1.365234375 c 128
 243.59375 1.544921875 186.666992188 5.8330078125 164 11.5 c 0
 117.333007812 23.1669921875 94 49.3330078125 94 90 c 0
 94 137.728515625 168.543945312 127.416015625 205 143.5 c 0
 231 154.970703125 244 178.803710938 244 215 c 2
 244 1190 l 2
EndSplineSet
EndChar

StartChar: J
Encoding: 44 74 43
Width: 929
Flags: HW
LayerCount: 2
Fore
SplineSet
292 256 m 0
 292 209.842773438 246.177734375 161.912109375 195 144 c 1
 235.380859375 108.666992188 273.309570312 91 308.786132812 91 c 128
 461.717773438 91 519 183.559570312 519 340 c 2
 519 1190 l 2
 519 1238.83789062 493.833007812 1265.83789062 443.5 1271 c 0
 394.073242188 1276.06933594 368 1277.2890625 368 1321 c 128
 368 1362.41894531 400.955078125 1383.23925781 438 1392.5 c 0
 468.666992188 1400.16699219 517.666992188 1404 585 1404 c 128
 620.375 1404 659.91796875 1405.7734375 698.435546875 1405.7734375 c 0
 796.006835938 1405.7734375 887 1394.39550781 887 1314 c 0
 887 1264.61230469 809.453125 1277.70019531 775 1262.5 c 0
 749 1251.02929688 736 1226.86230469 736 1190 c 2
 736 439 l 2
 736 125.1953125 625.217773438 -22 330 -22 c 0
 165.596679688 -22 14 70.576171875 14 226 c 0
 14 318.198242188 70.98046875 381 162 381 c 0
 248.666992188 381 292 339.333007812 292 256 c 0
EndSplineSet
EndChar

StartChar: K
Encoding: 45 75 44
Width: 1565
Flags: HW
LayerCount: 2
Fore
SplineSet
394.5 0 m 128
 361.240234375 0 325.126953125 -1.25 289.83203125 -1.25 c 0
 188.0078125 -1.25 93 9.154296875 93 90 c 0
 93 138.047851562 168.341796875 127.327148438 205 143.5 c 0
 231 154.970703125 244 178.803710938 244 215 c 2
 244 1190 l 2
 244 1238.83789062 218.833007812 1265.83789062 168.5 1271 c 0
 119.073242188 1276.06933594 93 1277.2890625 93 1321 c 128
 93 1362.13476562 126.987304688 1383.23535156 163.5 1392.5 c 0
 193.715820312 1400.16699219 242.686523438 1404 310.412109375 1404 c 128
 345.998046875 1404 385.7109375 1405.78027344 424.356445312 1405.78027344 c 0
 522.095703125 1405.78027344 613 1394.390625 613 1314 c 0
 613 1264.61230469 535.453125 1277.70019531 501 1262.5 c 0
 475 1251.02929688 462 1226.52929688 462 1189 c 2
 462 681 l 1
 592.444335938 797.530273438 792.778320312 979.197265625 1063 1226 c 0
 1077 1238.66699219 1084 1249 1084 1257 c 128
 1084 1274.45996094 1057.18652344 1273.97167969 1040.5 1276.5 c 128
 1014.96191406 1280.36914062 997 1285.46386719 997 1317.5 c 128
 997 1403.16308594 1081.91308594 1404 1185.39453125 1404 c 128
 1251.79785156 1404 1301.16699219 1403.66699219 1333.5 1403 c 128
 1404.48046875 1401.53613281 1452 1398.17382812 1452 1331 c 128
 1452 1291.40332031 1411.25683594 1289.31445312 1370 1279 c 1
 1272 1250 l 1
 1111.79003906 1113.90722656 938.022460938 964.68359375 792 843 c 1
 1316 201 l 1
 1356.7734375 158.022460938 1400.11035156 141.669921875 1462 132 c 128
 1499.93261719 126.073242188 1535 125.310546875 1535 83.5 c 128
 1535 39.96484375 1497.69921875 20.248046875 1461 10.5 c 0
 1432.13769531 2.8330078125 1391.75488281 -1 1339.85253906 -1 c 128
 1259.22460938 -1 1221.08984375 0.306640625 1175 18.5 c 0
 1154.33300781 26.658203125 1144 33.8251953125 1144 40 c 1
 894.03515625 371.684570312 727.03515625 596.350585938 643 714 c 1
 462 565 l 1
 462 213 l 2
 462 162.538085938 487.166992188 135.372070312 537.5 131.5 c 0
 587.791015625 127.631835938 613 126.635742188 613 83 c 128
 613 41.6611328125 578.931640625 20.7333984375 542 11.5 c 0
 511.333007812 3.8330078125 462.166992188 0 394.5 0 c 128
EndSplineSet
EndChar

StartChar: L
Encoding: 46 76 45
Width: 1366
Flags: HW
LayerCount: 2
Fore
SplineSet
1345 269 m 128
 1345 127.532226562 1236.203125 -4 1109 -4 c 2
 368 0 l 2
 265.666992188 0 199.916992188 3.5 170.75 10.5 c 128
 127.452148438 20.8916015625 86 39.73828125 86 84 c 128
 86 120.178710938 125.744140625 123.315429688 156 132.5 c 0
 205.701171875 147.587890625 236.034179688 169.087890625 247 197 c 1
 255.666992188 236 260 274.333007812 260 312 c 2
 260 1093 l 2
 260 1180.27050781 244.166992188 1232.27050781 212.5 1249 c 0
 181.21484375 1265.52832031 141.649414062 1276.02832031 108 1287.5 c 128
 93.3330078125 1292.5 86 1303.33300781 86 1320 c 128
 86 1361.58789062 125.904296875 1382.73730469 164.5 1392 c 0
 197.833007812 1400 265.666992188 1404 368 1404 c 256
 471.666992188 1404 538.083007812 1400.5 567.25 1393.5 c 128
 609.78125 1383.29296875 653 1364.11132812 653 1321 c 128
 653 1286.58984375 616.956054688 1282.86914062 588.5 1274.5 c 128
 555.01171875 1264.65039062 526.149414062 1260.43652344 507 1236.5 c 0
 488.333007812 1213.16699219 479 1165.33300781 479 1093 c 2
 479 167 l 2
 479 125.350585938 531.82421875 122 572 122 c 128
 707.701171875 122 850.051757812 128.625976562 977.5 141 c 0
 1056.31054688 148.651367188 1102.47753906 156.985351562 1116 166 c 1
 1138.91308594 193.49609375 1155.91992188 244.208007812 1175 279 c 0
 1203.15039062 330.333007812 1236.48339844 356 1275 356 c 0
 1323.59960938 356 1345 320.684570312 1345 269 c 128
EndSplineSet
EndChar

StartChar: M
Encoding: 47 77 46
Width: 2031
Flags: HW
LayerCount: 2
Fore
SplineSet
1507 1217 m 1
 1547.06933594 1287.12207031 1590.37304688 1404 1688 1404 c 1
 1761 1405 l 1
 1883 1405 1944 1375 1944 1315 c 0
 1944 1281.27929688 1843.81152344 1274.00292969 1816.5 1267 c 0
 1786.83300781 1259.39355469 1772 1248.39355469 1772 1234 c 2
 1772 172 l 2
 1772 150.485351562 1800.66699219 135.818359375 1858 128 c 128
 1915.33300781 120.181640625 1944 107.514648438 1944 90 c 0
 1944 29.3330078125 1878 -1 1746 -1 c 1
 1667 1 l 257
 1584 -1 l 1
 1453.33300781 -1 1388 29.3330078125 1388 90 c 0
 1388 145.985351562 1555 112.794921875 1555 172 c 2
 1555 1064 l 1
 1417.83300781 822.321289062 1286.82519531 568.376953125 1146 338.5 c 0
 1099.40136719 262.435546875 1061.40136719 207.602539062 1032 174 c 1
 1032 175 l 1
 1013.33300781 156.333007812 994.666992188 147 976 147 c 128
 907.31640625 147 893.266601562 196.97265625 867 239 c 2
 430 957 l 1
 430 172 l 2
 430 150.35546875 458.833007812 135.688476562 516.5 128 c 128
 574.166992188 120.311523438 603 107.64453125 603 90 c 0
 603 30 541 0 417 0 c 1
 344 1 l 257
 268 -1 l 1
 146.666992188 -1 86 29.3330078125 86 90 c 0
 86 148.46875 254 111.991210938 254 172 c 2
 254 1234 l 2
 254 1251.81835938 226 1265.81835938 170 1276 c 128
 114 1286.18164062 86 1299.18164062 86 1315 c 0
 86 1375.66699219 155 1406 293 1406 c 1
 381 1404 l 2
 402.791992188 1404 454.834960938 1362.32910156 474 1324 c 1
 1001 375 l 1
 1175.12988281 657.9609375 1330.29296875 919.993164062 1507 1218 c 1
 1507 1217 l 1
EndSplineSet
EndChar

StartChar: N
Encoding: 48 78 47
Width: 1782
Flags: HW
LayerCount: 2
Fore
SplineSet
85 91 m 0
 85 148.486328125 258 128.540039062 258 193 c 2
 258 1234 l 2
 258 1251.74804688 229.166992188 1265.74804688 171.5 1276 c 128
 113.833007812 1286.25195312 85 1299.25195312 85 1315 c 0
 85 1402.31445312 190.180664062 1404.00292969 301.844726562 1404.00292969 c 0
 306.337890625 1404.00292969 310.840820312 1404 315.348632812 1404 c 128
 388.1640625 1404 433.713867188 1396 452 1380 c 1
 452 1381 l 1
 1392 362 l 1
 1392 493 l 1
 1391 500 l 1
 1391 1213 l 2
 1391 1227.95214844 1360 1244.28613281 1298 1262 c 0
 1245.33300781 1277.04785156 1219 1291.38085938 1219 1305 c 0
 1219 1389.07226562 1364.84960938 1435 1455.81835938 1435 c 128
 1581.48242188 1435 1744 1411.25390625 1744 1305 c 0
 1744 1291.93945312 1716.33300781 1276.60644531 1661 1259 c 128
 1605.66699219 1241.39355469 1578 1226.06054688 1578 1213 c 2
 1577 88 l 2
 1577 40.3330078125 1565.33300781 7.3330078125 1542 -11 c 0
 1532.66699219 -18.3330078125 1522.5 -22 1511.5 -22 c 128
 1484.94042969 -22 1466.22753906 -6.892578125 1448.5 6 c 0
 1427.72167969 21.111328125 1408.22167969 37.7783203125 1390 56 c 0
 1072.17675781 395.842773438 758.34765625 739.680664062 444 1083 c 1
 444 193 l 2
 444 173.606445312 472 156.272460938 528 141 c 128
 584 125.727539062 612 108.409179688 612 89.0458984375 c 128
 612 42.34375 568.330078125 15.5283203125 530.5 0.5 c 0
 482.672851562 -18.5 432.298828125 -28 379.37890625 -28 c 128
 285.640625 -28 228.940429688 -22.7060546875 168 2 c 0
 112.666992188 24.4326171875 85 54.0986328125 85 91 c 0
EndSplineSet
EndChar

StartChar: O
Encoding: 49 79 48
Width: 1765
Flags: HW
LayerCount: 2
Fore
SplineSet
1488 672 m 0
 1488 928.428710938 1360.8203125 1107.4765625 1196.5 1204 c 0
 1095.4921875 1263.33300781 978.659179688 1293 846 1293 c 0
 663.513671875 1293 517.346679688 1235.16699219 407.5 1119.5 c 0
 305.166992188 1011.74511719 254 876.578125 254 714 c 0
 254 550.838867188 310.333007812 410.838867188 423 294 c 0
 541.286132812 171.333007812 693.619140625 110 880 110 c 0
 1056.97070312 110 1203.80371094 166.166992188 1320.5 278.5 c 0
 1432.16699219 385.9921875 1488 517.159179688 1488 672 c 0
1601.5 354 m 128
 1467.35253906 134.252929688 1219.73339844 -25 869 -25 c 128
 618.727539062 -25 425.698242188 47.1240234375 282.5 158.5 c 128
 231.5 198.166992188 187.666992188 243.166992188 151 293.5 c 0
 73.6669921875 399.657226562 35 514.280273438 35 637.368164062 c 128
 35 896.797851562 133.302734375 1075.12207031 274 1202 c 0
 432.204101562 1344.66699219 632.87109375 1416 876 1416 c 0
 1250.95703125 1416 1576.23339844 1239.19140625 1678.5 947 c 0
 1699.5 887 1710 821.166992188 1710 749.5 c 128
 1710 591.608398438 1664.71191406 457.547851562 1601.5 354 c 128
EndSplineSet
EndChar

StartChar: P
Encoding: 50 80 49
Width: 1416
Flags: HW
LayerCount: 2
Fore
SplineSet
479 594 m 1
 479 172 l 2
 479 151.135742188 506.666992188 136.302734375 562 127.5 c 128
 617.333007812 118.697265625 645 106.197265625 645 90 c 0
 645 49.0322265625 619.833007812 23.0322265625 569.5 12 c 0
 536.041992188 4.6669921875 468.208007812 1 366 1 c 256
 263.791992188 1 198.239257812 4.1669921875 169.34375 10.5 c 128
 127.458007812 19.6806640625 86 38.146484375 86 79.5 c 128
 86 132.116210938 168.6875 124.969726562 209.5 136 c 0
 238.5 143.837890625 253 155.837890625 253 172 c 2
 253 1234 l 2
 253 1290.60546875 86 1265.8125 86 1315 c 0
 86 1367.44238281 148.166992188 1396.27636719 272.5 1401.5 c 0
 312.166992188 1403.16699219 357 1404 407 1404 c 2
 581 1404 l 2
 803.041992188 1404 973.875976562 1387.16699219 1093.5 1353.5 c 0
 1212.09179688 1320.12402344 1295.75878906 1262.29003906 1344.5 1180 c 0
 1370.16699219 1136.66699219 1383 1089.83300781 1383 1039.5 c 128
 1383 802.216796875 1268.59472656 710.529296875 1081.5 653.5 c 0
 951.365234375 613.833007812 771.532226562 594 542 594 c 2
 479 594 l 1
690.891601562 1285 m 128
 687.122070312 1285 l 0
 535.860351562 1285 488.868164062 1284.42089844 479 1143 c 1
 479 713 l 1
 501 711 524.666992188 710 550 710 c 2
 599 710 l 2
 869.641601562 710 1041.80859375 757.5 1115.5 852.5 c 0
 1143.16699219 888.166992188 1157 930.333007812 1157 979 c 128
 1157 1163.4453125 1037.86425781 1233.48730469 885.5 1264.5 c 0
 818.354492188 1278.16699219 753.485351562 1285 690.891601562 1285 c 128
EndSplineSet
EndChar

StartChar: Q
Encoding: 51 81 50
Width: 1765
Flags: HW
LayerCount: 2
Fore
SplineSet
1624 -222 m 0
 1624 -348.3203125 1537.58496094 -418 1409 -418 c 0
 1316.55371094 -418 1199.21191406 -363.06640625 1139 -295 c 1
 894 -1 l 1
 894 8 l 1
 895.471679688 63.9140625 959.700195312 85.5615234375 1017 89 c 1
 1048.55566406 62.703125 1080.61132812 23.509765625 1112.5 -10 c 128
 1182.13183594 -83.171875 1298.83691406 -188 1424.1328125 -188 c 128
 1478.37792969 -188 1539.66699219 -174.666992188 1608 -148 c 1
 1618.66699219 -172.533203125 1624 -197.200195312 1624 -222 c 0
1488 681 m 0
 1488 937.428710938 1360.8203125 1116.4765625 1196.5 1213 c 0
 1095.4921875 1272.33300781 978.659179688 1302 846 1302 c 0
 663.513671875 1302 517.346679688 1244.16699219 407.5 1128.5 c 0
 305.166992188 1020.74511719 254 885.578125 254 723 c 0
 254 559.838867188 310.333007812 419.838867188 423 303 c 0
 541.286132812 180.333007812 693.619140625 119 880 119 c 0
 1056.97070312 119 1203.80371094 175.166992188 1320.5 287.5 c 0
 1432.16699219 394.9921875 1488 526.159179688 1488 681 c 0
1601.5 363 m 128
 1467.35253906 143.252929688 1219.73339844 -16 869 -16 c 128
 618.727539062 -16 425.698242188 56.1240234375 282.5 167.5 c 128
 231.5 207.166992188 187.666992188 252.166992188 151 302.5 c 0
 73.6669921875 408.657226562 35 523.280273438 35 646.368164062 c 128
 35 905.797851562 133.302734375 1084.12207031 274 1211 c 0
 432.204101562 1353.66699219 632.87109375 1425 876 1425 c 0
 1250.95703125 1425 1576.23339844 1248.19140625 1678.5 956 c 0
 1699.5 896 1710 830.166992188 1710 758.5 c 128
 1710 600.608398438 1664.71191406 466.547851562 1601.5 363 c 128
EndSplineSet
EndChar

StartChar: R
Encoding: 52 82 51
Width: 1573
Flags: HW
LayerCount: 2
Fore
SplineSet
1556 63 m 0
 1556 10.3330078125 1503.33300781 -16 1398 -16 c 0
 1280.75585938 -16 1194.75585938 2.6669921875 1140 40 c 1
 1141 40 l 1
 1053.72070312 111.614257812 952.720703125 253.947265625 838 467 c 1
 821 503 l 2
 805.130859375 536.325195312 773.661132812 583.873046875 755 619 c 1
 478 619 l 1
 478 172 l 2
 478 151.2421875 506 136.409179688 562 127.5 c 128
 618 118.590820312 646 106.090820312 646 90 c 0
 646 49.0322265625 620.833007812 23.0322265625 570.5 12 c 0
 537.041992188 4.6669921875 469.208007812 1 367 1 c 256
 264.125 1 198.239257812 4.1669921875 169.34375 10.5 c 128
 127.458007812 19.6806640625 86 38.146484375 86 79.5 c 128
 86 132.395507812 169.458007812 124.907226562 210.5 136 c 0
 239.5 143.837890625 254 155.837890625 254 172 c 2
 254 1234 l 2
 254 1290.8359375 86 1265.56445312 86 1315 c 0
 86 1367.47167969 148.333007812 1396.30566406 273 1401.5 c 0
 313 1403.16699219 358 1404 408 1404 c 2
 581 1404 l 2
 799.907226562 1404 967.741210938 1387.16699219 1084.5 1353.5 c 0
 1200.37988281 1320.08691406 1282.04589844 1262.25390625 1329.5 1180 c 0
 1354.5 1136.66699219 1367 1086 1367 1028 c 128
 1367 903.370117188 1310.04296875 822.702148438 1238.5 764 c 0
 1162.03417969 701.258789062 1064.20019531 658.258789062 945 635 c 1
 997 563 l 1
 1085.00097656 433.586914062 1171.16796875 323.086914062 1255.5 231.5 c 0
 1286.5 197.833007812 1315.33300781 170.333007812 1342 149 c 1
 1390.78808594 118.333007812 1456.45410156 103 1539 103 c 1
 1550.33300781 91.6669921875 1556 78.3330078125 1556 63 c 0
1142 985.5 m 128
 1142 1238.15722656 905.106445312 1285 653 1285 c 128
 528.626953125 1285 486.599609375 1266.25097656 478 1143 c 1
 478 740 l 1
 748 740 l 2
 925.249023438 740 1045.24902344 783.833007812 1108 871.5 c 0
 1130.66699219 903.166992188 1142 941.166992188 1142 985.5 c 128
EndSplineSet
EndChar

StartChar: S
Encoding: 53 83 52
Width: 1286
Flags: HW
LayerCount: 2
Fore
SplineSet
178 422 m 0
 273.78515625 422 321 345.668945312 321 245 c 0
 321 224.333007812 319 202 315 178 c 1
 402.1015625 135.951171875 528.037109375 100 659.5 100 c 128
 846.421875 100 1044 149.256835938 1044 330 c 0
 1044 422.008789062 952.5 502.841796875 769.5 572.5 c 0
 591.731445312 640.166992188 406.778320312 688.086914062 260 784.5 c 128
 171.791015625 842.44140625 90 940.840820312 90 1063 c 0
 90 1145.83886719 122.166992188 1216.17285156 186.5 1274 c 0
 281.938476562 1359.78710938 459.920898438 1419 658.5 1419 c 128
 829.138671875 1419 991.649414062 1384.33007812 1099 1315 c 0
 1171 1268.5 1207 1210.16699219 1207 1140 c 0
 1207 1057.03320312 1144.96972656 996 1050.5 996 c 0
 1011.5 996 982 998 962 1002 c 1
 953.073242188 1124.41503906 921.907226562 1205.24902344 868.5 1244.5 c 0
 822.69140625 1278.16699219 740.19140625 1295 621 1295 c 0
 491.854492188 1295 390.719726562 1254.56054688 336 1193 c 128
 314.666992188 1169 304 1141.16699219 304 1109.5 c 128
 304 1077.83300781 315.666992188 1049 339 1023 c 128
 446.315429688 903.419921875 674.813476562 841.111328125 830.5 780.5 c 128
 957.951171875 730.881835938 1082.828125 667.96875 1166.5 575 c 0
 1224.83300781 510.184570312 1254 437.8515625 1254 358 c 0
 1254 100.279296875 954.9453125 -24 675 -24 c 0
 403.637695312 -24 45 58.8935546875 45 292 c 0
 45 368.420898438 93.4501953125 422 178 422 c 0
EndSplineSet
EndChar

StartChar: T
Encoding: 54 84 53
Width: 1221
Flags: HW
LayerCount: 2
Fore
SplineSet
330 90 m 0
 330 149.829101562 498 109.599609375 498 172 c 2
 498 1279 l 1
 205 1278 l 2
 167.965820312 1278 137.965820312 1241 115 1167 c 128
 92.0341796875 1093 63.0341796875 1056 28 1056 c 0
 -24 1056 -50 1086.66699219 -50 1148 c 0
 -50 1244.41308594 -28 1318.58007812 16 1370.5 c 0
 44.36328125 1403.96972656 93.150390625 1405.44824219 151.21484375 1405.44824219 c 0
 156.844726562 1405.44824219 162.5625 1405.43457031 168.356445312 1405.43457031 c 0
 174.000976562 1405.43457031 179.71875 1405.44824219 185.5 1405.5 c 128
 259.341796875 1406.16503906 335.493164062 1407 410 1407 c 2
 732.75 1407 l 130
 869.989257812 1407 1049.62988281 1406.79785156 1126.70605469 1402.515625 c 128
 1189.70214844 1399.01660156 1218.42480469 1350.86132812 1236.5 1301 c 0
 1254.16699219 1252.26464844 1263 1199.24707031 1263 1141.94824219 c 128
 1263 1084.64941406 1237 1056 1185 1056 c 0
 1150.90820312 1056 1121.74121094 1093 1097.5 1167 c 0
 1082.82910156 1211.78613281 1068.41113281 1241.48242188 1054.24609375 1256.08984375 c 128
 1040.08203125 1270.69628906 1024.66699219 1278 1008 1278 c 2
 715 1279 l 1
 715 172 l 2
 715 150.266601562 743.5 135.600585938 800.5 128 c 128
 857.5 120.399414062 886 107.733398438 886 90 c 0
 886 2.521484375 776.69140625 0.998046875 664.4140625 0.998046875 c 0
 660.362304688 0.998046875 656.305664062 1 652.25 1 c 128
 579.416992188 1 525.833007812 1.5 491.5 2.5 c 128
 409.512695312 4.8876953125 330 18.26953125 330 90 c 0
EndSplineSet
EndChar

StartChar: U
Encoding: 55 85 54
Width: 1773
Flags: HW
LayerCount: 2
Fore
SplineSet
1208 1315 m 0
 1208 1403.27734375 1316.97363281 1404 1428.015625 1404 c 0
 1433.5625 1404 l 128
 1480.36328125 1404 1516.59667969 1405.09277344 1548.44921875 1405.09277344 c 0
 1592.55566406 1405.09277344 1628.26367188 1402.99707031 1672 1393 c 0
 1720.66699219 1381.87597656 1745 1355.87597656 1745 1315 c 0
 1745 1263.58691406 1577 1283.12402344 1577 1234 c 2
 1577 441 l 2
 1577 344.71875 1540.33300781 259.551757812 1467 185.5 c 0
 1344.98046875 62.2841796875 1139.21191406 -21 886.5 -21 c 128
 631.900390625 -21 406.95703125 52.9306640625 275 180 c 0
 197 255.111328125 158 344.444335938 158 448 c 2
 158 1234 l 2
 158 1288.55175781 -15 1268.58984375 -15 1315 c 0
 -15 1402.29785156 94.666015625 1404.00292969 206.677734375 1404.00292969 c 0
 211.231445312 1404.00292969 215.7890625 1404 220.34375 1404 c 128
 293.448242188 1404 347.333007812 1403.5 382 1402.5 c 128
 464.443359375 1400.12207031 545 1386.47265625 545 1315 c 0
 545 1263.58691406 377 1283.12402344 377 1234 c 2
 377 449 l 2
 377 312.052734375 467.333007812 215.052734375 648 158 c 0
 721.888671875 134.666992188 795.861328125 123 869.916992188 123 c 128
 1127.99121094 123 1375 229.798828125 1375 462 c 2
 1375 1234 l 2
 1375 1288.33203125 1208 1268.71875 1208 1315 c 0
EndSplineSet
EndChar

StartChar: V
Encoding: 56 86 55
Width: 1642
Flags: HW
LayerCount: 2
Fore
SplineSet
501 1314 m 1
 498.407226562 1294.55371094 469.51171875 1282 448 1282 c 1
 414 1273 l 1
 396.859375 1264.4296875 366 1262.54199219 366 1242 c 1
 850 163 l 1
 873.158203125 223.001953125 1064.73046875 674.926757812 1089 733 c 2
 1169 923 l 2
 1191 975.666992188 1218.20605469 1039.4921875 1250.61914062 1114.47753906 c 128
 1284.03808594 1191.79101562 1301.92382812 1230.41796875 1301.92382812 1244.46972656 c 0
 1301.92382812 1289.87011719 1138 1266.73339844 1138 1314 c 0
 1138 1369.58300781 1192.66699219 1399.08300781 1302 1402.5 c 0
 1334 1403.5 1367.66699219 1404 1403 1404 c 2
 1447 1404 l 2
 1531.44433594 1404 1585.72265625 1401.66699219 1609.83300781 1397 c 0
 1657.27734375 1387.81738281 1681 1369.81738281 1681 1343 c 0
 1681 1310.44433594 1652.66699219 1289.44433594 1596 1280 c 0
 1530.95410156 1269.15917969 1488.62109375 1251.82519531 1469 1228 c 1
 986 133 l 1
 962.666992188 85 935.833007812 47.8330078125 905.5 21.5 c 128
 875.166992188 -4.8330078125 844 -18 812 -18 c 0
 755.142578125 -18 695.809570312 41 634 159 c 1
 152 1228 l 1
 135.06640625 1247.53808594 90.7333984375 1264.20507812 19 1278 c 0
 -45 1290.30761719 -77 1311.97460938 -77 1343 c 0
 -77 1402.44335938 64.521484375 1404.00488281 169.845703125 1404.00488281 c 0
 175.684570312 1404.00488281 181.413085938 1404 187 1404 c 2
 215 1404 l 2
 304.543945312 1404 365.762695312 1399.83300781 398.658203125 1391.5 c 128
 451.452148438 1378.125 492.823242188 1363.05859375 501 1314 c 1
EndSplineSet
EndChar

StartChar: W
Encoding: 57 87 56
Width: 2537
Flags: HW
LayerCount: 2
Fore
SplineSet
1594 1343 m 0
 1594 1304.4140625 1554.04003906 1284 1515 1284 c 1
 1443 1266 1399 1249 1383 1233 c 1
 1365 1189 l 1
 1786 162 l 1
 1923.140625 519.859375 2060.4609375 877.5390625 2198 1235 c 1
 2198 1246 l 130
 2198 1263.43847656 2160.28222656 1268.75976562 2143 1272 c 2
 2095 1283 l 1
 2073 1283 2057.66699219 1287.33300781 2049 1296 c 128
 2040.33300781 1304.66699219 2036 1310.66699219 2036 1314 c 0
 2036 1369.66699219 2089.33300781 1399.16699219 2196 1402.5 c 0
 2228 1403.5 2262.33300781 1404 2299 1404 c 2
 2339 1404 l 2
 2426 1404 2481.75 1401.66699219 2506.25 1397 c 0
 2553.41699219 1388.015625 2577 1370.015625 2577 1343 c 0
 2577 1304.83886719 2539.37011719 1284 2501 1284 c 1
 2424.88183594 1267.08496094 2379.21582031 1249.75195312 2364 1232 c 1
 1922 132 l 1
 1898 82 1871.16699219 44.5 1841.5 19.5 c 128
 1811.83300781 -5.5 1785.83300781 -18 1763.5 -18 c 128
 1713.51269531 -18 1683.38476562 0.615234375 1656.5 27.5 c 0
 1630.26171875 53.73828125 1601.42871094 97.5712890625 1570 159 c 1
 1256 918 l 1
 940 132 l 1
 908.716796875 59.658203125 868.383789062 12.8251953125 819 -8.5 c 0
 804.333007812 -14.8330078125 788.333007812 -18 771 -18 c 128
 728.692382812 -18 698.057617188 1.89453125 674.5 26 c 0
 651.184570312 49.8583984375 623.684570312 94.19140625 592 159 c 1
 145 1229 l 1
 112.365234375 1269.79199219 20.5009765625 1273.84082031 -30.5 1292.5 c 0
 -61.5 1303.84082031 -77 1320.67480469 -77 1343 c 0
 -77 1402.62402344 63.1259765625 1404.00292969 167.135742188 1404.00292969 c 0
 172.182617188 1404.00292969 177.143554688 1404 182 1404 c 2
 214 1404 l 2
 303.543945312 1404 364.762695312 1399.83300781 397.658203125 1391.5 c 128
 450.452148438 1378.125 491.823242188 1363.05859375 500 1314 c 1
 497.807617188 1300.84667969 476.807617188 1289.84667969 437 1281 c 1
 415.798828125 1273.42773438 365 1266.02929688 365 1242 c 1
 807 162 l 1
 1174 1118 l 1
 1129 1227 l 1
 1117.94140625 1242.20605469 1098.67675781 1253.34082031 1071.20605469 1260.40429688 c 128
 1043.73535156 1267.46777344 1024 1273 1012 1277 c 2
 984 1284 l 1
 925.4609375 1294.18066406 908 1301.65039062 908 1347.5 c 128
 908 1379.39941406 944.921875 1391.14941406 978 1396.5 c 0
 1008.90917969 1401.5 1071.90917969 1404 1167 1404 c 2
 1198 1404 l 1
 1248 1403 l 1
 1315 1404 l 1
 1359 1404 l 2
 1444.77832031 1404 1499.72265625 1401.66699219 1523.83300781 1397 c 0
 1570.61132812 1387.94628906 1594 1369.94628906 1594 1343 c 0
EndSplineSet
EndChar

StartChar: X
Encoding: 58 88 57
Width: 1888
Flags: HW
LayerCount: 2
Fore
SplineSet
1315 1236 m 256
 1315 1274.29785156 1210.00292969 1284.61425781 1183 1295 c 1
 1187.75976562 1344.98046875 1207.75976562 1376.31347656 1243 1389 c 0
 1263.37011719 1396.33300781 1306.70410156 1400 1373 1400 c 2
 1722 1400 l 2
 1786.66699219 1400 1819 1389.66699219 1819 1369 c 0
 1819 1342.52441406 1807.66699219 1315.52441406 1785 1288 c 1
 1636.30761719 1270.50683594 1499.640625 1206.67285156 1375 1096.5 c 0
 1310.13183594 1039.16113281 1249.74902344 978.743164062 1193.84960938 915.24609375 c 128
 1137.95019531 851.749023438 1092 801 1056 763 c 1
 1127.80761719 661.272460938 1227.80761719 542.939453125 1356 408 c 1
 1377 384 l 1
 1377 385 l 1
 1428 330 l 1
 1493.47949219 261.327148438 1546.18261719 214.325195312 1586.109375 188.995117188 c 0
 1661.66894531 141.059570312 1737.6328125 114.061523438 1814 108 c 1
 1840.61914062 85.3740234375 1862.95214844 56.70703125 1881 22 c 1
 1851.83300781 5.3330078125 1719.16699219 -3 1483 -3 c 1
 1263 -1 l 1
 1246 -1 l 2
 1190.91113281 -1 1160.24414062 31 1154 95 c 1
 1200 108 l 1
 1249.16699219 120.291992188 1278.95800781 130.864257812 1289.375 139.71875 c 128
 1299.79199219 148.573242188 1305 157.166992188 1305 165.5 c 128
 1305 173.833007812 1297.16699219 190.166992188 1281.5 214.5 c 128
 1220.33105469 309.5078125 1129.62109375 412.518554688 1054.5 498.5 c 0
 996.887695312 564.44140625 956.387695312 609.94140625 933 635 c 1
 917 620 l 1
 663.666992188 354.602539062 537 203.936523438 537 168 c 0
 537 145.385742188 574.833007812 128.885742188 650.5 118.5 c 0
 667.5 116.166992188 680 113.666992188 688 111 c 1
 678 46 l 1
 643.5 15.3330078125 576.5 0 477 0 c 0
 303.75 0 303.75 0 204.875 0 c 128
 138.958007812 0 97.6669921875 1 81 3 c 0
 39.8466796875 7.9384765625 17.5126953125 18.6044921875 14 35 c 1
 35.6357421875 78.2724609375 51.9697265625 106.606445312 63 120 c 1
 182.265625 129.03515625 303.598632812 184.03515625 427 285 c 0
 495.392578125 340.958007812 555.157226562 396.61328125 606.293945312 451.967773438 c 128
 657.431640625 507.322265625 698.333007812 551.666992188 729 585 c 2
 779 640 l 2
 805.666992188 669.333007812 832.333007812 697.333007812 859 724 c 1
 789 807 l 2
 676.015625 939.711914062 585.102539062 1034.88964844 516.26171875 1092.53417969 c 0
 376.973632812 1209.16699219 249.885742188 1277.65527344 135 1298 c 1
 128 1306 l 1
 104 1322 92 1345.66699219 92 1377 c 0
 92 1393 115.333007812 1401 162 1401 c 257
 199 1400 l 1
 311 1400 l 1
 466.5 1401 l 1
 604 1402 l 1
 701 1402 l 2
 778.333007812 1402 817 1378 817 1330 c 0
 817 1302.078125 767.466796875 1293.37792969 741.5 1287 c 128
 716.046875 1280.74804688 666 1270.76464844 666 1244 c 128
 666 1232.66699219 672.5 1216.66699219 685.5 1196 c 128
 735.44921875 1116.59375 810.58984375 1032.70410156 873.5 962.5 c 0
 925.25 904.75 959.75 867.25 977 850 c 1
 1019 892 l 2
 1216.33300781 1089.33300781 1315 1204 1315 1236 c 256
64 121 m 1
 61 120 l 1
 65 125 l 1
 64 121 l 1
EndSplineSet
EndChar

StartChar: Y
Encoding: 59 89 58
Width: 1467
Flags: HW
LayerCount: 2
Fore
SplineSet
799 -1 m 1
 728 1 l 1
 660 1 l 1
 634 0 l 1
 502 0 436 30 436 90 c 0
 436 146.638671875 608 112.158203125 608 172 c 2
 608 558 l 1
 472 740 l 2
 356.3671875 895.505859375 233.013671875 1066.33398438 113 1218 c 0
 97.4755859375 1237.40527344 61.3095703125 1250.57226562 4.5 1257.5 c 0
 -44.5 1263.47558594 -69 1281.64257812 -69 1312 c 0
 -69 1373.33300781 13.6669921875 1404 179 1404 c 2
 246 1404 l 2
 419.333007812 1404 506 1365.33300781 506 1288 c 0
 506 1265.95507812 442.2109375 1260.02832031 397 1254 c 2
 359 1249 l 1
 358 1240 l 1
 391.061523438 1227.6015625 601.083984375 925.203125 621 898 c 2
 756 713 l 1
 945 958 l 2
 984.302734375 1009.71484375 1053.93847656 1096.45117188 1088.5 1144.5 c 0
 1102.93652344 1164.5703125 1116.10351562 1181.40332031 1128 1195 c 1
 1128 1194 l 1
 1146.20410156 1215.23828125 1159.87011719 1234.57128906 1169 1252 c 1
 1119.71777344 1252 1082.89746094 1256.16699219 1058.53808594 1264.5 c 128
 1034.1796875 1272.83300781 1022 1280.66699219 1022 1288 c 0
 1022 1343.94042969 1073 1380.10742188 1175 1396.5 c 0
 1206.11132812 1401.5 1232.38867188 1404 1253.83300781 1404 c 128
 1332.80761719 1404 1401.671875 1397.82324219 1458 1373.5 c 0
 1490.66699219 1359.39355469 1507 1341.22753906 1507 1319 c 0
 1507 1252.56542969 1365.96972656 1242.52441406 1335 1220 c 1
 825 558 l 1
 825 172 l 2
 825 150.969726562 853 136.635742188 909 129 c 128
 965 121.364257812 993 108.364257812 993 90 c 0
 993 29.3330078125 928.333007812 -1 799 -1 c 1
EndSplineSet
EndChar

StartChar: Z
Encoding: 60 90 59
Width: 1475
Flags: HW
LayerCount: 2
Fore
SplineSet
157 -2 m 2
 114.672851562 -2 81 8.16015625 81 49.5 c 128
 81 69.1669921875 93.1669921875 98 117.5 136 c 128
 182.529296875 237.552734375 269.102539062 341.662109375 355 445.5 c 128
 556.065429688 688.560546875 781.397460938 938.775390625 989.5 1170 c 128
 1028.5 1213.33300781 1057.66699219 1246.33300781 1077 1269 c 1
 1009 1280.33300781 924 1286 822 1286 c 1
 796 1285 l 1
 367 1283 l 1
 295 1239 l 1
 285.3359375 1161.68164062 243.6640625 1074.03125 205 1031.5 c 128
 188.333007812 1013.16699219 168.5 1004 145.5 1004 c 128
 98.8876953125 1004 74 1049.43261719 74 1096 c 0
 74 1278.14355469 124.493164062 1376.31054688 267 1395 c 128
 307.666992188 1400.33300781 353.666992188 1403 405 1403 c 2
 500 1403 l 1
 535 1402 l 1
 873 1404 l 2
 941.479492188 1404 1020.36328125 1405.90527344 1097.54980469 1405.90527344 c 0
 1192.89453125 1405.90527344 1285.64746094 1402.99804688 1353 1390 c 1
 1352 1391 l 1
 1368 1381.15332031 1376 1367.69238281 1376 1350.61523438 c 128
 1376 1333.53808594 1367.83300781 1312.16699219 1351.5 1286.5 c 128
 1271.12011719 1160.18847656 1161.5390625 1031.34179688 1061 911 c 128
 889.959960938 706.270507812 706.120117188 495.66015625 529 300.5 c 0
 459.118164062 223.5 407.784179688 170.333007812 375 141 c 1
 413.094726562 127.666992188 480.76171875 121 578 121 c 2
 738 121 l 2
 911.333007812 121 1050 124 1154 130 c 1
 1187.54394531 163.543945312 1215.26269531 199.262695312 1237.15820312 237.158203125 c 128
 1259.05273438 275.052734375 1275 302.5 1285 319.5 c 0
 1310.68652344 363.166992188 1328.35253906 385 1338 385 c 0
 1385.00976562 385 1417 346.883789062 1417 303 c 128
 1417 229.560546875 1391.07226562 166.838867188 1364.5 114.5 c 128
 1339.08984375 64.4501953125 1288.54492188 0 1234 0 c 2
 157 -2 l 2
EndSplineSet
EndChar

StartChar: bracketleft
Encoding: 61 91 60
Width: 635
Flags: HW
LayerCount: 2
Fore
SplineSet
330.125 -143 m 128
 321.012695312 -143 312.37109375 -143.024414062 304.180664062 -143.024414062 c 0
 202.08203125 -143.024414062 170 -139.228515625 170 -37 c 2
 170 1661 l 2
 170 1742.65136719 198.7421875 1770 273.948242188 1770 c 128
 296.203125 1770 320.123046875 1770.51464844 344.143554688 1770.51464844 c 0
 439.778320312 1770.51464844 537 1762.34960938 537 1681 c 0
 537 1664.20019531 511.666992188 1651.36621094 461 1642.5 c 128
 410.333007812 1633.63378906 385 1625.13378906 385 1617 c 2
 385 11 l 2
 385 -30.603515625 537 -5.07421875 537 -54 c 0
 537 -140.500976562 434.1875 -143 330.125 -143 c 128
EndSplineSet
EndChar

StartChar: backslash
Encoding: 62 92 61
Width: 725
Flags: HW
LayerCount: 2
Fore
SplineSet
-8 1589 m 0
 -8 1641.89550781 58.55078125 1679 130.5 1679 c 0
 162.985351562 1679 187.819335938 1651.66699219 205 1597 c 2
 706 -25 l 2
 714 -52.2001953125 718 -71.533203125 718 -83 c 0
 718 -129.64453125 654.42578125 -168 567.5 -168 c 0
 542.219726562 -168 521.052734375 -141 504 -87 c 2
 2 1535 l 2
 -4.6669921875 1553.66699219 -8 1571.66699219 -8 1589 c 0
EndSplineSet
EndChar

StartChar: bracketright
Encoding: 63 93 62
Width: 643
Flags: HW
LayerCount: 2
Fore
SplineSet
473 -37 m 2
 473 -131.204101562 444.71875 -143 355 -143 c 128
 338.333984375 -143 320.6796875 -143.234375 302.772460938 -143.234375 c 0
 207.94140625 -143.234375 106 -136.668945312 106 -54 c 0
 106 -35.3330078125 131.333007812 -22.8330078125 182 -16.5 c 128
 232.666992188 -10.1669921875 258 -1 258 11 c 2
 258 1617 l 2
 258 1647.98046875 106 1637.97753906 106 1681 c 0
 106 1767.52441406 207.802734375 1770 312.28125 1770 c 128
 433.828125 1770 473 1767.94628906 473 1661 c 2
 473 -37 l 2
EndSplineSet
EndChar

StartChar: asciicircum
Encoding: 64 94 63
Width: 972
Flags: HW
LayerCount: 2
Fore
SplineSet
164 617 m 0
 115.899414062 617 72 637.51171875 72 685 c 128
 72 721.727539062 98.8701171875 765.639648438 115.5 798 c 128
 138.041015625 841.864257812 169.065429688 898.734375 190 942 c 1
 219 992 l 1
 227 1008 232 1018.66699219 234 1024 c 2
 251 1060 l 2
 286.782226562 1133.44824219 317.561523438 1185.30957031 343.336914062 1215.5859375 c 0
 396.35546875 1277.86230469 450.577148438 1309 506 1309 c 0
 592.924804688 1309 663.590820312 1251.5 718 1136.5 c 0
 732.666992188 1105.5 746.333007812 1075.33300781 759 1046 c 1
 807 944 l 2
 827.919921875 899.37109375 857.133789062 840.39453125 878.5 794 c 0
 905.5 735.372070312 919 697.038085938 919 679 c 1
 914 676 l 1
 908 681 l 1
 901.736328125 644.671875 868.831054688 617 827.5 617 c 128
 774.959960938 617 730.90625 668.643554688 702.5 704.5 c 0
 673.484375 741.125976562 635.651367188 798.625976562 589 877 c 2
 574 902 l 2
 551.099609375 938.640625 528.735351562 980.69140625 502 1009 c 1
 502 1010 l 1
 488 987 l 1
 430.423828125 889.841796875 332.553710938 758.2265625 267 689.5 c 0
 220.897460938 641.166992188 186.563476562 617 164 617 c 0
EndSplineSet
EndChar

StartChar: underscore
Encoding: 65 95 64
Width: 1239
Flags: HW
LayerCount: 2
Fore
SplineSet
996 -5 m 2
 1073.33300781 -5 1112 -42 1112 -116 c 0
 1112 -205.333007812 1066.66699219 -250 976 -250 c 2
 304 -250 l 2
 224.666992188 -250 185 -213 185 -139 c 0
 185 -49.6669921875 234 -5 332 -5 c 2
 996 -5 l 2
EndSplineSet
EndChar

StartChar: grave
Encoding: 66 96 65
Width: 509
Flags: HW
LayerCount: 2
Fore
SplineSet
40 1603 m 128
 40 1664.82910156 100.23046875 1704 159.838867188 1704 c 128
 222.155273438 1704 272.6328125 1655.703125 288 1611 c 128
 326.127929688 1500.08300781 364.676757812 1371.8828125 396.5 1253.5 c 0
 414.819335938 1185.35351562 424.65234375 1142.52050781 426 1125 c 1
 426 1120 l 1
 412 1106 l 1
 382.096679688 1118.45996094 312.4296875 1194.79296875 203 1335 c 0
 131.579101562 1426.50683594 86.5576171875 1490.88378906 67.9345703125 1528.13085938 c 128
 49.3115234375 1565.37695312 40 1590.33300781 40 1603 c 128
EndSplineSet
EndChar

StartChar: a
Encoding: 67 97 66
Width: 1131
Flags: HW
LayerCount: 2
Fore
SplineSet
527.740234375 976 m 128
 794.99609375 976 913 867.896484375 913 591 c 2
 913 503.5 l 1
 912 384.5 l 1
 912 296 l 2
 912 226.666992188 921 182 939 162 c 1
 955.274414062 146.978515625 1044.52148438 121.741210938 1067 113 c 128
 1079 108.333007812 1085 102.333007812 1085 95 c 0
 1085 25 1013.33300781 -10 870 -10 c 0
 757.4140625 -10 740.435546875 37.63671875 738 157 c 1
 700.702148438 89.3974609375 642.202148438 39.8974609375 562.5 8.5 c 0
 506.815429688 -13.4365234375 449.819335938 -24.404296875 391.510742188 -24.404296875 c 0
 352.268554688 -24.404296875 312.431640625 -19.4365234375 272 -9.5 c 0
 155.71484375 19.0791015625 62 96.1962890625 62 237.5 c 128
 62 496.735351562 335.487304688 521.671875 565.5 549 c 0
 645.134765625 558.461914062 696.967773438 569.461914062 721 582 c 1
 721 677.225585938 713.5 741.865234375 698.5 775.918945312 c 128
 669.950195312 840.735351562 622.647460938 879.508789062 531.921875 879.508789062 c 0
 531.118164062 879.508789062 530.310546875 879.505859375 529.5 879.5 c 128
 380.172851562 878.376953125 316 812.45703125 316 661 c 1
 317 639 l 1
 292 635.666992188 271.916992188 634 256.75 634 c 128
 185.592773438 634 107 675.52734375 107 737.166992188 c 128
 107 872.409179688 243.795898438 923.368164062 351 952.5 c 0
 408.653320312 968.166992188 467.567382812 976 527.740234375 976 c 128
475 80 m 0
 570.943359375 80 642.275390625 131.65234375 676 198.5 c 0
 706 257.963867188 721 355.797851562 721 492 c 1
 625.853515625 457.747070312 420.40625 450.349609375 346 403 c 0
 298.666992188 372.87890625 275 322.545898438 275 252 c 0
 275 137.333007812 341.666992188 80 475 80 c 0
EndSplineSet
EndChar

StartChar: b
Encoding: 68 98 67
Width: 1138
Flags: HW
LayerCount: 2
Fore
SplineSet
891 433 m 0
 891 633.857857876 766.753742421 850 576.592773438 850 c 128
 493.322265625 850 416.458007812 817.333007812 346 752 c 1
 346 201 l 1
 426 138.333007812 512 107 604 107 c 0
 788.639648438 107 891 243.7890625 891 433 c 0
1107 502 m 0
 1107 232.571873938 912.564937489 -18 652.651367188 -18 c 128
 531.872070312 -18 415.655273438 19.6669921875 304 95 c 1
 279.41796875 65.9482421875 236.245117188 -8 194.53125 -8 c 128
 157.729492188 -8 156 42.66796875 156 83 c 2
 156 1247 l 2
 156 1307.18066406 132.166992188 1339.84667969 84.5 1345 c 0
 40.1533203125 1349.79394531 13 1346.63574219 13 1378 c 0
 13 1449.12988281 120.104492188 1482 195 1482 c 128
 282.0078125 1482 347 1481.56054688 347 1407 c 2
 347 854 l 1
 446.520507812 938.666992188 555.520507812 981 674 981 c 0
 947.650390625 981 1107 781.491210938 1107 502 c 0
EndSplineSet
EndChar

StartChar: c
Encoding: 69 99 68
Width: 1036
Flags: HW
LayerCount: 2
Fore
SplineSet
936 737 m 0
 936 674.798828125 876.3203125 630 811.071289062 630 c 128
 775.119140625 630 749.428710938 633 734 639 c 1
 726.00390625 776.075195312 686.83984375 873 555 873 c 128
 346.600585938 873 230 725.112304688 230 526 c 0
 230 415.192382812 263.5 319.858398438 330.5 240 c 0
 403.771484375 152.666992188 499.938476562 109 619 109 c 0
 684.077148438 109 765.077148438 132.333007812 862 179 c 0
 883.333007812 189.666992188 901.5 195 916.5 195 c 128
 944.116210938 195 962 179.205078125 962 153 c 128
 962 141 957.333007812 128.333007812 948 115 c 1
 855.760742188 20.3330078125 722.09375 -27 547 -27 c 0
 242.517578125 -27 26 165.842773438 26 465 c 0
 26 611.959960938 77.1669921875 734.459960938 179.5 832.5 c 0
 280.051757812 928.833007812 406.21875 977 558 977 c 0
 645.549804688 977 726.215820312 959.5 800 924.5 c 0
 890.666992188 881.491210938 936 818.991210938 936 737 c 0
EndSplineSet
EndChar

StartChar: d
Encoding: 70 100 69
Width: 1215
Flags: HW
LayerCount: 2
Fore
SplineSet
219 493 m 0
 219 280.616210938 342.555664062 99 544 99 c 0
 729.166015625 99 812 169.809570312 812 356 c 2
 812 751 l 1
 758.213867188 822.713867188 650.670898438 871 510 871 c 128
 416.431640625 871 333.79296875 808.439453125 292 748.5 c 0
 243.333007812 678.702148438 219 593.53515625 219 493 c 0
851 1482 m 128
 938.0078125 1482 1003 1481.56054688 1003 1407 c 2
 1003 313 l 2
 1003 234.778320312 1011 186.778320312 1027 169 c 1
 1038.99707031 149.620117188 1058.49707031 135.108398438 1085.49804688 125.46484375 c 128
 1120.80957031 112.853515625 1157 106.721679688 1157 74 c 0
 1157 12.8203125 1075.88769531 -7 1008 -7 c 128
 914.8671875 -7 861.727539062 16.9443359375 842.5 83.5 c 128
 838.166992188 98.5 834 112 830 124 c 1
 774.76171875 27.3330078125 660.76171875 -21 488 -21 c 0
 208.559570312 -21 19 185.747070312 19 469 c 0
 19 770.931640625 234.318359375 979 536 979 c 0
 597.471679688 979 654.33984375 970.166992188 706.604492188 952.5 c 128
 758.868164062 934.833007812 794 921.333007812 812 912 c 1
 812 1247 l 2
 812 1307.18066406 788.166992188 1339.84667969 740.5 1345 c 0
 696.153320312 1349.79394531 669 1346.63574219 669 1378 c 0
 669 1449.12988281 776.104492188 1482 851 1482 c 128
EndSplineSet
EndChar

StartChar: e
Encoding: 71 101 70
Width: 995
Flags: HW
LayerCount: 2
Fore
SplineSet
29 470.5 m 128
 29 772.399414062 239.09375 976 524 976 c 0
 749.853515625 976 930 811.630859375 930 588 c 0
 930 524.788085938 877.049804688 507 802 507 c 2
 223 507 l 1
 225.646484375 295.262695312 375.708007812 123 588 123 c 0
 656.538085938 123 723.87109375 143.5 790 184.5 c 0
 823.87109375 205.5 845.204101562 216 854 216 c 256
 874.252929688 216 908 196.090820312 908 166.5 c 128
 908 48.8525390625 650.854492188 -27 533.176757812 -27 c 128
 231.4921875 -27 29 169.981445312 29 470.5 c 128
746 612 m 1
 743.365234375 756.94921875 669.48046875 871 518.5 871 c 128
 363.043945312 871 240.287109375 741.591796875 233 608 c 1
 467 608 l 2
 561 608 654 609.333007812 746 612 c 1
EndSplineSet
EndChar

StartChar: f
Encoding: 72 102 71
Width: 821
Flags: HW
LayerCount: 2
Fore
SplineSet
219 1109 m 2
 219 1336.20800781 366.647460938 1459 598 1459 c 0
 703.151367188 1459 776.818359375 1434.83300781 819 1386.5 c 0
 835 1368.16699219 843 1345.33300781 843 1318 c 0
 843 1236.66699219 802 1196 720 1196 c 0
 648.666992188 1196 613 1236.66699219 613 1318 c 2
 613 1332 l 1
 587.094726562 1342.66699219 561.428710938 1348 536 1348 c 0
 422 1348 365 1288.66699219 365 1170 c 0
 365 1090 379.666992188 1020.66699219 409 962 c 1
 554 962 l 2
 602 962 626 948 626 920 c 0
 626 873.287109375 591.21875 836 557 836 c 2
 409 836 l 1
 409 191 l 2
 409 150.272460938 430.5 128.606445312 473.5 126 c 0
 518.110351562 123.295898438 538 118.381835938 538 78 c 128
 538 39.6669921875 509.778320312 20.0419921875 477 11 c 0
 450.416992188 3.6669921875 408.604492188 0 351.5625 0 c 128
 323.974609375 0 294.5390625 -0.912109375 265.736328125 -0.912109375 c 0
 174.703125 -0.912109375 90 8.197265625 90 84 c 0
 90 132.690429688 148.452148438 120.447265625 185.5 134.5 c 0
 207.833007812 142.971679688 219 161.8046875 219 191 c 2
 219 833 l 1
 149 833 l 2
 112.779296875 833 88 861.618164062 88 895.5 c 128
 88 959.192382812 123.344726562 962.02734375 196.481445312 962.02734375 c 0
 203.625976562 962.02734375 211.131835938 962 219 962 c 1
 219 1109 l 2
EndSplineSet
EndChar

StartChar: g
Encoding: 73 103 72
Width: 1141
Flags: HW
LayerCount: 2
Fore
SplineSet
498 307 m 0
 435.19921875 307 381.821289062 320.251953125 325 328 c 1
 325 329 l 1
 274.333007812 294.057617188 249 263.321289062 249 236.79296875 c 128
 249 175.7421875 317.88671875 166.31640625 380 160 c 128
 634.26171875 134.142578125 1086 204.236328125 1086 -84 c 0
 1086 -165.466796875 1054.83300781 -234.799804688 992.5 -292 c 0
 899.045898438 -377.7578125 731.91015625 -433 539 -433 c 128
 376.166992188 -433 225.43359375 -405.881835938 130 -335.5 c 0
 70.6669921875 -291.741210938 41 -235.908203125 41 -168 c 0
 41 -73.0234375 88.6669921875 -0.0234375 184 51 c 1
 132.953125 99.7265625 119 135.50390625 119 211 c 128
 119 248.254882812 135.208984375 275.860351562 154 297 c 0
 170.674804688 315.758789062 197.340820312 337.091796875 234 361 c 1
 136.880859375 418.858398438 76.7138671875 485.858398438 53.5 562 c 0
 45.1669921875 589.333007812 41 625.666992188 41 671 c 128
 41 776.817382812 119.771484375 856.374023438 193 899 c 0
 278.897460938 949 381.23046875 974 500 974 c 0
 546.456054688 974 594.737304688 968.333007812 644.841796875 957 c 0
 739.157226562 935.666992188 799.762695312 925 826.658203125 925 c 0
 885.749023438 925 920.529296875 954.666992188 931 1014 c 1
 943 1014 l 2
 1010.16113281 1014 1059 980.041992188 1059 912 c 128
 1059 845.818359375 1014.73925781 806 951 806 c 0
 923.657226562 806 901.45703125 808.272460938 879 810 c 1
 914.196289062 778.713867188 952 702.771484375 952 622 c 0
 952 520.9453125 901 441.112304688 799 382.5 c 0
 711.407226562 332.166992188 611.073242188 307 498 307 c 0
245 656 m 0
 245 509.954101562 364.081054688 404 513 404 c 256
 659.967773438 404 763 500.602539062 763 647 c 0
 763 778.900390625 644.474609375 888 511 888 c 0
 360.874023438 888 245 801.102539062 245 656 c 0
284 19 m 1
 233.333007812 -33.30078125 208 -82.30078125 208 -128 c 0
 208 -253.333007812 312.333007812 -316 521 -316 c 0
 682.161132812 -316 794.994140625 -281.166992188 859.5 -211.5 c 0
 884.5 -184.5 897 -149.666992188 897 -107 c 0
 897 -25 737.666992188 16 419 16 c 1
 312 17 l 1
 284 18 l 1
 284 19 l 1
EndSplineSet
EndChar

StartChar: h
Encoding: 74 104 73
Width: 1296
Flags: HW
LayerCount: 2
Fore
SplineSet
342.5625 0 m 128
 314.974609375 0 285.538085938 -0.912109375 256.735351562 -0.912109375 c 0
 165.703125 -0.912109375 81 8.197265625 81 84 c 0
 81 132.690429688 139.452148438 120.447265625 176.5 134.5 c 0
 198.833007812 142.971679688 210 161.8046875 210 191 c 2
 210 1280 l 2
 210 1318.93652344 186.166992188 1342.27050781 138.5 1350 c 0
 95.2939453125 1357.00683594 67 1358.671875 67 1395.5 c 128
 67 1429.98242188 109.200195312 1451.42578125 139 1462 c 0
 176.575195312 1475.33300781 222.575195312 1482 277 1482 c 0
 359.666992188 1482 401 1457 401 1407 c 2
 401 826 l 1
 491.588867188 928.666992188 610.588867188 980 758 980 c 0
 961.053710938 980 1076.38769531 890.833007812 1104 712.5 c 0
 1112 660.833007812 1116 607 1116 551 c 2
 1115 191 l 2
 1115 150.272460938 1136.5 128.606445312 1179.5 126 c 0
 1224.11035156 123.295898438 1244 118.381835938 1244 78 c 128
 1244 39.6669921875 1215.77832031 20.0419921875 1183 11 c 0
 1156.41699219 3.6669921875 1114.60449219 0 1057.5625 0 c 128
 1029.97460938 0 1000.53808594 -0.912109375 971.735351562 -0.912109375 c 0
 880.703125 -0.912109375 796 8.197265625 796 84 c 0
 796 132.690429688 854.452148438 120.447265625 891.5 134.5 c 0
 913.833007812 142.971679688 925 161.8046875 925 191 c 2
 926 482 l 2
 926 599.23828125 915.5 679.71484375 894.5 723.428710938 c 128
 854.03125 807.669921875 803.395507812 851 682 851 c 128
 568.171875 851 491.994140625 806.744140625 450.5 736 c 0
 416.833007812 678.600585938 400 592.267578125 400 477 c 2
 400 191 l 2
 400 150.272460938 421.5 128.606445312 464.5 126 c 0
 509.110351562 123.295898438 529 118.381835938 529 78 c 128
 529 39.6669921875 500.778320312 20.0419921875 468 11 c 0
 441.416992188 3.6669921875 399.604492188 0 342.5625 0 c 128
EndSplineSet
EndChar

StartChar: i
Encoding: 75 105 74
Width: 630
Flags: HW
LayerCount: 2
Fore
SplineSet
289.903320312 1376 m 128
 363.197265625 1376 442 1330.50976562 442 1271.42480469 c 128
 442 1202.671875 401.838867188 1168.78515625 351 1151.5 c 128
 334.333007812 1145.83300781 318.166992188 1143 302.5 1143 c 128
 229.776367188 1143 161 1189.90722656 161 1255 c 256
 161 1289.38964844 176.833007812 1318.55664062 208.5 1342.5 c 0
 238.038085938 1364.83300781 265.171875 1376 289.903320312 1376 c 128
276 964 m 128
 363.124023438 964 427 963.594726562 427 889 c 2
 427 191 l 2
 427 150.272460938 448.5 128.606445312 491.5 126 c 0
 536.110351562 123.295898438 556 118.381835938 556 78 c 128
 556 39.6669921875 527.778320312 20.0419921875 495 11 c 0
 468.416992188 3.6669921875 426.604492188 0 369.5625 0 c 128
 341.974609375 0 312.5390625 -0.912109375 283.736328125 -0.912109375 c 0
 192.703125 -0.912109375 108 8.197265625 108 84 c 0
 108 132.690429688 166.452148438 120.447265625 203.5 134.5 c 0
 225.833007812 142.971679688 237 161.8046875 237 191 c 2
 237 729 l 2
 237 789.180664062 213.166992188 821.846679688 165.5 827 c 0
 121.153320312 831.793945312 94 828.635742188 94 860 c 0
 94 931.129882812 201.104492188 964 276 964 c 128
EndSplineSet
EndChar

StartChar: j
Encoding: 76 106 75
Width: 514
Flags: HW
LayerCount: 2
Fore
SplineSet
371 1273.8046875 m 128
 371 1192.88769531 304.076171875 1144 231 1144 c 256
 153.32421875 1144 90 1197.75878906 90 1257 c 256
 90 1318.16113281 155.166992188 1374 215.166992188 1374 c 128
 290.111328125 1374 371 1335.44921875 371 1273.8046875 c 128
202 963 m 128
 289.0078125 963 354 962.560546875 354 888 c 2
 354 152 l 2
 354 -122.909179688 285.41015625 -241.567382812 46 -269 c 0
 43.3330078125 -269.666992188 40.1669921875 -270 36.5 -270 c 2
 29 -270 l 2
 -36.3330078125 -270 -69 -244 -69 -192 c 0
 -69 -145.92578125 -36.3330078125 -119.258789062 29 -112 c 1
 83 -98.6669921875 124.333007812 -84.5 153 -69.5 c 128
 181.666992188 -54.5 196 -37.1669921875 196 -17.5 c 128
 196 30.220703125 182.234375 67.9814453125 173 113 c 2
 163 162 l 1
 163 728 l 2
 163 788.180664062 139.166992188 820.846679688 91.5 826 c 0
 47.1533203125 830.793945312 20 827.635742188 20 859 c 0
 20 930.129882812 127.104492188 963 202 963 c 128
EndSplineSet
EndChar

StartChar: k
Encoding: 77 107 76
Width: 1382
Flags: HW
LayerCount: 2
Fore
SplineSet
1322 978 m 0
 1322 959.524414062 1274.41992188 912.899414062 1235 891 c 1
 1141.54199219 891 1020.87597656 829.833007812 873 707.5 c 0
 836.333007812 677.166992188 800.333007812 651 765 629 c 1
 700 580 l 1
 788.706054688 454.767578125 915.243164062 350.334960938 1014.5 248.5 c 128
 1057.93261719 203.939453125 1083.55957031 174.694335938 1132.5 148 c 0
 1163.75390625 130.952148438 1197.484375 118.0234375 1233.69042969 109.213867188 c 128
 1288.57714844 95.859375 1297.55957031 98.208984375 1325 79.5 c 0
 1342.33300781 67.681640625 1351 53.8486328125 1351 38 c 0
 1351 6 1299.33300781 -10 1196 -10 c 2
 1147.5 -10 l 2
 1027.3125 -10 997.907226562 -7.712890625 942 45 c 128
 818.154296875 161.768554688 665.131835938 368.560546875 573 501 c 1
 403 386 l 1
 403 191 l 2
 403 150.272460938 424.5 128.606445312 467.5 126 c 0
 512.110351562 123.295898438 532 118.381835938 532 78 c 128
 532 39.6669921875 503.778320312 20.0419921875 471 11 c 0
 444.416992188 3.6669921875 402.604492188 0 345.5625 0 c 128
 317.974609375 0 288.538085938 -0.912109375 259.735351562 -0.912109375 c 0
 168.703125 -0.912109375 84 8.197265625 84 84 c 0
 84 132.690429688 142.452148438 120.447265625 179.5 134.5 c 0
 201.833007812 142.971679688 213 161.8046875 213 191 c 2
 213 1247 l 2
 213 1307.18066406 189.166992188 1339.84667969 141.5 1345 c 0
 97.1533203125 1349.79394531 70 1346.63574219 70 1378 c 0
 70 1449.12988281 177.104492188 1482 252 1482 c 128
 339.0078125 1482 404 1481.56054688 404 1407 c 2
 404 532 l 1
 524.334960938 622.250976562 661.522460938 716.360351562 779.5 809.5 c 0
 821.166992188 842.39453125 842 861.89453125 842 868 c 256
 842 883.743164062 816.666992188 899.41015625 766 915 c 1
 767.895507812 975.666992188 823.895507812 1006 934 1006 c 2
 1070 1006 l 2
 1238 1006 1322 996.666992188 1322 978 c 0
EndSplineSet
EndChar

StartChar: l
Encoding: 78 108 77
Width: 604
Flags: HW
LayerCount: 2
Fore
SplineSet
345.5625 0 m 128
 317.974609375 0 288.538085938 -0.912109375 259.735351562 -0.912109375 c 0
 168.703125 -0.912109375 84 8.197265625 84 84 c 0
 84 133.081054688 142.046875 119.982421875 179 134.5 c 0
 201 143.142578125 212 161.975585938 212 191 c 2
 212 1247 l 2
 212 1307.18066406 188.166992188 1339.84667969 140.5 1345 c 0
 96.1533203125 1349.79394531 69 1346.63574219 69 1378 c 0
 69 1449.12988281 176.104492188 1482 251 1482 c 128
 338.0078125 1482 403 1481.56054688 403 1407 c 2
 403 191 l 2
 403 150.272460938 424.5 128.606445312 467.5 126 c 0
 512.110351562 123.295898438 532 118.381835938 532 78 c 128
 532 39.6669921875 503.778320312 20.0419921875 471 11 c 0
 444.416992188 3.6669921875 402.604492188 0 345.5625 0 c 128
EndSplineSet
EndChar

StartChar: m
Encoding: 79 109 78
Width: 1957
Flags: HW
LayerCount: 2
Fore
SplineSet
768.5 979 m 128
 885.7734375 979 996.083984375 893.950195312 1048 814 c 1
 1161.57910156 924.666992188 1287.57910156 980 1426 980 c 0
 1575.3671875 980 1673.8671875 925.166992188 1721.5 815.5 c 0
 1747.8828125 754.7578125 1762.39550781 692.155273438 1765.03710938 627.693359375 c 128
 1767.67871094 563.231445312 1769 511 1769 471 c 2
 1769 191 l 2
 1769 150.272460938 1790.5 128.606445312 1833.5 126 c 0
 1878.11035156 123.295898438 1898 118.381835938 1898 78 c 128
 1898 39.6669921875 1869.77832031 20.0419921875 1837 11 c 0
 1810.41699219 3.6669921875 1768.60449219 0 1711.5625 0 c 128
 1683.97460938 0 1654.5390625 -0.912109375 1625.73632812 -0.912109375 c 0
 1534.703125 -0.912109375 1450 8.197265625 1450 84 c 0
 1450 132.690429688 1508.45214844 120.447265625 1545.5 134.5 c 0
 1567.83300781 142.971679688 1579 161.8046875 1579 191 c 2
 1579 499 l 2
 1579 617.74609375 1570.16699219 697.099609375 1552.5 737.059570312 c 128
 1520.98144531 808.350585938 1474.79101562 851 1379.5 851 c 128
 1226.22265625 851 1087 776.529296875 1087 638 c 2
 1087 191 l 2
 1087 150.272460938 1108.5 128.606445312 1151.5 126 c 0
 1196.11035156 123.295898438 1216 118.381835938 1216 78 c 128
 1216 39.6669921875 1187.77832031 20.0419921875 1155 11 c 0
 1128.41699219 3.6669921875 1086.60449219 0 1029.5625 0 c 128
 1001.97460938 0 972.5390625 -0.912109375 943.736328125 -0.912109375 c 0
 852.703125 -0.912109375 768 8.197265625 768 84 c 0
 768 132.690429688 826.452148438 120.447265625 863.5 134.5 c 0
 885.833007812 142.971679688 897 161.8046875 897 191 c 2
 897 489 l 2
 897 593.333007812 891 664.25 879 701.75 c 128
 850.930664062 789.466796875 800.140625 851 700.12109375 851 c 128
 507.959960938 851 409.4296875 750.033203125 403 570 c 1
 403 191 l 2
 403 150.272460938 424.5 128.606445312 467.5 126 c 0
 512.110351562 123.295898438 532 118.381835938 532 78 c 128
 532 39.6669921875 503.778320312 20.0419921875 471 11 c 0
 444.416992188 3.6669921875 402.604492188 0 345.5625 0 c 128
 317.974609375 0 288.5390625 -0.912109375 259.736328125 -0.912109375 c 0
 168.703125 -0.912109375 84 8.197265625 84 84 c 0
 84 132.690429688 142.452148438 120.447265625 179.5 134.5 c 0
 201.833007812 142.971679688 213 161.8046875 213 191 c 2
 213 762 l 2
 213 801.801757812 189.166992188 823.635742188 141.5 827.5 c 0
 95.337890625 831.243164062 70 830.690429688 70 869 c 128
 70 936.700195312 194.064453125 964 257.708007812 964 c 128
 371.501953125 964 394 942.337890625 394 825 c 1
 481.545898438 922.845703125 593.912109375 979 768.5 979 c 128
EndSplineSet
EndChar

StartChar: n
Encoding: 80 110 79
Width: 1316
Flags: HW
LayerCount: 2
Fore
SplineSet
255.181640625 964 m 128
 370.224609375 964 393 943.25390625 393 825 c 1
 484.317382812 928.333007812 609.984375 980 770 980 c 0
 973.053710938 980 1088.38769531 890.833007812 1116 712.5 c 0
 1124 660.833007812 1128 607 1128 551 c 2
 1128 191 l 2
 1128 150.272460938 1149.5 128.606445312 1192.5 126 c 0
 1237.11035156 123.295898438 1257 118.381835938 1257 78 c 128
 1257 39.52734375 1227.60742188 19.978515625 1194.5 11 c 0
 1167.45800781 3.6669921875 1125.28125 0 1067.96875 0 c 128
 1040.24023438 0 1010.64746094 -0.923828125 981.703125 -0.923828125 c 0
 890.643554688 -0.923828125 806 8.2158203125 806 84 c 0
 806 132.690429688 864.452148438 120.447265625 901.5 134.5 c 0
 923.833007812 142.971679688 935 161.8046875 935 191 c 2
 935 482 l 2
 935 642.666992188 909 748 857 798 c 0
 820.252929688 833.333007812 767.56640625 851 698.940429688 851 c 128
 460.155273438 851 402 729.209960938 402 477 c 2
 402 191 l 2
 402 150.272460938 423.5 128.606445312 466.5 126 c 0
 511.110351562 123.295898438 531 118.381835938 531 78 c 128
 531 39.6669921875 502.778320312 20.0419921875 470 11 c 0
 443.416992188 3.6669921875 401.604492188 0 344.5625 0 c 128
 316.974609375 0 287.5390625 -0.912109375 258.736328125 -0.912109375 c 0
 167.703125 -0.912109375 83 8.197265625 83 84 c 0
 83 132.690429688 141.452148438 120.447265625 178.5 134.5 c 0
 200.833007812 142.971679688 212 161.8046875 212 191 c 2
 212 762 l 2
 212 800.936523438 188.166992188 824.270507812 140.5 832 c 0
 97.2939453125 839.006835938 69 840.671875 69 877.5 c 128
 69 911.982421875 111.200195312 933.42578125 141 944 c 0
 178.575195312 957.333007812 216.635742188 964 255.181640625 964 c 128
EndSplineSet
EndChar

StartChar: o
Encoding: 81 111 80
Width: 1114
Flags: HW
LayerCount: 2
Fore
SplineSet
573 974 m 0
 864.14453125 974 1079 774.024414062 1079 483 c 0
 1079 330.120117188 1025.33300781 206.453125 918 112 c 0
 814.211914062 20.6669921875 683.87890625 -25 527 -25 c 0
 365.887695312 -25 245.083007812 35.4296875 163 120 c 0
 71 214.788085938 25 334.454101562 25 479 c 0
 25 778.275390625 266.573242188 974 573 974 c 0
534 868 m 0
 337.26171875 868 229 706.421875 229 501.5 c 0
 229 276.478515625 363.044921875 86 570 86 c 0
 769.93359375 86 884 239.9140625 884 447 c 0
 884 558.596679688 855.666992188 653.930664062 799 733 c 0
 734.5 823 646.166992188 868 534 868 c 0
EndSplineSet
EndChar

StartChar: p
Encoding: 82 112 81
Width: 1180
Flags: HW
LayerCount: 2
Fore
SplineSet
948 461 m 0
 948 672.569335938 846.72265625 851 647 851 c 0
 455.666992188 851 360 743.333007812 360 528 c 2
 360 199 l 1
 414.444335938 129 507.444335938 94 639 94 c 0
 837.313476562 94 948 254.956054688 948 461 c 0
350 826 m 1
 442.456054688 915.267578125 538.159179688 979 686.430664062 979 c 128
 839.536132812 979 951.92578125 912.600585938 1024.5 827 c 0
 1104.16699219 733.034179688 1144 618.368164062 1144 483 c 0
 1144 343.852539062 1099.5 227.01953125 1010.5 132.5 c 0
 917.28125 33.5 793.962890625 -16 640.545898438 -16 c 0
 558.2421875 -16 464.727539062 11 360 65 c 1
 360 -219 l 2
 360 -259.727539062 381.5 -281.393554688 424.5 -284 c 0
 469.110351562 -286.704101562 489 -291.618164062 489 -332 c 128
 489 -370.333007812 460.778320312 -389.958007812 428 -399 c 0
 401.416992188 -406.333007812 359.604492188 -410 302.5625 -410 c 128
 274.974609375 -410 245.5390625 -410.912109375 216.736328125 -410.912109375 c 0
 125.703125 -410.912109375 41 -401.802734375 41 -326 c 0
 41 -277.309570312 99.4521484375 -289.552734375 136.5 -275.5 c 0
 158.833007812 -267.028320312 170 -248.1953125 170 -219 c 2
 170 683 l 2
 170 775.0546875 163.989257812 804.50390625 112 823.5 c 128
 80.8466796875 834.8828125 44.076171875 841.939453125 16 854.5 c 128
 3.3330078125 860.166992188 -3 869.833007812 -3 883.5 c 128
 -3 917.397460938 26.9560546875 935.669921875 56.5 945 c 0
 92.388671875 956.333007812 139.444335938 962 197.666992188 962 c 128
 300.776367188 962 351 950.247070312 351 856 c 2
 351 841 l 2
 351 836.333007812 350.666992188 831.333007812 350 826 c 1
EndSplineSet
EndChar

StartChar: q
Encoding: 83 113 82
Width: 1207
Flags: HW
LayerCount: 2
Fore
SplineSet
548 974 m 0
 638.275390625 974 771.682617188 926.838867188 850 877 c 1
 858.182617188 935 898.516601562 964 971 964 c 0
 1073.77246094 964 1141.43847656 944.666992188 1174 906 c 0
 1184.66699219 893.333007812 1190 880.666992188 1190 868 c 128
 1190 839.744140625 1155.78222656 835.211914062 1131 828.5 c 0
 1047.76757812 805.958007812 1028.9765625 796.178710938 1018 723 c 0
 1014 696.333007812 1012 670 1012 644 c 2
 1012 -219 l 2
 1012 -259.727539062 1033.5 -281.393554688 1076.5 -284 c 0
 1121.11035156 -286.704101562 1141 -291.618164062 1141 -332 c 128
 1141 -370.333007812 1112.77832031 -389.958007812 1080 -399 c 0
 1053.41699219 -406.333007812 1011.60449219 -410 954.5625 -410 c 128
 926.974609375 -410 897.538085938 -410.912109375 868.735351562 -410.912109375 c 0
 777.703125 -410.912109375 693 -401.802734375 693 -326 c 0
 693 -277.309570312 751.452148438 -289.552734375 788.5 -275.5 c 0
 810.833007812 -267.028320312 822 -248.1953125 822 -219 c 2
 822 86 l 1
 692 9.3330078125 578.666992188 -29 482 -29 c 0
 345.776367188 -29 234.942382812 18.8330078125 149.5 114.5 c 0
 69.1669921875 204.446289062 29 314.612304688 29 445 c 0
 29 593.41796875 75.3330078125 717.41796875 168 817 c 0
 265.3984375 921.666992188 392.065429688 974 548 974 c 0
822 728 m 2
 822 809.240234375 654.079101562 866 561.055664062 866 c 128
 446.010742188 866 360.216796875 814.170898438 308.5 747.5 c 0
 254.166992188 677.456054688 227 589.956054688 227 485 c 0
 227 331.31640625 299.125976562 197.2890625 405 132 c 128
 445 107.333007812 485.333007812 95 526 95 c 128
 666.051757812 95 759.732421875 139.1953125 822 215 c 1
 822 728 l 2
EndSplineSet
EndChar

StartChar: r
Encoding: 84 114 83
Width: 870
Flags: HW
LayerCount: 2
Fore
SplineSet
860 840 m 0
 860 772.474609375 807.0859375 724 738.051757812 724 c 128
 669.856445312 724 617.654296875 763.900390625 604 821 c 1
 590.758789062 822.655273438 574.17578125 825 561 825 c 0
 457 825 405 705.333007812 405 466 c 2
 405 191 l 2
 405 150.272460938 426.5 128.606445312 469.5 126 c 0
 514.110351562 123.295898438 534 118.381835938 534 78 c 128
 534 39.6669921875 505.778320312 20.0419921875 473 11 c 0
 446.416992188 3.6669921875 404.604492188 0 347.5625 0 c 128
 319.974609375 0 290.5390625 -0.912109375 261.736328125 -0.912109375 c 0
 170.703125 -0.912109375 86 8.197265625 86 84 c 0
 86 132.690429688 144.452148438 120.447265625 181.5 134.5 c 0
 203.833007812 142.971679688 215 161.8046875 215 191 c 2
 215 685 l 2
 215 780.279296875 205.849609375 808.016601562 151.5 827.5 c 128
 121.020507812 838.426757812 85.8359375 844.661132812 59 856.5 c 128
 47.6669921875 861.5 42 870 42 882 c 0
 42 935.333007812 113.666992188 962 257 962 c 0
 314.077148438 962 349.1796875 956.666992188 362.307617188 946 c 0
 385.435546875 927.208007812 397 886.875 397 825 c 1
 453.115234375 887.848632812 523.615234375 931.848632812 608.5 957 c 0
 635.5 965 659.666992188 969 681 969 c 128
 771.509765625 969 860 921.28515625 860 840 c 0
EndSplineSet
EndChar

StartChar: s
Encoding: 85 115 84
Width: 985
Flags: HW
LayerCount: 2
Fore
SplineSet
760.6875 635 m 128
 711.903320312 635 692 638.78125 692 683 c 0
 692 811.666992188 623.666992188 876 487 876 c 0
 378.162109375 876 276 823.528320312 276 741 c 0
 276 695.8984375 310 658.565429688 378 629 c 0
 520.505859375 567.041015625 708.961914062 543.462890625 827 457.5 c 0
 895 407.978515625 929 344.145507812 929 266 c 0
 929 169.224609375 880 94.0576171875 782 40.5 c 0
 700.879882812 -3.8330078125 608.879882812 -26 506 -26 c 0
 406.061523438 -26 311.728515625 -9.8330078125 223 22.5 c 0
 135 54.5673828125 91 89.4013671875 91 127 c 0
 91 131.666992188 94 140.666992188 100 154 c 0
 119.333007812 196.962890625 129 238.537109375 129 278.72265625 c 0
 129 342.241210938 143.333007812 374 172 374 c 0
 211.977539062 374 220.20703125 334.938476562 229.5 300.5 c 128
 243.40625 248.965820312 254.734375 201.8203125 288.5 164.5 c 0
 332.833007812 115.5 405.333007812 91 506 91 c 0
 656 91 731 137 731 229 c 0
 731 299.260742188 663.5 353.760742188 528.5 392.5 c 0
 411.439453125 426.090820312 333.2578125 450.405273438 293.954101562 465.443359375 c 128
 254.651367188 480.481445312 220 498.833007812 190 520.5 c 0
 123.333007812 568.6484375 90 632.481445312 90 712 c 0
 90 830.666992188 165 911.666992188 315 955 c 0
 370.384765625 971 420.064453125 979 464.038085938 979 c 128
 584.97265625 979 661.006835938 960.032226562 744 921.5 c 128
 816.209960938 887.973632812 893 822.578125 893 740 c 0
 893 703.233398438 874.166992188 675.233398438 836.5 656 c 0
 809.083007812 642 783.8125 635 760.6875 635 c 128
EndSplineSet
EndChar

StartChar: t
Encoding: 86 116 85
Width: 739
Flags: HW
LayerCount: 2
Fore
SplineSet
367.25 -18 m 0
 209.013671875 -18 138 104.698242188 138 269 c 2
 138 828 l 1
 115.348632812 828 94.587890625 827.213867188 76.5693359375 827.213867188 c 0
 33.4228515625 827.213867188 6 831.721679688 6 862.327148438 c 128
 6 898.611328125 45.4775390625 917.71875 72 932 c 128
 98.384765625 946.20703125 142.3984375 964.59765625 157 986.5 c 128
 193.48828125 1041.23242188 216.576171875 1121.44628906 251 1178 c 0
 272.506835938 1213.33300781 290.506835938 1231 305 1231 c 0
 318.118164062 1231 326.064453125 1216.66699219 328.838867188 1188 c 0
 332.279296875 1152.44433594 334 1075.44433594 334 957 c 1
 572 956 l 2
 616.768554688 956 655 931.01953125 655 891.5 c 128
 655 851.803710938 618.454101562 831 573 831 c 2
 334 831 l 1
 333 320 l 2
 333 224.482421875 350.833007812 159.649414062 386.5 125.5 c 0
 402.166992188 110.5 420.5 103 441.5 103 c 128
 498.615234375 103 567.43359375 140 608.5 140 c 0
 635.5 140 649 124.333007812 649 93 c 0
 649 55.6220703125 591.5 23.2880859375 476.5 -4 c 0
 437.166992188 -13.3330078125 400.75 -18 367.25 -18 c 0
EndSplineSet
EndChar

StartChar: u
Encoding: 87 117 86
Width: 1261
Flags: HW
LayerCount: 2
Fore
SplineSet
583 109 m 128
 790.56640625 109 863 195.576171875 863 411 c 2
 863 437 l 1
 862 749 l 2
 862 799.08984375 838.166992188 825.422851562 790.5 828 c 0
 748.2578125 830.283203125 720 830.251953125 720 862 c 0
 720 934.650390625 827.568359375 964 905.5 964 c 128
 1022.18164062 964 1055 952.243164062 1055 838 c 2
 1056 198 l 2
 1056 151.946289062 1080.16699219 127.612304688 1128.5 125 c 0
 1175.86816406 122.440429688 1201 124.185546875 1201 86 c 128
 1201 49.119140625 1165.05078125 25.021484375 1135 12.5 c 0
 1097.39941406 -3.1669921875 1056.33300781 -11 1011.79980469 -11 c 128
 885.5703125 -11 875 17.1328125 875 149 c 1
 800.719726562 40.955078125 677.7578125 -27 505 -27 c 0
 233.545898438 -27 143 122.08203125 143 406 c 2
 143 749 l 2
 143 799.037109375 119.333007812 825.370117188 72 828 c 0
 29.271484375 830.373046875 1 830.102539062 1 862 c 0
 1 934.650390625 108.568359375 964 186.5 964 c 128
 303.181640625 964 336 952.243164062 336 838 c 2
 336 433 l 2
 336 329.833007812 346.333007812 258.875 367 220.125 c 128
 408.856445312 141.64453125 462.463867188 109 583 109 c 128
EndSplineSet
EndChar

StartChar: v
Encoding: 88 118 87
Width: 1189
Flags: HW
LayerCount: 2
Fore
SplineSet
180 961 m 128
 269.4140625 961 484 954.880859375 484 891 c 0
 484 869.364257812 462.833007812 854.697265625 420.5 847 c 128
 378.166992188 839.302734375 357 824.969726562 357 804 c 0
 357 773.549804688 444.666992188 575.8828125 620 211 c 1
 793.333007812 575.518554688 880 773.184570312 880 804 c 0
 880 824.969726562 858.833007812 839.302734375 816.5 847 c 128
 774.166992188 854.697265625 753 869.364257812 753 891 c 0
 753 923.888671875 801.5 945.721679688 898.5 956.5 c 0
 925.5 959.5 953.333007812 961 982 961 c 128
 1050.1015625 961 1209 944.76953125 1209 894 c 0
 1209 861.963867188 1188.66699219 844.297851562 1148 841 c 1
 1063.03222656 825.348632812 1046.05566406 819.047851562 1018.48242188 762.063476562 c 128
 973.409179688 668.9140625 927.455078125 570.364257812 880 471.5 c 130
 820 346.5 l 130
 783.790039062 271.0625 743.603515625 188.49609375 707.5 118.5 c 0
 672.703125 51.0361328125 650.086914062 12.25390625 639.65234375 2.15234375 c 0
 620.954101562 -15.94921875 601.50390625 -25 581.301757812 -25 c 128
 517.008789062 -25 499.161132812 14.5517578125 479.551757812 60.732421875 c 128
 396.109375 257.228515625 287.741210938 461.518554688 192.5 652 c 2
 139 759 l 2
 126.3828125 783.087890625 122.1953125 800.903320312 103 814.5 c 0
 90.615234375 823.272460938 60.2822265625 832.106445312 12 841 c 1
 -28.6669921875 844.297851562 -49 862.297851562 -49 895 c 0
 -49 940.795898438 122.682617188 961 180 961 c 128
EndSplineSet
EndChar

StartChar: w
Encoding: 89 119 88
Width: 1717
Flags: HW
LayerCount: 2
Fore
SplineSet
1289 892.666992188 m 0
 1289 903.111328125 1291.33300781 914.555664062 1296 927 c 1
 1296 933 l 1
 1396 949.666992188 1505 958 1623 958 c 2
 1628 958 l 2
 1698.66699219 958 1734 943.666992188 1734 915 c 0
 1734 890.142578125 1722.66699219 868.809570312 1700 851 c 1
 1649.54882812 843.23828125 1614.43652344 829.96484375 1594.66210938 811.178710938 c 0
 1564.34960938 782.381835938 1540.79589844 746.989257812 1524 705 c 2
 1462 542 l 1
 1342.99902344 243.231445312 1276.74902344 82.373046875 1263.24902344 59.423828125 c 128
 1249.75 36.474609375 1238.83300781 20.3330078125 1230.5 11 c 0
 1208.40429688 -13.7470703125 1187.70703125 -24.029296875 1168.46386719 -24.029296875 c 0
 1093.98242188 -24.029296875 1041.27441406 129.99609375 1013.5 195.5 c 128
 961.946289062 317.088867188 900.983398438 471.03515625 850 573 c 1
 817.622070312 487.29296875 783.360351562 409.033203125 747.216796875 338.219726562 c 128
 711.072265625 267.40625 686 218 672 190 c 2
 590 29 l 1
 571 27 l 1
 571 28 l 1
 554.23828125 -1.3330078125 529.571289062 -16 497 -16 c 0
 461.313476562 -16 413.647460938 62 354 218 c 0
 336.666992188 263.333007812 319.166992188 310.5 301.5 359.5 c 130
 248.5 506.5 l 130
 212.134765625 607.361328125 140.002929688 787.127929688 97 832 c 1
 97 831 l 1
 83.9716796875 836.921875 62.34375 835.91015625 51 843 c 1
 -6.484375 853.778320312 -45 859.9921875 -45 909 c 0
 -45 942.333007812 -21.6669921875 959 25 959 c 2
 236 958 l 1
 269.5 958 l 2
 396.5 958 460 943 460 913 c 0
 460 890.090820312 454 872.090820312 442 859 c 1
 401.5 849 l 2
 363.833007812 839.279296875 345 822.946289062 345 800 c 0
 345 739.8515625 466.951171875 434.041992188 484 390 c 0
 518.125976562 301.83984375 544.459960938 238.506835938 563 200 c 1
 625.004882812 331.165039062 698.338867188 504.499023438 783 720 c 1
 765.866210938 761.883789062 746.19921875 795.883789062 724 822 c 1
 683 855 l 2
 661 871.922851562 650 883.922851562 650 891 c 0
 650 925 671 942 713 942 c 2
 792 942 l 1
 812 943 l 1
 967.333007812 943 1045 930 1045 904 c 0
 1045 848.037109375 954 879.520507812 954 834.5 c 128
 954 796.7890625 973.250976562 757.571289062 987.5 718.5 c 128
 1035.95410156 585.641601562 1093.15820312 442.27734375 1147.5 314.5 c 0
 1174.73144531 250.469726562 1192.89746094 211.303710938 1202 197 c 1
 1215.13574219 248.458984375 1243.0859375 322.823242188 1285.8515625 420.09375 c 128
 1328.6171875 517.364257812 1356.83300781 584 1370.5 620 c 0
 1402.16699219 703.415039062 1418 764.748046875 1418 804 c 0
 1418 822.485351562 1396.5 834.985351562 1353.5 841.5 c 128
 1310.5 848.014648438 1289 865.0703125 1289 892.666992188 c 0
EndSplineSet
EndChar

StartChar: x
Encoding: 90 120 89
Width: 1274
Flags: HW
LayerCount: 2
Fore
SplineSet
1183 79.5 m 128
 1183 7.6181640625 1093.54199219 -1 1016.5 -1 c 2
 903 -1 l 2
 787 -1 729 27.3330078125 729 84 c 0
 729 123.08203125 776.500976562 128.724609375 806.5 137 c 128
 816.166992188 139.666992188 821 145 821 153 c 0
 821 172.454101562 797.051757812 191.940429688 787 203.5 c 128
 726.36328125 273.232421875 678.935546875 327.1640625 613 406 c 1
 613 405.333007812 607 398.833007812 595 386.5 c 128
 546.625976562 336.782226562 485.50390625 272.234375 437 220 c 0
 396.333007812 176.205078125 376 152.08984375 376 147.654296875 c 128
 376 137.387695312 421.624023438 134.466796875 435.5 132 c 0
 475.166992188 124.948242188 495 108.614257812 495 83 c 0
 495 31.9560546875 449.5 4.7890625 358.5 1.5 c 0
 330.833007812 0.5 301.333007812 0 270 0 c 128
 267.162109375 0 264.303710938 -0.0009765625 261.4296875 -0.0009765625 c 0
 165.829101562 -0.0009765625 52 1.2646484375 52 88 c 0
 52 116.6640625 69.8994140625 118.12109375 95 123.5 c 0
 177.095703125 141.091796875 208.84765625 169.078125 255 208.5 c 128
 353.521484375 292.653320312 435.252929688 366.345703125 553 474 c 1
 501.569335938 543.165039062 434.903320312 625.165039062 353 720 c 1
 309.158203125 768.712890625 251.991210938 802.379882812 181.5 821 c 0
 138.393554688 832.38671875 112.533203125 840.233398438 103.919921875 844.540039062 c 128
 95.306640625 848.846679688 91 854.666992188 91 862 c 0
 91 926 174.333007812 958 341 958 c 128
 507.666992188 958 591 929.333007812 591 872 c 256
 591 848.166992188 565.333007812 831.666992188 514 822.5 c 0
 504.666992188 820.833007812 500 818.666992188 500 816 c 0
 500 799.244140625 511.166992188 776.721679688 533.5 748.43359375 c 2
 582 687 l 2
 606 657.666992188 633.333007812 626.333007812 664 593 c 1
 801 732 l 2
 822.219726562 753.219726562 848.118164062 780.211914062 848.118164062 799.448242188 c 0
 848.118164062 807.79296875 843.244140625 814.678710938 831 819 c 128
 796.334960938 831.234375 739 837.739257812 739 869.731445312 c 128
 739 943.030273438 873.591796875 958 947 958 c 128
 1038.87988281 958 1173 943.330078125 1173 870.203125 c 128
 1173 841.401367188 1156.33300781 827 1123 827 c 1
 1079.29785156 823.877929688 1031.46484375 803.877929688 979.5 767 c 0
 969.166992188 759.666992188 962.666992188 754.666992188 960 752 c 2
 725 516 l 1
 963 238 l 1
 1013.609375 180.642578125 1095.35058594 161.3515625 1160 122 c 128
 1175.33300781 112.666992188 1183 98.5 1183 79.5 c 128
EndSplineSet
EndChar

StartChar: y
Encoding: 91 121 90
Width: 1125
Flags: HW
LayerCount: 2
Fore
SplineSet
315 -357 m 128
 222.353515625 -357 133 -306.602539062 133 -224 c 0
 133 -149.466796875 185.380859375 -102.080078125 255.28125 -102.080078125 c 0
 272.009765625 -102.080078125 289.7421875 -104.794921875 308 -110.5 c 0
 351.23046875 -124.009765625 388.465820312 -151.450195312 391 -192 c 1
 445.583007812 -104.666992188 481.25 -38.6669921875 498 6 c 1
 471.495117188 80.2138671875 373.995117188 281.047851562 205.5 608.5 c 0
 170.608398438 676.30859375 146.634765625 723.677734375 133.581054688 750.606445312 c 128
 102.2734375 815.190429688 44.779296875 819.2109375 -24 840.5 c 128
 -38 844.833007812 -45 855.5 -45 872.5 c 128
 -45 914.526367188 8.7998046875 935.177734375 48.5 944 c 0
 90.5 953.333007812 138.083007812 958 191.25 958 c 128
 296.252929688 958 456 954.15234375 456 869 c 0
 456 847.064453125 436.166992188 832.897460938 396.5 826.5 c 128
 356.833007812 820.102539062 337 805.602539062 337 783 c 0
 337 746.502929688 408.5 579.169921875 551.5 281 c 0
 567.166992188 248.333007812 580 223 590 205 c 1
 654.506835938 342.077148438 729.8125 499.55078125 792 641.5 c 0
 826 719.108398438 843 764.260742188 843 776.956054688 c 128
 843 844.892578125 703 809.791015625 703 866.88671875 c 128
 703 930.090820312 786.037109375 944.665039062 842 952.5 c 0
 868.190429688 956.166992188 906.905273438 958 958.142578125 958 c 128
 1035.67480469 958 1137 931.752929688 1137 864 c 0
 1137 849.23828125 1127 840.071289062 1107 836.5 c 0
 1022.56933594 821.422851562 992.35546875 795.271484375 959 723 c 0
 873.599609375 539.999023438 820.763671875 426.63671875 744 252 c 1
 529 -190 l 2
 494.995117188 -260.842773438 447.162109375 -311.008789062 385.5 -340.5 c 0
 362.5 -351.5 339 -357 315 -357 c 128
EndSplineSet
EndChar

StartChar: z
Encoding: 92 122 91
Width: 1059
Flags: HW
LayerCount: 2
Fore
SplineSet
162 0 m 2
 116.932617188 0 89 13.9189453125 89 53.5 c 128
 89 63.8330078125 94.6669921875 78.6669921875 106 98 c 128
 158.018554688 186.73828125 234.596679688 275.205078125 302 357.5 c 0
 347.047851562 412.5 404.713867188 482 475 566 c 2
 534 636 l 1
 580.731445312 693.115234375 632.577148438 753.724609375 678 808.5 c 128
 689.333007812 822.166992188 697 832.666992188 701 840 c 1
 681 842.666992188 658.333007812 844 633 844 c 2
 444 842 l 1
 414 842 l 1
 380 841 l 1
 319 844 l 1
 319 846 l 1
 268.129882812 716 215.796875 651 162 651 c 0
 117.26171875 651 82 675.658203125 82 720.5 c 128
 82 826.5 150.877929688 958 239 958 c 2
 928 958 l 1
 954 950.352539062 967 932.686523438 967 905 c 0
 967 871.116210938 848.5 716.116210938 611.5 440 c 0
 577.166992188 400 544.666992188 362 514 326 c 2
 469 274 l 2
 436.333007812 236 408.666992188 204.166992188 386 178.5 c 128
 363.333007812 152.833007812 349.333007812 136 344 128 c 1
 369.555664062 121.333007812 402.555664062 118 443 118 c 2
 557 118 l 2
 636.466796875 118 701.799804688 120.666992188 753 126 c 1
 753 125 l 1
 766.27734375 137.255859375 781.596679688 163.486328125 798.958007812 203.69140625 c 128
 816.319335938 243.897460938 828.833007812 270 836.5 282 c 0
 853.537109375 308.666992188 870.379882812 322 887.02734375 322 c 128
 941.891601562 322 985 299.708984375 985 249 c 0
 985 235.666992188 982.5 221.5 977.5 206.5 c 2
 967 175 l 1
 939.711914062 99.6328125 915.389648438 52.4580078125 894.034179688 33.474609375 c 128
 856.76953125 0.3505859375 833.6953125 -9 773 -9 c 1
 689 -5 l 1
 681 -5 l 1
 514 2 l 1
 162 0 l 2
EndSplineSet
EndChar

StartChar: braceleft
Encoding: 93 123 92
Width: 613
Flags: HW
LayerCount: 2
Fore
SplineSet
3 781 m 1
 150.090820312 785.668945312 188 881.922851562 188 1047 c 1
 187 1131 l 1
 187 1256.13964844 209.333007812 1357.97363281 254 1436.5 c 0
 297.040039062 1512.16699219 350.706054688 1550 415 1550 c 0
 499.666992188 1550 580 1524.66699219 656 1474 c 1
 628 1394 l 1
 582.286132812 1404 543.190429688 1409 510.713867188 1409 c 128
 441.4453125 1409 420.5703125 1361.17480469 406 1303.5 c 128
 371.0078125 1164.98828125 388.741210938 967.8125 346.5 837 c 0
 323.639648438 766.206054688 284.47265625 730.206054688 229 729 c 1
 305.923828125 727.327148438 352.590820312 654.994140625 369 512 c 0
 382.171875 397.220703125 379.973632812 258.520507812 406 155.5 c 0
 423.768554688 85.1669921875 455.1015625 50 500 50 c 0
 535.555664062 50 578.221679688 54.6669921875 628 64 c 1
 656 -16 l 1
 577.829101562 -66.6669921875 497.495117188 -92 415 -92 c 0
 350.502929688 -92 296.836914062 -54 254 22 c 0
 209.333007812 101.247070312 187 202.9140625 187 327 c 1
 188 410 l 2
 188 491.508789062 180 548.052734375 164 579.631835938 c 0
 132.328125 642.142578125 78.6611328125 674.598632812 3 677 c 1
 3 781 l 1
EndSplineSet
EndChar

StartChar: bar
Encoding: 94 124 93
Width: 437
Flags: HW
LayerCount: 2
Fore
SplineSet
158 1440 m 2
 158 1494.53323639 176.988049737 1550 223 1550 c 0
 261.666666667 1550 281 1513.33333333 281 1440 c 2
 281 8 l 2
 281 -41.6449837785 260.641360379 -88 217.5 -88 c 128
 174.686047526 -88 157 -41.3405593466 157 8 c 2
 158 1440 l 2
EndSplineSet
EndChar

StartChar: braceright
Encoding: 95 125 94
Width: 622
Flags: HW
LayerCount: 2
Fore
SplineSet
435 1131 m 1
 434 1047 l 2
 434 966.158203125 442 909.947265625 458 878.368164062 c 0
 489.671875 815.857421875 543.338867188 783.401367188 619 781 c 1
 619 677 l 1
 510.833007812 673.56640625 450.833007812 616.233398438 439 505 c 0
 435.666992188 473.666992188 434 442 434 410 c 2
 435 327 l 1
 435 202.9140625 412.666992188 101.247070312 368 22 c 0
 325.163085938 -54 271.497070312 -92 207 -92 c 0
 124.504882812 -92 44.1708984375 -66.6669921875 -34 -16 c 1
 -6 64 l 1
 43.7783203125 54.6669921875 83.888671875 50 114.333007812 50 c 128
 180.547851562 50 201.85546875 99.5126953125 216 155.5 c 128
 250.955078125 293.86328125 233.315429688 490.36328125 275.5 621 c 0
 298.360351562 691.793945312 337.52734375 727.793945312 393 729 c 1
 316.076171875 730.672851562 269.409179688 803.005859375 253 946 c 0
 239.807617188 1060.96289062 242.045898438 1200.40136719 216 1303.5 c 0
 198.231445312 1373.83300781 166.8984375 1409 122 1409 c 0
 82.380859375 1409 39.7138671875 1404 -6 1394 c 1
 -34 1474 l 1
 42 1524.66699219 122.333007812 1550 207 1550 c 0
 271.293945312 1550 324.959960938 1512.16699219 368 1436.5 c 0
 412.666992188 1357.97363281 435 1256.13964844 435 1131 c 1
EndSplineSet
EndChar

StartChar: asciitilde
Encoding: 96 126 95
Width: 1021
Flags: HW
LayerCount: 2
Fore
SplineSet
791 1278 m 0
 838.098632812 1278 896.123046875 1324.96191406 919 1329 c 1
 941 1321 l 1
 898.5390625 1238.20117188 831.5390625 1181.36816406 740 1150.5 c 0
 711.333007812 1140.83300781 680.5 1136 647.5 1136 c 128
 572.70703125 1136 502.275390625 1163.02734375 442.5 1184.5 c 128
 388.260742188 1203.984375 312.87890625 1233 248.5 1233 c 128
 202.841796875 1233 187.884765625 1225.60839844 163 1210.5 c 0
 136.513671875 1194.41894531 116.513671875 1185.25195312 103 1183 c 1
 82 1191 l 1
 119.786132812 1273.23925781 179.619140625 1329.90625 261.5 1361 c 0
 287.833007812 1371 317.833007812 1376 351.5 1376 c 128
 428.083984375 1376 504.803710938 1347.70703125 567.5 1327 c 0
 666.407226562 1294.33300781 740.907226562 1278 791 1278 c 0
EndSplineSet
EndChar

StartChar: exclamdown
Encoding: 98 161 97
Width: 517
Flags: HW
LayerCount: 2
Fore
SplineSet
262 -18 m 256
 157.75 -18 118 39.330078125 118 141 c 0
 118 156.666992188 119.666992188 180.333007812 123 212 c 2
 200 879 l 2
 206.0234375 934.217773438 208.37109375 993 260 993 c 128
 312.171875 993 317.006835938 933.947265625 324 879 c 2
 401 212 l 2
 404.333007812 180.333007812 406 156.666992188 406 141 c 0
 406 39.3408203125 366.244140625 -18 262 -18 c 256
239.5 1534 m 128
 344.286132812 1534 412 1489.16113281 412 1385.5 c 128
 412 1304.796875 349.44921875 1249 277.375 1249 c 128
 173.18359375 1249 104 1296.55664062 104 1394 c 0
 104 1471.59863281 164.305664062 1534 239.5 1534 c 128
EndSplineSet
EndChar

StartChar: cent
Encoding: 99 162 98
Width: 1090
Flags: HW
LayerCount: 2
Fore
SplineSet
1067 896 m 0
 1067 817.333007812 995.66015625 781 927 781 c 0
 898.23828125 781 876.571289062 784 862 790 c 1
 859.373046875 945.004882812 805.040039062 1031.671875 699 1050 c 1
 602 214 l 1
 623.333007812 211.333007812 645 210 667 210 c 128
 770.458007812 210 870.331054688 248.319335938 941.833007812 280.87890625 c 128
 978.611328125 297.625976562 1004.33300781 306 1019 306 c 0
 1047 306 1061 293 1061 267 c 0
 1061 252.333007812 1056 238.666992188 1046 226 c 1
 939.723632812 124.666992188 787.389648438 74 589 74 c 2
 586 74 l 1
 553 -210 l 2
 549.737304688 -238.274414062 534.190429688 -260 506.5 -260 c 128
 485.075195312 -260 462 -238.313476562 462 -217 c 128
 462 -206.333007812 462.333007812 -199.666992188 463 -197 c 2
 494 80 l 1
 228.77734375 112.837890625 36 294.447265625 36 583 c 0
 36 741.568359375 91.6669921875 874.735351562 203 982.5 c 0
 312.803710938 1088.78417969 450.803710938 1146.61816406 617 1156 c 1
 646 1407 l 2
 649.29296875 1434.44433594 665.241210938 1456 692.5 1456 c 128
 719.013671875 1456 737 1431.31835938 737 1402 c 128
 737 1384.66699219 728.333007812 1302.33300781 711 1155 c 1
 863.551757812 1141.61816406 970.884765625 1092.45214844 1033 1007.5 c 0
 1055.66699219 976.5 1067 939.333007812 1067 896 c 0
605 1052 m 1
 396.62109375 1034.07519531 243 876.983398438 243 652 c 0
 243 440.849609375 359.811523438 291.340820312 512 236 c 1
 605 1052 l 1
EndSplineSet
EndChar

StartChar: sterling
Encoding: 100 163 99
Width: 1322
Flags: HW
LayerCount: 2
Fore
SplineSet
1217 1232 m 128
 1217 1142.25292969 1166.66894531 1095 1081 1095 c 0
 1051.58789062 1095 1033.40429688 1139.8671875 1020 1165 c 128
 995.798828125 1210.37695312 967.29296875 1259.00683594 929.5 1295 c 0
 880.5 1341.66699219 818.333007812 1365 743 1365 c 0
 577.934570312 1365 479.934570312 1298.83300781 449 1166.5 c 0
 440.333007812 1129.42578125 436 1080.92578125 436 1021 c 2
 438 844 l 1
 822 844 l 2
 895.809570312 844 941.642578125 836.5 959.5 821.5 c 0
 967.833007812 814.5 972 802.833007812 972 786.5 c 128
 972 752.103515625 951.837890625 729.056640625 927 718.5 c 0
 907.391601562 710.166992188 874.391601562 706 828 706 c 2
 422 706 l 1
 422 167 l 2
 422 125.350585938 474.82421875 122 515 122 c 128
 650.701171875 122 793.051757812 128.625976562 920.5 141 c 0
 999.310546875 148.651367188 1045.47753906 156.985351562 1059 166 c 1
 1081.91308594 193.49609375 1098.91992188 244.208007812 1118 279 c 0
 1146.15039062 330.333007812 1179.48339844 356 1218 356 c 0
 1266.59960938 356 1288 320.684570312 1288 269 c 128
 1288 127.532226562 1179.203125 -4 1052 -4 c 2
 311 0 l 2
 208.666992188 0 142.916992188 3.5 113.75 10.5 c 128
 70.4521484375 20.8916015625 29 39.73828125 29 84 c 128
 29 120.178710938 68.744140625 123.315429688 99 132.5 c 0
 148.701171875 147.587890625 179.034179688 169.087890625 190 197 c 1
 198.666992188 236 203 274.333007812 203 312 c 2
 202 708 l 1
 80.6669921875 712.333007812 20 737 20 782 c 0
 20 835.526367188 125.848632812 845.436523438 213 848 c 1
 213 925 l 2
 213 1261.05078125 389.479492188 1471 721 1471 c 0
 907.701171875 1471 1118.35351562 1424.08007812 1193 1309 c 0
 1209 1284.33300781 1217 1258.66699219 1217 1232 c 128
EndSplineSet
EndChar

StartChar: currency
Encoding: 101 164 100
Width: 915
Flags: HW
LayerCount: 2
Fore
SplineSet
102 1173 m 128
 102 1193.13574219 116.185546875 1208 136.5 1208 c 128
 146.833007812 1208 156.666992188 1203.33300781 166 1194 c 2
 338 1022 l 1
 375.555664062 1039.33300781 416.4140625 1048 460.576171875 1048 c 128
 504.737304688 1048 543.545898438 1040.33300781 577 1025 c 1
 746 1194 l 2
 755.333007812 1203.33300781 765 1208 775 1208 c 128
 795.153320312 1208 809 1192.77929688 809 1172.5 c 128
 809 1162.16699219 804.333007812 1152.33300781 795 1143 c 2
 638 986 l 1
 676 950.620117188 695 906.620117188 695 854 c 256
 695 801.379882812 676 757.379882812 638 722 c 1
 797 563 l 1
 804.455649693 554.479721969 808.168717546 543.36816874 808.168717546 532.748489209 c 0
 808.168717546 514.660788055 797.397202042 498 776 498 c 128
 766 498 756.333007812 502.666992188 747 512 c 2
 577 681 l 1
 543 665.666992188 502.711914062 658 456.13671875 658 c 128
 409.560546875 658 368.848632812 665.666992188 334 681 c 1
 165 512 l 2
 155.666992188 502.666992188 146 498 136 498 c 128
 116.129882812 498 101 514.157226562 101 534 c 128
 101 544 105.666992188 553.666992188 115 563 c 2
 274 722 l 1
 239.333007812 756.666992188 222 799.327148438 222 849.982421875 c 128
 222 900.637695312 241 944.310546875 279 981 c 1
 117 1143 l 2
 107 1153 102 1163 102 1173 c 128
320 851 m 128
 320 781.208007812 373.083007812 727 441 727 c 128
 535.9296875 727 596 769.862304688 596 856.736328125 c 128
 596 935.553710938 539.75390625 979 458.5 979 c 128
 377.854492188 979 320 928.717773438 320 851 c 128
EndSplineSet
EndChar

StartChar: yen
Encoding: 102 165 101
Width: 1367
Flags: HW
LayerCount: 2
Fore
SplineSet
1133 363 m 256
 1133 328.645507812 1103.35253906 299 1069 299 c 2
 785 299 l 1
 785 165 l 2
 785 134.829101562 873.908203125 131.876953125 898 125.5 c 0
 924.666992188 118.44140625 938 106.608398438 938 90 c 0
 938 29.3330078125 876.333007812 -1 753 -1 c 1
 676 1 l 257
 602 0 l 1
 476.666992188 0 414 30 414 90 c 0
 414 110.766601562 440.333007812 125.100585938 493 133 c 0
 532.776367188 138.966796875 572 140.649414062 572 165 c 2
 572 299 l 1
 300 299 l 2
 264.790039062 299 236 328.110351562 236 363 c 256
 236 397.379882812 265.647460938 426 300 426 c 2
 572 426 l 1
 572 509 l 1
 300 509 l 2
 264.790039062 509 236 538.110351562 236 573 c 256
 236 607.379882812 265.647460938 636 300 636 c 2
 482 636 l 1
 360.125 798.053710938 245.098632812 956.872070312 121 1117 c 0
 109.198242188 1132.34179688 86.4150390625 1142.17773438 52.6484375 1146.50683594 c 128
 -6.10546875 1154.0390625 -48 1155.97558594 -48 1208 c 0
 -48 1269.33300781 30.6669921875 1300 188 1300 c 2
 248 1300 l 2
 412 1300 494 1262 494 1186 c 0
 494 1158.64257812 427.677734375 1150.7421875 367 1144 c 1
 371.190429688 1141.90527344 392.905273438 1113.88085938 432.142578125 1059.92871094 c 128
 533.575195312 920.458984375 619.977539062 806.747070312 715 671 c 1
 819.25390625 808.668945312 922.744140625 940.329101562 1027 1078 c 1
 1027 1077 l 1
 1040.69726562 1098.16796875 1067.11328125 1120.86523438 1078 1144 c 1
 1034.5 1144 1002.125 1149 980.875 1159 c 128
 959.625 1169 949 1178 949 1186 c 0
 949 1229.08789062 980 1260.42089844 1042 1280 c 0
 1084.22167969 1293.33300781 1120.94433594 1300 1152.16699219 1300 c 128
 1238.78808594 1300 1301.66796875 1296.2265625 1361.5 1268.5 c 0
 1392.5 1254.13378906 1408 1237.12597656 1408 1217.47558594 c 128
 1408 1140.59960938 1296.16992188 1145.33496094 1248 1117 c 1
 878 636 l 1
 1069 636 l 2
 1104.20605469 636 1133 607.909179688 1133 573 c 256
 1133 538.645507812 1103.35253906 509 1069 509 c 2
 785 509 l 1
 785 426 l 1
 1069 426 l 2
 1104.20605469 426 1133 397.909179688 1133 363 c 256
EndSplineSet
EndChar

StartChar: brokenbar
Encoding: 103 166 102
Width: 431
Flags: HW
LayerCount: 2
Fore
SplineSet
155 1440 m 2
 155 1491.32338135 175.64097585 1540 220 1540 c 0
 258.666666667 1540 278 1506.66666667 278 1440 c 2
 278 944 l 2
 278 897.607578857 255.92495191 858 214.5 858 c 128
 173.327029451 858 154 897.841559494 154 944 c 2
 155 1440 l 2
155 560 m 2
 155 611.323381349 175.64097585 660 220 660 c 0
 258.666666667 660 278 626.666666667 278 560 c 2
 278 4 l 2
 278 -42.3924211431 255.92495191 -82 214.5 -82 c 128
 173.327029451 -82 154 -42.1584405061 154 4 c 2
 155 560 l 2
EndSplineSet
EndChar

StartChar: section
Encoding: 104 167 103
Width: 1040
Flags: HW
LayerCount: 2
Fore
SplineSet
778.6875 1063 m 128
 729.903320312 1063 710 1066.78125 710 1111 c 0
 710 1239.66699219 641.666992188 1304 505 1304 c 0
 396.162109375 1304 294 1251.52832031 294 1169 c 0
 294 1123.8984375 328 1086.56542969 396 1057 c 0
 538.505859375 995.041015625 726.961914062 971.462890625 845 885.5 c 0
 913 835.978515625 947 772.145507812 947 694 c 0
 947 592.333007812 892.666992188 514.333007812 784 460 c 1
 879.333007812 407.720703125 927 335.053710938 927 242 c 0
 927 123.333007812 852 42.3330078125 702 -1 c 0
 646.615234375 -17 596.935546875 -25 552.961914062 -25 c 128
 432.02734375 -25 355.993164062 -6.0322265625 273 32.5 c 128
 200.790039062 66.0263671875 124 131.421875 124 214 c 0
 124 250.766601562 142.833007812 278.766601562 180.5 298 c 0
 207.916992188 312 233.1875 319 256.3125 319 c 128
 305.096679688 319 325 315.21875 325 271 c 0
 325 142.333007812 393.333007812 78 530 78 c 0
 638.837890625 78 741 130.471679688 741 213 c 0
 741 258.1015625 707 295.434570312 639 325 c 0
 496.494140625 386.958984375 308.038085938 410.537109375 190 496.5 c 0
 122 546.021484375 88 609.854492188 88 688 c 0
 88 790.875976562 142 868.54296875 250 921 c 1
 155.333007812 972.9140625 108 1045.9140625 108 1140 c 0
 108 1258.66699219 183 1339.66699219 333 1383 c 0
 388.384765625 1399 438.064453125 1407 482.038085938 1407 c 128
 602.97265625 1407 679.006835938 1388.03222656 762 1349.5 c 128
 834.209960938 1315.97363281 911 1250.578125 911 1168 c 0
 911 1131.23339844 892.166992188 1103.23339844 854.5 1084 c 0
 827.083007812 1070 801.8125 1063 778.6875 1063 c 128
612 526 m 1
 694.329101562 538.666015625 749 575.137695312 749 663.5 c 128
 749 725.338867188 694.809570312 761.154296875 647 783.5 c 128
 582.194335938 813.790039062 498.69921875 833.662109375 423 856 c 1
 331.666992188 838.436523438 286 794.76953125 286 725 c 0
 286 652.65234375 354.833007812 597.65234375 492.5 560 c 0
 531.5 549.333007812 571.333007812 538 612 526 c 1
EndSplineSet
EndChar

StartChar: dieresis
Encoding: 105 168 104
Width: 1015
Flags: HW
LayerCount: 2
Fore
SplineSet
806 1366 m 260
 737 1366 687 1423 687 1476 c 260
 687 1530 741 1587 794 1587 c 132
 871 1587 928 1545 928 1476 c 260
 928 1414 869 1366 806 1366 c 260
336 1476 m 260
 336 1420 281 1366 228 1366 c 132
 153 1366 95 1409 95 1476 c 260
 95 1531 151 1587 204 1587 c 132
 280 1587 336 1543 336 1476 c 260
EndSplineSet
EndChar

StartChar: copyright
Encoding: 106 169 105
Width: 1639
Flags: HW
LayerCount: 2
Fore
SplineSet
639 769 m 0
 639 579.82421875 741.423828125 407 922 407 c 0
 964.897460938 407 1004.12109375 414.833007812 1039.67285156 430.5 c 128
 1075.22460938 446.166992188 1100.16699219 457.5 1114.5 464.5 c 128
 1128.83300781 471.5 1140.5 475 1149.5 475 c 128
 1158.5 475 1163 464.5 1163 443.5 c 128
 1163 386.700195312 1107.97460938 335.743164062 1066.5 310 c 0
 1005.27832031 272 935.22265625 253 856.333007812 253 c 128
 696.587890625 253 584.071289062 311.903320312 508 396.5 c 0
 430.666992188 482.5 392 587.666992188 392 712 c 0
 392 835.362304688 430.833007812 939.1953125 508.5 1023.5 c 0
 595.405273438 1117.83300781 713.905273438 1165 864 1165 c 0
 1022.26367188 1165 1176 1069.87207031 1176 917 c 128
 1176 884.25390625 1139.3359375 859 1103 859 c 128
 1013.1328125 859 1001.03027344 970.670898438 966 1026.5 c 0
 941.529296875 1065.5 909.245117188 1085 869.147460938 1085 c 128
 783.288085938 1085 731.43359375 1042.04589844 696.5 987.5 c 0
 658.166992188 927.646484375 639 854.813476562 639 769 c 0
865 1403 m 0
 1067.7421875 1403 1256.71386719 1313.86035156 1372.5 1210.5 c 128
 1487.86132812 1107.51953125 1593 932.374023438 1593 731 c 128
 1593 555.045898438 1552.69335938 440.9609375 1482.5 334 c 128
 1354.88183594 139.534179688 1112.76855469 -16 809 -16 c 0
 516.5546875 -16 277.395507812 135.697265625 154 322 c 0
 82 430.706054688 46 549.706054688 46 679 c 0
 46 978.908203125 233.075195312 1198.40820312 446 1308.5 c 0
 567.846679688 1371.5 707.512695312 1403 865 1403 c 0
191 685 m 0
 191 495.509765625 265.29296875 350.385742188 365.5 252 c 0
 482.290039062 137.333007812 630.45703125 80 810 80 c 0
 993.274414062 80 1144.77441406 139.333007812 1264.5 258 c 0
 1383.5 375.946289062 1443 524.280273438 1443 703 c 0
 1443 875.666992188 1386.16699219 1018.83300781 1272.5 1132.5 c 0
 1158.16699219 1246.83300781 1012.66699219 1304 836 1304 c 0
 650.956054688 1304 496.956054688 1244.66699219 374 1126 c 0
 252 1008.25585938 191 861.255859375 191 685 c 0
EndSplineSet
EndChar

StartChar: ordfeminine
Encoding: 107 170 106
Width: 985
Flags: HW
LayerCount: 2
Fore
SplineSet
482.099609375 1362 m 128
 701.68639881 1362 799 1269.38716091 799 1043 c 2
 799 926 l 1
 797 838 l 1
 797 759.333333333 804 713 818 699 c 0
 840.195529583 676.804470417 939 671.744906191 939 640 c 0
 939 578.666666667 878.333333333 548 757 548 c 0
 715.024739583 548 687.864257812 554.666666667 675.518554688 568 c 0
 656.559570312 588.475260417 645.720052083 620.475260417 643 664 c 1
 583.525390625 578.666666667 491.858723958 536 368 536 c 0
 246.5078125 536 163.0078125 576.666666667 117.5 658 c 0
 101.833333333 686 94 721.666666667 94 765 c 128
 94 985.400282069 344.639092451 982.888665795 534.5 1012.5 c 128
 570.833333333 1018.16666667 602 1027.66666667 628 1041 c 1
 628 1114.37760417 621.833333333 1164.22200521 609.5 1190.53320312 c 0
 584.979166667 1242.84440104 540.479166667 1269 476 1269 c 0
 368.666666667 1269 315 1212.66666667 315 1100 c 1
 316 1075 l 1
 296.666666667 1071 278.833333333 1069 262.5 1069 c 128
 197.984312658 1069 130 1105.32327753 130 1160.89453125 c 128
 130 1275.015908 243.098545043 1319.07856449 334 1343 c 0
 382.133463542 1355.66666667 431.5 1362 482.099609375 1362 c 128
282 777.375 m 128
 282 686.422367866 332.5386124 636 422.5 636 c 128
 510.44646204 636 566.816122496 674.948066181 595 734 c 0
 617 780.095052083 628 852.095052083 628 950 c 1
 502.70557856 908.235192853 282 938.989390791 282 777.375 c 128
EndSplineSet
EndChar

StartChar: guillemotleft
Encoding: 108 171 107
Width: 1197
Flags: HW
LayerCount: 2
Fore
SplineSet
1046.265625 926 m 128
 1079.78125 926 1109 905.686523438 1109 874.5 c 128
 1109 860.833007812 1100.66699219 844.166992188 1084 824.5 c 128
 1020.3359375 749.375976562 923.103515625 676.514648438 841.5 616 c 0
 776.159179688 567.544921875 731.326171875 536.877929688 707 524 c 1
 755.6796875 495.365234375 813.516601562 452.540039062 880.509765625 395.5234375 c 128
 947.502929688 338.5078125 994 297.5 1020 272.5 c 128
 1046 247.5 1067.33300781 224.666992188 1084 204 c 128
 1100.66699219 183.333007812 1109 166 1109 152 c 128
 1109 124.521484375 1081.75878906 100 1054.5 100 c 128
 1040.83300781 100 1023.33300781 104.833007812 1002 114.5 c 128
 914.078125 154.33984375 827.856445312 218.447265625 753 277.5 c 128
 698.16015625 320.762695312 640.288085938 371.03125 594.5 419 c 0
 548.166992188 467.540039062 525 499.840820312 525 515.904296875 c 128
 525 531.967773438 531.333007812 548.666992188 544 566 c 128
 596.5234375 637.874023438 679.607421875 702.119140625 754 757.5 c 128
 809.071289062 798.497070312 872.23046875 841.689453125 930.5 875.5 c 0
 988.521484375 909.166992188 1027.11035156 926 1046.265625 926 c 128
563.265625 926 m 128
 596.78125 926 626 905.686523438 626 874.5 c 128
 626 860.833007812 617.666992188 844.166992188 601 824.5 c 128
 537.198242188 749.213867188 439.313476562 676.670898438 357.5 616 c 0
 292.159179688 567.544921875 247.326171875 536.877929688 223 524 c 1
 270.471679688 497.626953125 328.172851562 455.533203125 396.103515625 397.719726562 c 128
 464.034179688 339.90625 511 298.5 537 273.5 c 128
 563 248.5 584.333007812 225.666992188 601 205 c 128
 617.666992188 184.333007812 626 166.833007812 626 152.5 c 128
 626 124.602539062 599.034179688 100 571.5 100 c 128
 557.833007812 100 540.333007812 104.833007812 519 114.5 c 128
 431.078125 154.33984375 344.856445312 218.447265625 270 277.5 c 128
 215.16015625 320.762695312 157.288085938 371.03125 111.5 419 c 0
 65.1669921875 467.540039062 42 499.840820312 42 515.904296875 c 128
 42 531.967773438 48.3330078125 548.666992188 61 566 c 128
 113.5234375 637.874023438 196.607421875 702.119140625 271 757.5 c 128
 326.071289062 798.497070312 389.23046875 841.689453125 447.5 875.5 c 0
 505.521484375 909.166992188 544.110351562 926 563.265625 926 c 128
EndSplineSet
EndChar

StartChar: logicalnot
Encoding: 109 172 108
Width: 1182
Flags: HW
LayerCount: 2
Fore
SplineSet
47 611.166992188 m 128
 47 710.939453125 87.8095703125 724 196 724 c 2
 955 724 l 2
 1029 724 1066 700 1066 652 c 2
 1060 350 l 1
 1056.78808594 260.067382812 1036.29394531 216 957 216 c 0
 904.6328125 216 861 232.791015625 861 282 c 1
 864 418 l 2
 865.333007812 460.666992188 866 502.333007812 866 543 c 1
 179 543 l 2
 102.432617188 543 47 550.573242188 47 611.166992188 c 128
EndSplineSet
EndChar

StartChar: uni00AD
Encoding: 110 173 109
Width: 1203
Flags: HW
LayerCount: 2
Fore
SplineSet
1117 437 m 128
 1117 355.28515625 1070.70410156 342 981 342 c 2
 225 342 l 2
 147.350585938 342 99 357.939453125 99 419.400390625 c 128
 99 512.735351562 148.35546875 522 247 522 c 2
 987 522 l 2
 1068.23242188 522 1117 506.68359375 1117 437 c 128
EndSplineSet
EndChar

StartChar: registered
Encoding: 111 174 110
Width: 1639
Flags: HW
LayerCount: 2
Fore
SplineSet
513 1004 m 2
 513 1035.03320312 418 1019.79003906 418 1052.5 c 128
 418 1075.5078125 449.545898438 1085.47167969 474 1090 c 0
 502.799804688 1095.33300781 553.466796875 1098 626 1098 c 2
 721 1098 l 2
 839.153320312 1098 921.358398438 1091.16699219 967.615234375 1077.5 c 128
 1069.88378906 1047.28417969 1146 999.80859375 1146 887 c 0
 1146 804.250976562 1103.5 741.91796875 1018.5 700 c 0
 994.166992188 688 968.666992188 679 942 673 c 1
 971 634 l 1
 1036.18457031 524 1092.8515625 447.333007812 1141 404 c 1
 1171.30273438 387.333007812 1207.63574219 379 1250 379 c 1
 1256 373 1259 365.666992188 1259 357 c 0
 1259 328.333007812 1223.66699219 314 1153 314 c 0
 1075.16699219 314 1018.16699219 324.333007812 982 345 c 1
 894.416992188 429.845703125 845.245117188 559.770507812 790 665 c 1
 683 665 l 1
 683 418 l 2
 683 381.986328125 777 404.106445312 777 368 c 128
 777 344.563476562 752.262695312 334.052734375 729.5 329.5 c 0
 711.166992188 325.833007812 678.5 324 631.5 324 c 128
 606.853515625 324 576.732421875 322.615234375 546.973632812 322.615234375 c 0
 481.611328125 322.615234375 418 329.294921875 418 372 c 0
 418 400.693359375 513 385.250976562 513 418 c 2
 513 1004 l 2
865 1403 m 0
 1067.7421875 1403 1256.71386719 1313.86035156 1372.5 1210.5 c 128
 1487.86132812 1107.51953125 1593 932.374023438 1593 731 c 128
 1593 555.045898438 1552.69335938 440.9609375 1482.5 334 c 128
 1354.88183594 139.534179688 1112.76855469 -16 809 -16 c 0
 516.5546875 -16 277.395507812 135.697265625 154 322 c 0
 82 430.706054688 46 549.706054688 46 679 c 0
 46 978.908203125 233.075195312 1198.40820312 446 1308.5 c 0
 567.846679688 1371.5 707.512695312 1403 865 1403 c 0
191 685 m 0
 191 495.509765625 265.29296875 350.385742188 365.5 252 c 0
 482.290039062 137.333007812 630.45703125 80 810 80 c 0
 993.274414062 80 1144.77441406 139.333007812 1264.5 258 c 0
 1383.5 375.946289062 1443 524.280273438 1443 703 c 0
 1443 875.666992188 1386.16699219 1018.83300781 1272.5 1132.5 c 0
 1158.16699219 1246.83300781 1012.66699219 1304 836 1304 c 0
 650.956054688 1304 496.956054688 1244.66699219 374 1126 c 0
 252 1008.25585938 191 861.255859375 191 685 c 0
776 741 m 2
 884.766601562 741 964 782.612304688 964 887 c 0
 964 977 895.666992188 1022 759 1022 c 0
 698.9140625 1022 685.568359375 1006.92675781 683 953 c 1
 683 741 l 1
 776 741 l 2
EndSplineSet
EndChar

StartChar: macron
Encoding: 112 175 111
Width: 841
Flags: HW
LayerCount: 2
Fore
SplineSet
110 307 m 4
 110 347.377929688 149.225585938 373 195 373 c 6
 669 373 l 6
 712.310546875 373 749 351.803710938 749 313 c 4
 749 272.6796875 708.663085938 247 663 247 c 6
 189 247 l 6
 145.587890625 247 110 268.145507812 110 307 c 4
EndSplineSet
EndChar

StartChar: degree
Encoding: 113 176 112
Width: 705
Flags: HW
LayerCount: 2
Fore
SplineSet
233 1256.5 m 128
 233 1190.31133575 280.52340021 1151 349.5 1151 c 128
 418.824334896 1151 467 1195.37084474 467 1262 c 128
 467 1328.3747672 419.791937178 1365 351 1365 c 128
 282.453554067 1365 233 1322.43068424 233 1256.5 c 128
356 1453 m 0
 499.181005905 1453 595 1397.95421996 595 1263.5 c 128
 595 1126.61013106 483.337549683 1063 349 1063 c 0
 241.296223958 1063 167.629557292 1098.66666667 128 1170 c 0
 114.666666667 1194 108 1222.5 108 1255.5 c 128
 108 1390.75813918 222.95166155 1453 356 1453 c 0
EndSplineSet
EndChar

StartChar: plusminus
Encoding: 114 177 113
Width: 870
Flags: HW
LayerCount: 2
Fore
SplineSet
116 105 m 128
 116 160.768554688 151.334960938 167 214 167 c 2
 691 167 l 2
 747 167 775 151 775 119 c 0
 775 56.6572265625 734.653320312 51 671 51 c 2
 203 51 l 2
 141.553710938 51 116 59.0830078125 116 105 c 128
512 321 m 2
 512 263.447265625 493.96484375 233 435 233 c 256
 381 233 354 263.666992188 354 325 c 2
 354 551 l 1
 134 551 l 2
 64.6904296875 551 46 567.822265625 46 631 c 0
 46 672.333007812 76.6669921875 693 138 693 c 2
 354 693 l 1
 354 920 l 2
 354 980.666992188 378 1011 426 1011 c 0
 490.736328125 1011 512 981.908203125 512 917 c 2
 512 693 l 1
 729 693 l 2
 795.411132812 693 820 677.831054688 820 615.5 c 128
 820 563.393554688 782.87890625 551 726 551 c 2
 512 551 l 1
 512 321 l 2
EndSplineSet
EndChar

StartChar: twosuperior
Encoding: 115 178 114
Width: 774
Flags: HW
LayerCount: 2
Fore
SplineSet
419.6953125 951 m 128
 565.581054688 951 658 860.921875 658 720 c 256
 658 562.549804688 511 362.549804688 217 120 c 1
 485 120 l 2
 523.551757812 120 564.28515625 174.423828125 576 233 c 1
 585 242 l 1
 639.985351562 242 686 201.956054688 686 136.5 c 128
 686 68.775390625 648.72265625 1 588 1 c 2
 148 1 l 2
 94.787109375 1 52 33.55078125 52 88 c 0
 52 99.3330078125 63 117 85 141 c 128
 175.7734375 240.025390625 295.35546875 347.321289062 383 456 c 0
 460.333007812 551.893554688 499 632.893554688 499 699 c 256
 499 769.3671875 459.625976562 819 391.5 819 c 128
 300.150390625 819 234.3046875 777.524414062 175 745.5 c 128
 158.333007812 736.5 146.5 732 139.5 732 c 128
 108.118164062 732 80 744.869140625 80 773.676757812 c 128
 80 812.939453125 119.810546875 843.1875 148.5 862 c 128
 209.842773438 902.224609375 332.270507812 951 419.6953125 951 c 128
EndSplineSet
EndChar

StartChar: threesuperior
Encoding: 116 179 115
Width: 809
Flags: HW
LayerCount: 2
Fore
SplineSet
492 752 m 0
 492 812.592773438 437.279296875 843 357.5 843 c 128
 279.33984375 843 188.299804688 781.37109375 142 737 c 1
 123 730 l 1
 98.759765625 730 75 751.3984375 75 776 c 1
 78 792 l 1
 78 794 l 1
 140.236328125 886.201171875 257.249023438 952 413 952 c 256
 522.772460938 952 598.10546875 915 639 841 c 0
 653 815.666992188 660 785.333007812 660 750 c 0
 660 677.161132812 610.666992188 615.161132812 512 564 c 1
 615.862304688 538.034179688 685.028320312 482.701171875 719.5 398 c 0
 731.166992188 369.333007812 737 333.5 737 290.5 c 128
 737 192.990234375 685.512695312 113.025390625 627.5 66.5 c 0
 559.750976562 12.1669921875 474.91796875 -15 373 -15 c 0
 318.723632812 -15 266.155273438 -5.1669921875 215.29296875 14.5 c 128
 136.94921875 44.79296875 41 80.705078125 41 152 c 0
 41 178 56.3330078125 191 87 191 c 0
 94.3330078125 191 106.166992188 185.833007812 122.5 175.5 c 128
 138.833007812 165.166992188 159 154 183 142 c 0
 248.333007812 109.333007812 311 93 371 93 c 0
 475.120117188 93 570 182.421875 570 287 c 0
 570 378.459960938 530.333007812 438.125976562 451 466 c 0
 426.333007812 474.666992188 404.166992188 479 384.5 479 c 128
 331.947265625 479 296.600585938 452 255.818359375 452 c 128
 228.959960938 452 212 478.729492188 212 504 c 1
 226 531 l 1
 297.676757812 568.396484375 387.477539062 594.083007812 443.5 647.5 c 0
 475.833007812 678.329101562 492 713.163085938 492 752 c 0
EndSplineSet
EndChar

StartChar: acute
Encoding: 117 180 116
Width: 527
Flags: HW
LayerCount: 2
Fore
SplineSet
363 1704 m 128
 439.913085938 1704 496 1666.140625 496 1597 c 0
 496 1563.10644531 441.666992188 1475.77246094 333 1335 c 0
 269.8203125 1253.15332031 221.692382812 1195.69238281 188.615234375 1162.61523438 c 128
 155.538085938 1129.53808594 134 1110.66699219 124 1106 c 1
 110 1120 l 1
 110 1125 l 2
 110 1155.79980469 127 1226.16699219 161 1336.09960938 c 128
 212.180664062 1501.58496094 212.8125 1511.54589844 247 1611 c 128
 260.309570312 1649.71777344 311.774414062 1704 363 1704 c 128
EndSplineSet
EndChar

StartChar: mu
Encoding: 118 181 117
Width: 1287
Flags: HW
LayerCount: 2
Fore
SplineSet
925 149 m 1
 850.719726562 40.955078125 727.7578125 -27 555 -27 c 0
 469.602539062 -27 399.935546875 -5 346 39 c 1
 354.838867188 -70.5986328125 359.71484375 -152.165039062 360.62890625 -205.69921875 c 128
 360.703819667 -210.087970105 360.744653809 -214.412725262 360.744653809 -218.667860397 c 0
 360.744653809 -294.344190025 347.828987009 -348 284 -348 c 128
 180.866210938 -348 178 -298.1953125 178 -174.666992188 c 128
 178 -2.716796875 193 216.80078125 193 406 c 2
 193 749 l 2
 193 799.037109375 169.333007812 825.370117188 122 828 c 0
 79.271484375 830.373046875 51 830.102539062 51 862 c 0
 51 934.650390625 158.568359375 964 236.5 964 c 128
 353.181640625 964 386 952.243164062 386 838 c 2
 386 433 l 2
 386 329.833007812 396.333007812 258.875 417 220.125 c 128
 459.430664062 140.56640625 512.801757812 109 636 109 c 128
 796.20703125 109 892.827148438 171.956054688 907 312.5 c 128
 911 352.166992188 913 393.666992188 913 437 c 2
 912 749 l 2
 912 797.46875 888.166992188 823.635742188 840.5 827.5 c 0
 796.703125 831.05078125 770 828.975585938 770 861 c 0
 770 934.862304688 875.922851562 964 955 964 c 128
 1072.06933594 964 1105 952.474609375 1105 838 c 2
 1106 198 l 2
 1106 151.946289062 1130.16699219 127.612304688 1178.5 125 c 0
 1225.86816406 122.440429688 1251 124.185546875 1251 86 c 128
 1251 49.119140625 1215.05078125 25.021484375 1185 12.5 c 0
 1147.39941406 -3.1669921875 1106.33300781 -11 1061.79980469 -11 c 128
 935.5703125 -11 925 17.1328125 925 149 c 1
EndSplineSet
EndChar

StartChar: paragraph
Encoding: 119 182 118
Width: 1025
Flags: HW
LayerCount: 2
Fore
SplineSet
577 66 m 2
 577 20.9970703125 539.047851562 -21 497.5 -21 c 128
 442.856445312 -21 396 -1.97265625 396 46 c 2
 395 739 l 1
 291.649414062 740.565429688 203.149414062 763.065429688 129.5 806.5 c 0
 40.5 858.987304688 -4 935.487304688 -4 1036 c 0
 -4 1345.87304688 259.369140625 1402 595 1402 c 2
 669.5 1402 l 2
 816.813476562 1402 912.813476562 1375.5 957.5 1322.5 c 0
 971.833007812 1305.5 979 1287.66699219 979 1269 c 128
 979 1183.87597656 858 1214.98632812 858 1131 c 2
 859 61 l 2
 859 37.3583984375 852 19.615234375 838 7.76953125 c 0
 814.545898438 -12.0771484375 794.348632812 -22 777.409179688 -22 c 128
 723.270507812 -22 675 -3.0146484375 675 46 c 2
 675 1290 l 1
 576 1290 l 1
 577 66 l 2
EndSplineSet
EndChar

StartChar: periodcentered
Encoding: 120 183 119
Width: 486
Flags: HW
LayerCount: 2
Fore
SplineSet
232.903320312 896 m 128
 306.197265625 896 385 850.509765625 385 791.424804688 c 128
 385 722.671875 344.838867188 688.78515625 294 671.5 c 128
 277.333007812 665.833007812 261.166992188 663 245.5 663 c 128
 172.776367188 663 104 709.907226562 104 775 c 256
 104 809.389648438 119.833007812 838.556640625 151.5 862.5 c 0
 181.038085938 884.833007812 208.171875 896 232.903320312 896 c 128
EndSplineSet
EndChar

StartChar: cedilla
Encoding: 121 184 120
Width: 593
Flags: HW
LayerCount: 2
Fore
SplineSet
329 -306 m 128
 329 -248.44921875 237.463867188 -234 181 -234 c 1
 200.940429688 -177.696289062 221.607421875 -111.696289062 243 -36 c 1
 261 17 l 1
 373 13 l 1
 373 12 l 1
 325 -128 l 1
 326 -131 l 1
 326 -128 l 1
 456.419921875 -141.375976562 558 -177.608398438 558 -291 c 256
 558 -407.2734375 439.943359375 -465 312 -465 c 0
 245.223632812 -465 130.134765625 -435.139648438 88.5 -415.5 c 0
 48.1669921875 -396.474609375 28 -375.307617188 28 -352 c 0
 28 -326.462890625 50.205078125 -307 73.5 -307 c 0
 87.0712890625 -307 101.71484375 -310.5 117.428710938 -317.5 c 0
 134.639648438 -325.166992188 144.830078125 -329 148 -329 c 1
 190 -347 222.666992188 -356 246 -356 c 128
 283.853515625 -356 329 -340.459960938 329 -306 c 128
EndSplineSet
EndChar

StartChar: onesuperior
Encoding: 122 185 121
Width: 531
Flags: HW
LayerCount: 2
Fore
SplineSet
359 124 m 1
 386.546102934 108.696609481 456 105.1901509 456 70 c 0
 456 23.3333333333 412.333333333 0 325 0 c 2
 233 0 l 2
 141.666666667 0 96 23.3333333333 96 70 c 0
 96 88.2350260417 121 103.235026042 171 115 c 0
 182.333333333 117.666666667 191 120.666666667 197 124 c 1
 197 772 l 1
 172.552359934 782.477560028 96 796.30994389 96 820 c 0
 96 852.901692708 124 879.235026042 180 899 c 0
 223.444661458 914.333333333 258.138997396 922 284.083007812 922 c 128
 345.978546671 922 359 908.153994876 359 851 c 2
 359 124 l 1
EndSplineSet
EndChar

StartChar: ordmasculine
Encoding: 123 186 122
Width: 1040
Flags: HW
LayerCount: 2
Fore
SplineSet
958 950 m 0
 958 697.05078125 756.038085938 528 499.5 528 c 0
 247.427734375 528 83 709.233398438 83 947 c 0
 83 1193.45605469 284.62890625 1358 538 1358 c 0
 779.393554688 1358 958 1191.39453125 958 950 c 0
505 1256 m 0
 349.588867188 1256 265 1126.60253906 265 965.5 c 0
 265 787.5 371.163085938 634 535 634 c 0
 691.750976562 634 782 759.892578125 782 921 c 0
 782 1100.53515625 677.41015625 1256 505 1256 c 0
EndSplineSet
EndChar

StartChar: guillemotright
Encoding: 124 187 123
Width: 1192
Flags: HW
LayerCount: 2
Fore
SplineSet
634.530273438 100 m 128
 600.584960938 100 572 120.534179688 572 152.5 c 128
 572 166.833007812 580.333007812 184.333007812 597 205 c 128
 660.52734375 283.7734375 756.98828125 362.212890625 839 426 c 0
 898.555664062 472.321289062 943.888671875 504.987304688 975 524 c 1
 935.706054688 544.802734375 880.048828125 583.336914062 808.029296875 639.602539062 c 128
 736.009765625 695.8671875 687 735.833007812 661 759.5 c 0
 601.666992188 813.508789062 572 849.59375 572 867.756835938 c 128
 572 900.403320312 595.831054688 926 626.5 926 c 128
 670.32421875 926 713.287109375 897.092773438 750.5 875.5 c 128
 869.284179688 806.576171875 992.494140625 717.505859375 1086.5 623.5 c 0
 1132.83300781 577.166992188 1156 546.166992188 1156 530.5 c 128
 1156 514.833007812 1149.66699219 497.833007812 1137 479.5 c 128
 1085.04296875 404.298828125 1002.21191406 336.044921875 928 277.5 c 128
 872.989257812 234.102539062 810.178710938 188.997070312 751.5 153.5 c 0
 692.541015625 117.833007812 653.55078125 100 634.530273438 100 c 128
151.530273438 100 m 128
 117.879882812 100 89 120.469726562 89 152 c 128
 89 166 97.3330078125 183.333007812 114 204 c 128
 177.59375 282.856445312 273.756835938 360.70703125 355.5 425 c 0
 417.049804688 473.41015625 462.216796875 506.41015625 491 524 c 1
 449.174804688 546.142578125 393.051757812 585.01171875 322.630859375 640.607421875 c 128
 252.209960938 696.202148438 204 735.833007812 178 759.5 c 0
 118.666992188 813.508789062 89 849.59375 89 867.756835938 c 128
 89 900.403320312 112.831054688 926 143.5 926 c 128
 187.32421875 926 230.287109375 897.092773438 267.5 875.5 c 128
 386.284179688 806.576171875 509.494140625 717.505859375 603.5 623.5 c 0
 649.833007812 577.166992188 673 546.166992188 673 530.5 c 128
 673 514.833007812 666.666992188 497.833007812 654 479.5 c 128
 602.04296875 404.298828125 519.211914062 336.044921875 445 277.5 c 128
 389.989257812 234.102539062 327.178710938 188.997070312 268.5 153.5 c 0
 209.541015625 117.833007812 170.55078125 100 151.530273438 100 c 128
EndSplineSet
EndChar

StartChar: AE
Encoding: 135 198 134
Width: 2308
Flags: HW
LayerCount: 2
Fore
SplineSet
2179.94238281 356 m 0
 2231.78808594 356 2257.7109375 324.296875 2257.7109375 260.891601562 c 128
 2257.7109375 197.486328125 2230.51660156 137.486328125 2176.12695312 80.8916015625 c 128
 2121.73730469 24.296875 2058.93164062 -4 1987.7109375 -4 c 2
 1226.7109375 0 l 2
 1132.04394531 0 1071.37792969 3.3330078125 1044.7109375 10 c 0
 994.043945312 22.6669921875 968.7109375 49.3330078125 968.7109375 90 c 0
 968.7109375 110.313476562 981.7109375 123.147460938 1007.7109375 128.5 c 0
 1019.04394531 130.833007812 1031.04394531 132.666992188 1043.7109375 134 c 0
 1093.7109375 139.262695312 1118.7109375 166.262695312 1118.7109375 215 c 2
 1118.7109375 470 l 1
 534.629882812 470 l 1
 394.852539062 283.436523438 321.774414062 181.461914062 315.396484375 164.077148438 c 128
 309.018554688 146.692382812 309.673828125 136.666992188 317.362304688 134 c 1
 316.729492188 135 l 1
 327.435546875 126.56640625 342.35546875 120.125 361.489257812 115.674804688 c 128
 380.623046875 111.224609375 392.701171875 107.666992188 397.72265625 105 c 128
 402.745117188 102.333007812 403.788085938 97 400.853515625 89 c 0
 379.0859375 29.6669921875 293.202148438 0 143.202148438 0 c 0
 37.0673828125 0 -16 21.501953125 -16 64.5068359375 c 0
 -16 72.015625 -14.142578125 80.83203125 -10.4287109375 90.9560546875 c 128
 -6.71484375 101.080078125 9.27734375 109.797851562 37.546875 117.108398438 c 128
 65.81640625 124.419921875 92.7353515625 134.315429688 118.3046875 146.795898438 c 128
 143.873046875 159.276367188 171.198242188 184.010742188 200.279296875 221 c 1
 993.79296875 1280 l 1
 994.219726562 1299.33300781 996.633789062 1315 1001.03613281 1327 c 0
 1019.86914062 1378.33300781 1081.61816406 1404 1186.28515625 1404 c 2
 2059.7109375 1404 l 2
 2112.99804688 1404 2154.48632812 1383.5 2184.17675781 1342.5 c 128
 2213.86621094 1301.5 2228.7109375 1253.33300781 2228.7109375 1198 c 0
 2228.7109375 1099.33300781 2194.37792969 1050 2125.7109375 1050 c 0
 2081 1050 2050.98925781 1064.35449219 2035.67773438 1093.0625 c 128
 2020.36621094 1121.77050781 2012.7109375 1161.08300781 2012.7109375 1211 c 2
 2012.7109375 1262 l 1
 2013.7109375 1286 l 1
 1337.7109375 1286 l 1
 1337.7109375 787 l 1
 1766.7109375 787 l 1
 1772.77148438 793.060546875 1783.62011719 811.076171875 1799.25683594 841.045898438 c 128
 1814.89257812 871.015625 1826.7109375 891.833007812 1834.7109375 903.5 c 128
 1842.7109375 915.166992188 1850.37792969 921 1857.7109375 921 c 0
 1933.04394531 921 1970.7109375 857 1970.7109375 729 c 0
 1970.7109375 644.333007812 1953.37792969 584.666992188 1918.7109375 550 c 0
 1904.04394531 535.333007812 1888.87792969 528 1873.2109375 528 c 128
 1857.54394531 528 1844.72070312 533.239257812 1834.74023438 543.71875 c 128
 1824.75976562 554.198242188 1808.75 584.625976562 1786.7109375 635 c 1
 1785.7109375 636 l 2
 1785.7109375 636.666992188 1779.04394531 648.666992188 1765.7109375 672 c 1
 1337.7109375 672 l 1
 1337.7109375 131 l 1
 1976.7109375 131 l 1
 1987.72851562 142.017578125 2007.21289062 170.06640625 2035.16308594 215.147460938 c 128
 2063.11328125 260.228515625 2088.10253906 294.974609375 2110.13183594 319.384765625 c 128
 2132.16015625 343.794921875 2155.43066406 356 2179.94238281 356 c 0
1120.6953125 1244.08203125 m 1
 1120.79296875 1280 l 1
 608.849609375 566 l 1
 1118.7109375 566 l 1
 1118.7109375 1190 l 2
 1118.7109375 1209.33789062 1119.37207031 1227.36523438 1120.6953125 1244.08203125 c 1
EndSplineSet
EndChar

StartChar: multiply
Encoding: 152 215 151
Width: 716
Flags: HW
LayerCount: 2
Fore
SplineSet
654 407 m 128
 654 361.731445312 612.848632812 323 573.826171875 323 c 128
 553.942382812 323 532.333007812 334.666992188 509 358 c 2
 349 519 l 1
 191 361 l 2
 165 335 146 322 134 322 c 128
 95.3271484375 322 55 362.354492188 55 392.5 c 0
 55 414.166992188 67.6669921875 437.666992188 93 463 c 2
 249 620 l 1
 88 780 l 2
 63.3330078125 803.125 51 822.573242188 51 838.34375 c 128
 51 884.833984375 92.1845703125 922 131.857421875 922 c 128
 149.286132812 922 170.666992188 909.333007812 196 884 c 2
 355 725 l 1
 511 882 l 2
 537 908 557.166992188 921 571.5 921 c 128
 612.180664062 921 650 879.907226562 650 848.237304688 c 0
 650 829.412109375 636.333007812 806.333007812 609 779 c 2
 455 624 l 1
 618 462 l 2
 642 438 654 419.666992188 654 407 c 128
EndSplineSet
EndChar

StartChar: Oslash
Encoding: 153 216 152
Width: 1762
Flags: HW
LayerCount: 2
Fore
SplineSet
487 -179 m 128
 451.47265625 -179 420 -159.203125 420 -125 c 128
 420 -109 423.333007812 -94.3330078125 430 -81 c 2
 1189 1516 l 2
 1200.10058594 1540.66699219 1216.875 1553 1239.32519531 1553 c 0
 1288.44140625 1553 1313 1533 1313 1493 c 0
 1313 1486.33300781 1311.33300781 1477.33300781 1308 1466 c 1
 536 -139 l 2
 522.666992188 -165.666992188 506.333007812 -179 487 -179 c 128
1488 672 m 0
 1488 928.428710938 1360.8203125 1107.4765625 1196.5 1204 c 0
 1095.4921875 1263.33300781 978.659179688 1293 846 1293 c 0
 663.513671875 1293 517.346679688 1235.16699219 407.5 1119.5 c 0
 305.166992188 1011.74511719 254 876.578125 254 714 c 0
 254 550.838867188 310.333007812 410.838867188 423 294 c 0
 541.286132812 171.333007812 693.619140625 110 880 110 c 0
 1056.97070312 110 1203.80371094 166.166992188 1320.5 278.5 c 0
 1432.16699219 385.9921875 1488 517.159179688 1488 672 c 0
1601.5 354 m 128
 1467.35253906 134.252929688 1219.73339844 -25 869 -25 c 128
 618.727539062 -25 425.698242188 47.1240234375 282.5 158.5 c 128
 231.5 198.166992188 187.666992188 243.166992188 151 293.5 c 0
 73.6669921875 399.657226562 35 514.280273438 35 637.368164062 c 128
 35 896.797851562 133.302734375 1075.12207031 274 1202 c 0
 432.204101562 1344.66699219 632.87109375 1416 876 1416 c 0
 1250.95703125 1416 1576.23339844 1239.19140625 1678.5 947 c 0
 1699.5 887 1710 821.166992188 1710 749.5 c 128
 1710 591.608398438 1664.71191406 457.547851562 1601.5 354 c 128
EndSplineSet
EndChar

StartChar: Thorn
Encoding: 159 222 158
Width: 1338
Flags: HW
LayerCount: 2
Fore
SplineSet
466 1154 m 1
 568 1154 l 2
 800.044921875 1154 894.909179688 1150.21289062 1046.5 1108.5 c 128
 1096.16699219 1094.83300781 1139.83300781 1075.66699219 1177.5 1051 c 0
 1259.83300781 997.083007812 1301 920.749023438 1301 822 c 0
 1301 651.754882812 1202.5 537.254882812 1005.5 478.5 c 0
 883.676757812 442.166992188 724.842773438 424 529 424 c 2
 466 424 l 1
 466 172 l 2
 466 151.135742188 493.666992188 136.302734375 549 127.5 c 128
 604.333007812 118.697265625 632 106.197265625 632 90 c 0
 632 49.0322265625 606.833007812 23.0322265625 556.5 12 c 0
 523.041992188 4.6669921875 455.208007812 1 353 1 c 256
 250.791992188 1 185.239257812 4.1669921875 156.34375 10.5 c 128
 114.458007812 19.6806640625 73 38.146484375 73 79.5 c 128
 73 132.116210938 155.6875 124.969726562 196.5 136 c 0
 225.5 143.837890625 240 155.837890625 240 172 c 2
 240 1232 l 2
 240 1251.93847656 212.166992188 1266.43847656 156.5 1275.5 c 128
 100.833007812 1284.56152344 73 1297.39550781 73 1314 c 0
 73 1354.82128906 98.5 1380.82128906 149.5 1392 c 0
 182.958007812 1399.33300781 250.791992188 1403 353 1403 c 256
 455.208007812 1403 520.760742188 1399.83300781 549.65625 1393.5 c 128
 591.706054688 1384.28320312 632 1365.9765625 632 1324.5 c 128
 632 1272.52539062 549.015625 1279.11523438 509 1268 c 0
 480.333007812 1260.03710938 466 1248.03710938 466 1232 c 2
 466 1154 l 1
466 543 m 1
 488 541 511.666992188 540 537 540 c 2
 586 540 l 2
 819.520507812 540 969.854492188 585.5 1037 676.5 c 0
 1062.33300781 710.833007812 1075 753.166992188 1075 803.5 c 128
 1075 909.265625 1013.60351562 962.8828125 935.5 993.5 c 0
 864.921875 1021.16699219 764.421875 1035 634 1035 c 2
 552.5 1035 l 2
 500.833007812 1035 472 1031 466 1023 c 1
 466 543 l 1
EndSplineSet
EndChar

StartChar: germandbls
Encoding: 160 223 159
Width: 1180
Flags: HW
LayerCount: 2
Fore
SplineSet
942 296.5 m 128
 942 548.984375 774.220703125 717 537 717 c 0
 517 717 507 730.333007812 507 757 c 0
 507 797.780273438 529.329101562 816.833984375 570.5 827 c 128
 664.87890625 850.303710938 780 930.051757812 780 1034.75 c 128
 780 1188.15917969 703.254882812 1305 561 1305 c 0
 505.192382812 1305 465.358398438 1287.83300781 441.5 1253.5 c 0
 414.5 1214.64648438 401 1143.81347656 401 1041 c 2
 401 90 l 2
 401 11.0322265625 372.698242188 -1.67578125 299.043945312 -1.67578125 c 0
 282.112304688 -1.67578125 262.784179688 -1.00390625 240.8515625 -0.3115234375 c 128
 126.282226562 3.306640625 32 1.6689453125 32 90 c 0
 32 137.728515625 106.543945312 127.416015625 143 143.5 c 0
 169 154.970703125 182 178.803710938 182 215 c 2
 182 950 l 2
 182 1259.57128906 270.033203125 1404 567 1404 c 0
 761.720703125 1404 953 1279.28222656 953 1091 c 0
 953 1019.2578125 939.666992188 965.322265625 913 929.193359375 c 0
 861.133789062 858.922851562 774.133789062 806.858398438 652 773 c 1
 913.405273438 755.717773438 1143 621.803710938 1143 360 c 0
 1143 132.928710938 1006.49023438 -27 781 -27 c 0
 633.78125 -27 475 50.458984375 475 188 c 0
 475 258.836914062 527.37890625 292 587 292 c 128
 651.090820312 292 697 238.140625 697 174.833007812 c 128
 697 143.388671875 695.333007812 110.444335938 692 76 c 1
 719.227539062 64.5361328125 744.649414062 58.8037109375 768.264648438 58.8037109375 c 0
 819.263671875 58.8037109375 861.842773438 85.5361328125 896 139 c 0
 926.666992188 187 942 239.5 942 296.5 c 128
EndSplineSet
EndChar

StartChar: ae
Encoding: 167 230 166
Width: 1689
Flags: HW
LayerCount: 2
Fore
SplineSet
378 -24 m 128
 201.438476562 -24 62 74.2666015625 62 242 c 0
 62 355.09375 120.5 434.926757812 237.5 481.5 c 0
 300.010742188 506.3828125 361.888671875 522.853515625 423.1328125 530.912109375 c 128
 526.419921875 544.502929688 667.579101562 554.127929688 721 582 c 1
 721 677.225585938 713.5 741.865234375 698.5 775.918945312 c 128
 669.950195312 840.735351562 622.647460938 879.508789062 531.921875 879.508789062 c 0
 531.118164062 879.508789062 530.310546875 879.505859375 529.5 879.5 c 128
 380.172851562 878.376953125 316 812.45703125 316 661 c 1
 317 639 l 1
 292 635.666992188 271.916992188 634 256.75 634 c 128
 185.592773438 634 107 675.52734375 107 737.166992188 c 128
 107 872.409179688 243.795898438 923.368164062 351 952.5 c 0
 408.653320312 968.166992188 471.733398438 976 540.240234375 976 c 0
 695.946289062 976 800.200195312 925 853 823 c 1
 949.333007812 925 1071.33300781 976 1219 976 c 0
 1444.85351562 976 1625 811.630859375 1625 588 c 0
 1625 524.788085938 1572.04980469 507 1497 507 c 2
 918 507 l 1
 920.646484375 295.262695312 1070.70800781 123 1283 123 c 0
 1351.53808594 123 1418.87109375 143.5 1485 184.5 c 0
 1518.87109375 205.5 1540.20410156 216 1549 216 c 256
 1569.25292969 216 1603 196.090820312 1603 166.5 c 128
 1603 162.833007812 1598.83300781 153.166992188 1590.5 137.5 c 128
 1567.46191406 94.189453125 1495.85742188 45.93359375 1444.5 22 c 0
 1374.40332031 -10.6669921875 1298.29492188 -27 1216.17675781 -27 c 128
 1035.81347656 -27 893.802734375 59.9599609375 815 171 c 1
 724.397460938 44.15625 581.685546875 -24 378 -24 c 128
475 80 m 0
 570.943359375 80 642.275390625 131.65234375 676 198.5 c 0
 706 257.963867188 721 355.797851562 721 492 c 1
 625.853515625 457.747070312 420.40625 450.349609375 346 403 c 0
 298.666992188 372.87890625 275 322.545898438 275 252 c 0
 275 137.333007812 341.666992188 80 475 80 c 0
1162 608 m 2
 1256 608 1349 609.333007812 1441 612 c 1
 1438.85253906 730.133789062 1394.51855469 809.80078125 1308 851 c 0
 1280 864.333007812 1248.5 871 1213.5 871 c 128
 1058.04394531 871 935.287109375 741.591796875 928 608 c 1
 1162 608 l 2
EndSplineSet
EndChar

StartChar: eth
Encoding: 177 240 176
Width: 1166
Flags: HW
LayerCount: 2
Fore
SplineSet
406.291992188 1047.29394531 m 0
 440.516601562 1028.90039062 475.990234375 1050.23828125 496.541015625 1088.47851562 c 2
 720.92578125 1506.00390625 l 2
 742.541992188 1546.2265625 739.016601562 1593.91308594 703.5 1613 c 0
 669.319335938 1631.36914062 633.280273438 1609.0859375 612.778320312 1570.93554688 c 2
 388.393554688 1153.41015625 l 2
 366.724609375 1113.08886719 370.724609375 1066.40820312 406.291992188 1047.29394531 c 0
EndSplineSet
Refer: 26 57 N 1 0 0 -1 -5 1486 2
EndChar

StartChar: oslash
Encoding: 185 248 184
Width: 1119
Flags: HW
LayerCount: 2
Fore
SplineSet
887 1158 m 0
 911.33984375 1158 941 1139.60351562 941 1116.5 c 128
 941 1106.16699219 938.333007812 1093 933 1077 c 1
 320 -169 l 2
 305.970703125 -198.333007812 285.637695312 -213 259 -213 c 0
 236.10546875 -213 213 -194.043945312 213 -171.5 c 0
 213 -152.5 216.666992188 -135.666992188 224 -121 c 2
 824 1117 l 2
 837.015625 1144.33300781 858.015625 1158 887 1158 c 0
578 974 m 0
 869.14453125 974 1084 774.024414062 1084 483 c 0
 1084 330.120117188 1030.33300781 206.453125 923 112 c 0
 819.211914062 20.6669921875 688.87890625 -25 532 -25 c 0
 370.887695312 -25 250.083007812 35.4296875 168 120 c 0
 76 214.788085938 30 334.454101562 30 479 c 0
 30 778.275390625 271.573242188 974 578 974 c 0
539 868 m 0
 342.26171875 868 234 706.421875 234 501.5 c 0
 234 276.478515625 368.044921875 86 575 86 c 0
 774.93359375 86 889 239.9140625 889 447 c 0
 889 558.596679688 860.666992188 653.930664062 804 733 c 0
 739.5 823 651.166992188 868 539 868 c 0
EndSplineSet
EndChar

StartChar: thorn
Encoding: 191 254 190
Width: 1131
Flags: HW
LayerCount: 2
Fore
SplineSet
595 107 m 0
 779.639648438 107 882 243.7890625 882 433 c 0
 882 550.211914062 850 649.545898438 786 731 c 0
 723.666992188 810.333007812 650.864257812 850 567.592773438 850 c 128
 484.322265625 850 407.458007812 817.333007812 337 752 c 1
 337 201 l 1
 417 138.333007812 503 107 595 107 c 0
665 981 m 0
 938.650390625 981 1098 781.491210938 1098 502 c 0
 1098 354.661132812 1052.16699219 230.828125 960.5 130.5 c 0
 870.046875 31.5 761.546875 -18 635 -18 c 0
 536.333007812 -18 438.333007812 10 341 66 c 1
 341 -345 l 2
 341 -399.084960938 245.638671875 -448 185 -448 c 0
 148.7890625 -448 147 -396.90625 147 -357 c 2
 147 1247 l 2
 147 1307.18066406 123.166992188 1339.84667969 75.5 1345 c 0
 31.1533203125 1349.79394531 4 1346.63574219 4 1378 c 0
 4 1449.12988281 111.104492188 1482 186 1482 c 128
 273.0078125 1482 338 1481.56054688 338 1407 c 2
 338 854 l 1
 437.520507812 938.666992188 546.520507812 981 665 981 c 0
EndSplineSet
EndChar

StartChar: dotlessi
Encoding: 238 305 192
Width: 595
Flags: HW
LayerCount: 2
Fore
SplineSet
242 964 m 128
 329.124023438 964 393 963.594726562 393 889 c 2
 393 191 l 2
 393 150.272460938 414.5 128.606445312 457.5 126 c 0
 502.110351562 123.295898438 522 118.381835938 522 78 c 128
 522 39.6669921875 493.778320312 20.0419921875 461 11 c 0
 434.416992188 3.6669921875 392.604492188 0 335.5625 0 c 128
 307.974609375 0 278.5390625 -0.912109375 249.736328125 -0.912109375 c 0
 158.703125 -0.912109375 74 8.197265625 74 84 c 0
 74 132.690429688 132.452148438 120.447265625 169.5 134.5 c 0
 191.833007812 142.971679688 203 161.8046875 203 191 c 2
 203 729 l 2
 203 789.180664062 179.166992188 821.846679688 131.5 827 c 0
 87.1533203125 831.793945312 60 828.635742188 60 860 c 0
 60 931.129882812 167.104492188 964 242 964 c 128
EndSplineSet
EndChar

StartChar: Lslash
Encoding: 254 321 193
Width: 1386
Flags: HW
LayerCount: 2
Fore
SplineSet
135.5 498 m 128
 103.484375 498 76 533.548828125 76 569 c 0
 76 608.310546875 96.3330078125 634.977539062 137 649 c 2
 608 801 l 2
 620 804.333007812 630.333007812 806 639 806 c 0
 677.174804688 806 703 774.5703125 703 730 c 0
 703 694 682.666992188 669.333007812 642 656 c 2
 172 504 l 2
 160.666992188 500 148.5 498 135.5 498 c 128
1354 269 m 128
 1354 127.532226562 1245.203125 -4 1118 -4 c 2
 377 0 l 2
 274.666992188 0 208.916992188 3.5 179.75 10.5 c 128
 136.452148438 20.8916015625 95 39.73828125 95 84 c 128
 95 120.178710938 134.744140625 123.315429688 165 132.5 c 0
 214.701171875 147.587890625 245.034179688 169.087890625 256 197 c 1
 264.666992188 236 269 274.333007812 269 312 c 2
 269 1093 l 2
 269 1180.27050781 253.166992188 1232.27050781 221.5 1249 c 0
 190.21484375 1265.52832031 150.649414062 1276.02832031 117 1287.5 c 128
 102.333007812 1292.5 95 1303.33300781 95 1320 c 128
 95 1361.58789062 134.904296875 1382.73730469 173.5 1392 c 0
 206.833007812 1400 274.666992188 1404 377 1404 c 256
 480.666992188 1404 547.083007812 1400.5 576.25 1393.5 c 128
 618.78125 1383.29296875 662 1364.11132812 662 1321 c 128
 662 1286.58984375 625.956054688 1282.86914062 597.5 1274.5 c 128
 564.01171875 1264.65039062 535.149414062 1260.43652344 516 1236.5 c 0
 497.333007812 1213.16699219 488 1165.33300781 488 1093 c 2
 488 167 l 2
 488 150.077148438 494.333007812 139.1796875 507 134.307617188 c 0
 529.482421875 125.66015625 567.971679688 121.336914062 622.46875 121.336914062 c 0
 641.44921875 121.336914062 662.37109375 121.861328125 685.234375 122.91015625 c 128
 831.999023438 129.642578125 874.967773438 130.171875 986.5 141 c 0
 1065.31054688 148.651367188 1111.47753906 156.985351562 1125 166 c 1
 1147.91308594 193.49609375 1164.91992188 244.208007812 1184 279 c 0
 1212.15039062 330.333007812 1245.48339844 356 1284 356 c 0
 1332.59960938 356 1354 320.684570312 1354 269 c 128
EndSplineSet
EndChar

StartChar: lslash
Encoding: 255 322 194
Width: 659
Flags: HW
LayerCount: 2
Fore
SplineSet
103.5 669 m 128
 71.4846660424 669 44 704.549175429 44 740 c 0
 44 779.310546875 64.3333333333 805.977213542 105 820 c 2
 516 972 l 1
 528 975.333333333 538.333333333 977 547 977 c 0
 588.590922054 977 611 943.006346174 611 894.5 c 128
 611 860.114944621 580.66885237 836.200655711 550 827 c 1
 140 675 l 2
 128.666666667 671 116.5 669 103.5 669 c 128
369.5625 0 m 128
 341.974797413 0 312.538243375 -0.911977574057 283.735339192 -0.911977574057 c 0
 192.702923126 -0.911977574057 108 8.19771536396 108 84 c 0
 108 133.080735949 166.046418656 119.982521615 203 134.5 c 0
 225 143.142578125 236 161.975911458 236 191 c 2
 236 1247 l 2
 236 1307.18033854 212.166666667 1339.84700521 164.5 1345 c 0
 120.153143083 1349.79435029 93 1346.6355456 93 1378 c 0
 93 1449.12953454 200.104338543 1482 275 1482 c 128
 362.008044059 1482 427 1481.56024415 427 1407 c 2
 427 191 l 2
 427 150.272786458 448.5 128.606119792 491.5 126 c 0
 536.110437896 123.296172372 556 118.381410715 556 78 c 128
 556 39.6674278122 527.7785928 20.0423704275 495 11 c 0
 468.416666667 3.66666666667 426.604166667 0 369.5625 0 c 128
EndSplineSet
EndChar

StartChar: OE
Encoding: 268 338 195
Width: 2158
Flags: HW
LayerCount: 2
Fore
SplineSet
2033.32128906 342 m 128
 2091.32617188 342 2117 308.5703125 2117 251 c 128
 2117 181.580078125 2078.65136719 115.765625 2041 76.5 c 0
 1989.5390625 22.8330078125 1929.87207031 -4 1862 -4 c 2
 1167 0 l 1
 797 0 l 2
 584.546875 0 406.046875 54.3330078125 261.5 163 c 0
 109.166992188 277.520507812 33 426.520507812 33 610 c 0
 33 812.041992188 106.666992188 977.875 254 1107.5 c 0
 399.865234375 1235.83300781 585.198242188 1300 810 1300 c 2
 1929 1300 l 2
 2029.70898438 1300 2091 1208.51367188 2091 1103 c 0
 2091 1020.17480469 2066.17382812 960 1988.5 960 c 128
 1898.73535156 960 1878 1018.08007812 1878 1115 c 1
 1879 1175 l 1
 1276 1175 l 1
 1276 757 l 1
 1277 736 l 1
 1657 736 l 1
 1680.21582031 759.215820312 1712.97070312 858 1744 858 c 0
 1817.33300781 858 1854 796.666992188 1854 674 c 0
 1854 593.549804688 1837.16699219 536.883789062 1803.5 504 c 0
 1789.16699219 490 1773.5 483 1756.5 483 c 128
 1720.04296875 483 1706.93652344 512.37890625 1693.5 537.5 c 128
 1681.62695312 559.696289062 1667.80566406 594.189453125 1657 614 c 1
 1276 614 l 1
 1276 136 l 1
 1849 136 l 1
 1895.62304688 184.954101562 1961.67871094 342 2033.32128906 342 c 128
1055 139 m 1
 1059 268.333007812 1061 394.166992188 1061 516.5 c 2
 1061 924.5 l 1
 1062 1161 l 1
 991.333007812 1167.66699219 905.666992188 1171 805 1171 c 128
 609.083007812 1171 482.60546875 1117.38769531 388 1020 c 0
 295.333007812 924.608398438 249 804.94140625 249 661 c 0
 249 519.305664062 299.666992188 398.139648438 401 297.5 c 0
 507.395507812 191.833007812 645.061523438 139 814 139 c 2
 1055 139 l 1
EndSplineSet
EndChar

StartChar: florin
Encoding: 311 402 202
Width: 1097
Flags: HW
LayerCount: 2
Fore
SplineSet
1134 1329 m 0
 1134 1258.0703125 1067.32519531 1196 997.125 1196 c 0
 939.708007812 1196 911 1220 911 1268 c 0
 911 1280 915 1301.33300781 923 1332 c 1
 900.142578125 1342.66699219 876.142578125 1348 851 1348 c 0
 730.333007812 1348 670 1250 670 1054 c 0
 670 1020.44433594 671.666992188 989.778320312 675 962 c 1
 835 962 l 2
 876.333007812 962 897 952 897 932 c 0
 897 903.939453125 882.833007812 879.606445312 854.5 859 c 0
 833.416992188 843.666992188 815.583007812 836 801 836 c 2
 653 836 l 1
 586.64453125 500.431640625 509.977539062 267.931640625 423 138.5 c 0
 368.705078125 57.7041015625 310.038085938 7.37109375 247 -12.5 c 0
 216.333007812 -22.1669921875 188.666992188 -27 164 -27 c 128
 76.2646484375 -27 4 6.0888671875 4 87 c 0
 4 153.373046875 66.1787109375 210 132.337890625 210 c 0
 187.446289062 210 215 186 215 138 c 1
 208.333007812 124.666992188 205 103.333007812 205 74 c 1
 261.272460938 74 308.938476562 160.666992188 348 334 c 0
 358.666992188 381.333007812 368.666992188 428 378 474 c 1
 462 833 l 1
 392 833 l 2
 362 833 347 847.666992188 347 877 c 0
 347 912.578125 367.677734375 940.893554688 391.5 951 c 0
 408.786132812 958.333007812 444.952148438 962 500 962 c 1
 543 1109 l 1
 585.127929688 1277.51074219 673.127929688 1386.34375 807 1435.5 c 0
 849.666992188 1451.16699219 888.5 1459 923.5 1459 c 128
 1034.83300781 1459 1134 1429.30566406 1134 1329 c 0
EndSplineSet
EndChar

StartChar: circumflex
Encoding: 314 710 203
Width: 907
Flags: HW
LayerCount: 2
Fore
SplineSet
82 1275.3203125 m 1
 114.31640625 1349.18847656 395.762695312 1708.63964844 456.439453125 1708.63964844 c 256
 497.213867188 1708.63964844 814.627929688 1306.71875 824.439453125 1275.3203125 c 1
 803.279296875 1263.36035156 l 1
 774.151367188 1265.18066406 689.204101562 1314.24707031 548.439453125 1410.55957031 c 1
 511.639648438 1435.40039062 l 1
 511.639648438 1434.48046875 l 1
 456.439453125 1474.04003906 l 1
 422.399414062 1451.04003906 l 1
 346.555664062 1405.53417969 195.26171875 1271.7421875 111.439453125 1263.36035156 c 1
 82 1275.3203125 l 1
EndSplineSet
EndChar

StartChar: caron
Encoding: 315 711 204
Width: 761
Flags: HW
LayerCount: 2
Fore
SplineSet
754.439453125 1694.75976562 m 1
 714.229492188 1594.23535156 490.92578125 1353.1796875 425.080078125 1290.41992188 c 128
 405.453125 1271.71386719 391.959960938 1262.36035156 384.599609375 1262.36035156 c 128
 377.239257812 1262.36035156 363.439453125 1271.55957031 343.200195312 1289.95996094 c 128
 241.408203125 1382.49804688 67.4931640625 1576.83105469 12 1694.75976562 c 1
 39.599609375 1707.63964844 l 1
 77.1162109375 1704.75390625 261.998046875 1579.79199219 286.16015625 1564.12011719 c 2
 386.439453125 1497.87988281 l 1
 436.120117188 1533.75976562 l 1
 477.51953125 1560.44042969 l 2
 533.834960938 1597.48925781 671.409179688 1703.51464844 733.279296875 1707.63964844 c 1
 754.439453125 1694.75976562 l 1
EndSplineSet
EndChar

StartChar: breve
Encoding: 316 728 205
Width: 1003
Flags: HW
LayerCount: 2
Fore
SplineSet
920 417 m 1
 914.793945312 185.333984375 749.189453125 60 507.5 60 c 0
 265.0234375 60 107.124023438 188.969726562 102 417 c 1
 235 417 l 1
 246.056640625 299.791992188 372.950195312 239 511 239 c 256
 619.203125 239 699.536132812 269.166992188 752 329.5 c 0
 772 352.5 783.666992188 381.666992188 787 417 c 1
 920 417 l 1
EndSplineSet
EndChar

StartChar: dotaccent
Encoding: 317 729 206
Width: 461
Flags: HW
LayerCount: 2
Fore
SplineSet
227.903320312 464 m 128
 301.197265625 464 380 418.509765625 380 359.424804688 c 128
 380 290.671875 339.838867188 256.78515625 289 239.5 c 128
 272.333007812 233.833007812 256.166992188 231 240.5 231 c 128
 167.776367188 231 99 277.907226562 99 343 c 256
 99 377.389648438 114.833007812 406.556640625 146.5 430.5 c 0
 176.038085938 452.833007812 203.171875 464 227.903320312 464 c 128
EndSplineSet
EndChar

StartChar: ring
Encoding: 318 730 207
Width: 705
Flags: HW
LayerCount: 2
Fore
SplineSet
233 1256.5 m 128
 233 1190.31133575 280.52340021 1151 349.5 1151 c 128
 418.824334896 1151 467 1195.37084474 467 1262 c 128
 467 1328.3747672 419.791937178 1365 351 1365 c 128
 282.453554067 1365 233 1322.43068424 233 1256.5 c 128
356 1453 m 0
 499.181005905 1453 595 1397.95421996 595 1263.5 c 128
 595 1126.61013106 483.337549683 1063 349 1063 c 0
 241.296223958 1063 167.629557292 1098.66666667 128 1170 c 0
 114.666666667 1194 108 1222.5 108 1255.5 c 128
 108 1390.75813918 222.95166155 1453 356 1453 c 0
EndSplineSet
EndChar

StartChar: ogonek
Encoding: 319 731 208
Width: 555
Flags: HW
LayerCount: 2
Fore
SplineSet
212 -235 m 0
 212 -293.403320312 264.000976562 -305 335 -305 c 128
 361 -305 405 -294 467 -272 c 1
 501 -384 l 1
 501 -384 446.736328125 -408.848632812 433 -414 c 0
 376.111328125 -435.333007812 326.72265625 -446 284.833007812 -446 c 128
 149.543945312 -446 40 -397.9140625 40 -275 c 0
 40 -226.575195312 79.3330078125 -161.2421875 158 -79 c 1
 192.666992188 -44.3330078125 232.333007812 -9.6669921875 277 25 c 1
 413 25 l 1
 369.958984375 -3.142578125 332.865234375 -35.01171875 301.71875 -70.6064453125 c 0
 241.90625 -138.963867188 212 -193.76171875 212 -235 c 0
EndSplineSet
EndChar

StartChar: tilde
Encoding: 320 732 209
Width: 958
Flags: HW
LayerCount: 2
Fore
SplineSet
332.939453125 1366.40039062 m 128
 458.802734375 1366.40039062 635.643554688 1276.24023438 737.279296875 1276.24023438 c 0
 780.610351562 1276.24023438 833.993164062 1319.4453125 855.040039062 1323.16015625 c 1
 875.279296875 1315.79980469 l 1
 828.635742188 1224.84472656 738.403320312 1145.59960938 605.259765625 1145.59960938 c 128
 465.950195312 1145.59960938 373.677734375 1234.83984375 238.1796875 1234.83984375 c 128
 175.546875 1234.83984375 144.356445312 1195.51171875 104.319335938 1188.83984375 c 1
 85 1196.20019531 l 1
 127.127929688 1287.890625 205.846679688 1366.40039062 332.939453125 1366.40039062 c 128
EndSplineSet
EndChar

StartChar: hungarumlaut
Encoding: 321 733 210
Width: 858
Flags: HW
LayerCount: 2
Fore
SplineSet
363 1704 m 128
 439.913085938 1704 496 1666.140625 496 1597 c 0
 496 1563.10644531 441.666992188 1475.77246094 333 1335 c 0
 269.8203125 1253.15332031 221.692382812 1195.69238281 188.615234375 1162.61523438 c 128
 155.538085938 1129.53808594 134 1110.66699219 124 1106 c 1
 110 1120 l 1
 110 1125 l 2
 110 1155.79980469 127 1226.16699219 161 1336.09960938 c 128
 212.180664062 1501.58496094 212.8125 1511.54589844 247 1611 c 128
 260.309570312 1649.71777344 311.774414062 1704 363 1704 c 128
694 1704 m 128
 770.913085938 1704 827 1666.140625 827 1597 c 0
 827 1555.46875 751.333007812 1441.30175781 600 1254.5 c 0
 528.186523438 1165.85546875 479.853515625 1116.35546875 455 1106 c 1
 441 1120 l 1
 441 1125 l 1
 444.153320312 1165.99707031 461.942382812 1238.91210938 494.365234375 1343.74707031 c 128
 543.512695312 1502.65917969 544.497070312 1513.53710938 578 1611 c 128
 591.309570312 1649.71777344 642.774414062 1704 694 1704 c 128
EndSplineSet
EndChar

StartChar: endash
Encoding: 326 8211 211
Width: 841
Flags: HW
LayerCount: 2
Fore
SplineSet
110 307 m 0
 110 347.377929688 149.225585938 373 195 373 c 2
 669 373 l 2
 712.310546875 373 749 351.803710938 749 313 c 0
 749 272.6796875 708.663085938 247 663 247 c 2
 189 247 l 2
 145.587890625 247 110 268.145507812 110 307 c 0
EndSplineSet
EndChar

StartChar: emdash
Encoding: 327 8212 212
Width: 1214
Flags: HW
LayerCount: 2
Fore
SplineSet
110 307 m 0
 110 347.377929688 149.225585938 373 195 373 c 2
 1042 373 l 2
 1085.31054688 373 1122 351.803710938 1122 313 c 0
 1122 272.6796875 1081.66308594 247 1036 247 c 2
 189 247 l 2
 145.587890625 247 110 268.145507812 110 307 c 0
EndSplineSet
EndChar

StartChar: quoteleft
Encoding: 328 8216 213
Width: 461
Flags: HW
LayerCount: 2
Fore
SplineSet
90 1079 m 1
 90 1196.45117188 174.959960938 1298 287.5 1298 c 0
 313.166992188 1298 326 1290.33300781 326 1275 c 0
 326 1254.83789062 305.893554688 1243.8984375 293.5 1232 c 0
 270.840820312 1210.24707031 259.0078125 1183.24707031 258 1151 c 1
 321.932617188 1147.95605469 375 1123.26074219 375 1060 c 128
 375 987.916992188 298.396484375 953 229 953 c 0
 144.733398438 953 98.3994140625 995 90 1079 c 1
EndSplineSet
EndChar

StartChar: quoteright
Encoding: 329 8217 214
Width: 467
Flags: HW
LayerCount: 2
Fore
SplineSet
374 1172 m 1
 374 1054.54927878 289.039591436 953 176.5 953 c 0
 150.833333333 953 138 960.666666667 138 976 c 0
 138 996.162041283 158.106153047 1007.10190692 170.5 1019 c 0
 193.158854167 1040.75260417 204.9921875 1067.75260417 206 1100 c 1
 142.592184891 1103.01934292 89 1127.2296009 89 1190.5 c 128
 89 1263.03789788 165.249985955 1298 235 1298 c 0
 319.266927083 1298 365.600260417 1256 374 1172 c 1
EndSplineSet
EndChar

StartChar: quotesinglbase
Encoding: 330 8218 215
Width: 399
Flags: HW
LayerCount: 2
Fore
SplineSet
99 123 m 1
 99 192.661368888 133.231006076 250 204 250 c 256
 272.541515579 250 310 188.977128019 310 131 c 1
 240 -311 l 1
 237.977637486 -334.257168916 224.615995844 -359 203 -359 c 0
 182.884114583 -359 171.55078125 -344.333333333 169 -315 c 1
 99 123 l 1
EndSplineSet
EndChar

StartChar: quotedblleft
Encoding: 331 8220 216
Width: 826
Flags: HW
LayerCount: 2
Fore
SplineSet
90 1079 m 1
 90 1196.45117188 174.959960938 1298 287.5 1298 c 0
 313.166992188 1298 326 1290.33300781 326 1275 c 0
 326 1254.83789062 305.893554688 1243.8984375 293.5 1232 c 0
 270.840820312 1210.24707031 259.0078125 1183.24707031 258 1151 c 1
 321.932617188 1147.95605469 375 1123.26074219 375 1060 c 128
 375 987.916992188 298.396484375 953 229 953 c 0
 144.733398438 953 98.3994140625 995 90 1079 c 1
455 1079 m 1
 455 1196.45117188 539.959960938 1298 652.5 1298 c 0
 678.166992188 1298 691 1290.33300781 691 1275 c 0
 691 1254.83789062 670.893554688 1243.8984375 658.5 1232 c 0
 635.840820312 1210.24707031 624.0078125 1183.24707031 623 1151 c 1
 686.932617188 1147.95605469 740 1123.26074219 740 1060 c 128
 740 987.916992188 663.396484375 953 594 953 c 0
 509.733398438 953 463.399414062 995 455 1079 c 1
EndSplineSet
EndChar

StartChar: quotedblright
Encoding: 332 8221 217
Width: 832
Flags: HW
LayerCount: 2
Fore
SplineSet
739 1172 m 1
 739 1054.54927878 654.039591436 953 541.5 953 c 0
 515.833333333 953 503 960.666666667 503 976 c 0
 503 996.162041283 523.106153047 1007.10190692 535.5 1019 c 0
 558.158854167 1040.75260417 569.9921875 1067.75260417 571 1100 c 1
 507.592184891 1103.01934292 454 1127.2296009 454 1190.5 c 128
 454 1263.03789788 530.249985955 1298 600 1298 c 0
 684.266927083 1298 730.600260417 1256 739 1172 c 1
374 1172 m 1
 374 1054.54927878 289.039591436 953 176.5 953 c 0
 150.833333333 953 138 960.666666667 138 976 c 0
 138 996.162041283 158.106153047 1007.10190692 170.5 1019 c 0
 193.158854167 1040.75260417 204.9921875 1067.75260417 206 1100 c 1
 142.592184891 1103.01934292 89 1127.2296009 89 1190.5 c 128
 89 1263.03789788 165.249985955 1298 235 1298 c 0
 319.266927083 1298 365.600260417 1256 374 1172 c 1
EndSplineSet
EndChar

StartChar: quotedblbase
Encoding: 333 8222 218
Width: 799
Flags: HW
LayerCount: 2
Fore
SplineSet
99 123 m 1
 99 192.661368888 133.231006076 250 204 250 c 256
 272.541515579 250 310 188.977128019 310 131 c 1
 240 -311 l 1
 237.977637486 -334.257168916 224.615995844 -359 203 -359 c 0
 182.884114583 -359 171.55078125 -344.333333333 169 -315 c 1
 99 123 l 1
499 123 m 1
 499 192.661368888 533.231006076 250 604 250 c 256
 672.541515579 250 710 188.977128019 710 131 c 1
 640 -311 l 1
 637.977637486 -334.257168916 624.615995844 -359 603 -359 c 0
 582.884114583 -359 571.55078125 -344.333333333 569 -315 c 1
 499 123 l 1
EndSplineSet
EndChar

StartChar: dagger
Encoding: 334 8224 219
Width: 845
Flags: HW
LayerCount: 2
Fore
SplineSet
849.143554688 972 m 0
 849.143554688 960.8671875 849.288085938 948.817382812 849.288085938 936.409179688 c 0
 849.288085938 869.4296875 845.07421875 792 791.143554688 792 c 0
 767.413085938 792 767.661132812 816.377929688 764.643554688 837.5 c 0
 760.310546875 867.833007812 744.143554688 883 716.143554688 883 c 2
 506.143554688 883 l 1
 506.143554688 185 l 2
 506.143554688 152.453125 531.310546875 132.953125 581.643554688 126.5 c 0
 622.4140625 121.2734375 657.143554688 119.013671875 657.143554688 90 c 0
 657.143554688 27.3330078125 593.143554688 -4 465.143554688 -4 c 1
 361.143554688 -1 l 1
 252.477539062 -1 198.143554688 29.3330078125 198.143554688 90 c 0
 198.143554688 128.501953125 281.271484375 120.162109375 309.143554688 130 c 0
 335.143554688 139.176757812 348.143554688 157.509765625 348.143554688 185 c 2
 348.143554688 883 l 1
 128.143554688 883 l 2
 80.177734375 883 80.1201171875 844.223632812 72.1435546875 807 c 128
 70.1435546875 797.666992188 63.810546875 793 53.1435546875 793 c 0
 15.1435546875 793 -3.8564453125 834.333007812 -3.8564453125 917 c 0
 -3.8564453125 928.267578125 -4 940.649414062 -4 953.51953125 c 0
 -4 1022.70996094 0.1552734375 1106 53.1435546875 1106 c 0
 66.1875 1106 74.6875 1090.83300781 78.6435546875 1060.5 c 128
 82.6005859375 1030.16699219 99.1005859375 1015 128.143554688 1015 c 2
 348.143554688 1014 l 1
 348.143554688 1220 l 2
 348.143554688 1256.0703125 323.143554688 1276.73730469 273.143554688 1282 c 0
 231.115234375 1286.42382812 198.143554688 1285.8359375 198.143554688 1314 c 0
 198.143554688 1376.66699219 258.143554688 1408 378.143554688 1408 c 1
 480.143554688 1405 l 1
 598.143554688 1405 657.143554688 1374.66699219 657.143554688 1314 c 0
 657.143554688 1276.64355469 572.890625 1285.79296875 545.143554688 1276 c 0
 519.143554688 1266.82324219 506.143554688 1248.15722656 506.143554688 1220 c 2
 506.143554688 1014 l 1
 716.143554688 1014 l 2
 764.448242188 1014 761.920898438 1055.21972656 772.143554688 1091 c 128
 774.810546875 1100.33300781 781.477539062 1105 792.143554688 1105 c 0
 830.143554688 1105 849.143554688 1060.66699219 849.143554688 972 c 0
EndSplineSet
EndChar

